<?xml version="1.0" encoding="utf-8"?>
<!-- Generator: Adobe Illustrator 23.0.1, SVG Export Plug-In . SVG Version: 6.00 Build 0)  -->
<svg version="1.1" id="Layer_1" xmlns="http://www.w3.org/2000/svg" xmlns:xlink="http://www.w3.org/1999/xlink" x="0px" y="0px"
	 viewBox="0 0 117.9 93.3" style="enable-background:new 0 0 117.9 93.3;" xml:space="preserve">
<style type="text/css">
	.st0{fill:#6A82A0;}
	.st1{fill:#4D667C;}
	.st2{fill:#FFFFFF;}
	.st3{fill:none;}
	.st4{fill:#E0ECFC;}
</style>
<g>
	<path class="st0" d="M110.2,9.7L83,10.2l-27.2,0.3c-9.1,0-18.1,0.1-27.2,0.1l-13.6,0L1.4,10.5l1.2-1.4c0.2,1.8,0.2,3.5,0.3,5.2
		c0,1.7,0.1,3.4,0.1,5.1L3,29.6c0,6.8-0.1,13.6-0.1,20.3c-0.1,6.8-0.2,13.6-0.4,20.3C2.3,73.6,2.2,77,2,80.4
		c-0.2,3.4-0.4,6.8-0.7,10.1C1.5,83.8,1.4,77,1.4,70.2L1.1,49.9L0.8,29.6L0.6,19.5l-0.1-5.1C0.3,12.7,0.3,11,0.1,9.5L0,8.1l1.4,0
		l13.6,0l13.6,0.1c9.1,0,18.1,0.2,27.2,0.2L83,8.9c4.5,0.1,9.1,0.2,13.6,0.4C101.1,9.3,105.6,9.5,110.2,9.7z"/>
</g>
<g>
	<path class="st0" d="M1.3,90.6c4.6-0.2,9.2-0.3,13.8-0.4c4.6-0.1,9.2-0.2,13.8-0.2l27.5,0c9.2,0.1,18.3,0.2,27.5,0.3l13.8,0.2
		c4.6,0.1,9.2,0.2,13.7,0.2l-1.2,1.5c-1.3-6.9-1.5-13.8-1.7-20.7c-0.2-6.9-0.1-13.8,0.1-20.6c0.2-6.9,0.4-13.7,0.7-20.6l0.5-10.3
		l0.3-5.1c0.1-1.7,0.3-3.4,0.2-5.1c0.2,3.4,0.1,6.9,0.1,10.3l-0.1,10.3c0,6.9-0.1,13.7,0,20.6c0,6.9,0.2,13.7,0.4,20.6
		c0.1,3.4,0.3,6.8,0.6,10.2c0.3,3.4,0.6,6.8,1.3,10.1l0.3,1.5l-1.5,0c-9.3,0-18.4-0.2-27.6-0.4l-27.5-0.6L1.3,90.6z"/>
</g>
<g>
	<path class="st0" d="M30.2,0.2c0.5,1.2,0.8,2.5,1,3.7c0.2,1.3,0.3,2.5,0.3,3.8c0,1.3-0.1,2.5-0.3,3.8c-0.2,1.2-0.5,2.5-1,3.7
		c-0.5-1.3-0.8-2.5-1-3.8C29.1,10.2,29,9,29,7.7c0-1.2,0.1-2.5,0.3-3.7C29.4,2.7,29.7,1.5,30.2,0.2z"/>
</g>
<g>
	<path class="st0" d="M80.5,0c0.5,1.3,0.8,2.6,1,3.9c0.2,1.3,0.3,2.6,0.3,3.9c0,1.3-0.1,2.6-0.3,3.9c-0.2,1.3-0.5,2.6-1,3.9
		c-0.5-1.3-0.8-2.6-1-3.9c-0.2-1.3-0.3-2.6-0.3-3.9c0-1.3,0.1-2.6,0.3-3.9C79.7,2.6,80,1.3,80.5,0z"/>
</g>
<g>
	<path class="st0" d="M49.8,28.3c-1.1,2.1-2.3,4.2-3.4,6.3L42.9,41l-3.4,6.3l-3.3,6.3l-1.4-1.8c2.9-0.7,5.8-1.3,8.7-1.8
		c2.9-0.5,5.9-0.8,8.9-1c3-0.2,6-0.2,8.9,0.1c3,0.3,5.9,0.9,8.7,2c-2.9-0.4-5.8-0.7-8.7-0.6c-2.9,0-5.8,0.3-8.7,0.6
		c-2.9,0.3-5.8,0.8-8.6,1.3c-2.9,0.5-5.7,1.1-8.5,1.8l-2.7,0.6l1.3-2.4c1.1-2.1,2.3-4.2,3.6-6.3c1.2-2.1,2.5-4.1,3.8-6.1
		c1.3-2,2.7-4,4.1-6C46.8,32.1,48.2,30.2,49.8,28.3z"/>
</g>
<g>
	<path class="st0" d="M60.8,43.1c0.5,2.5,0.8,5,1,7.4c0.2,2.5,0.3,5,0.3,7.4c0,2.5-0.1,5-0.3,7.4c-0.2,2.5-0.5,5-1,7.4
		c-0.5-2.5-0.8-5-1-7.4c-0.2-2.5-0.3-5-0.3-7.4c0-2.5,0.1-5,0.3-7.4C60,48.1,60.2,45.6,60.8,43.1z"/>
</g>
<g>
	<path class="st0" d="M77.8,63.8c1.9,2.3,3.6,4.8,5.2,7.4c1.6,2.6,3.1,5.2,4.4,7.9l-1.8-0.2c2.3-3.5,4.8-7,7.3-10.3
		c2.5-3.4,5.1-6.7,7.8-10c2.7-3.2,5.4-6.4,8.3-9.5c2.9-3.1,5.8-6.1,8.9-9c-2.5,3.4-5.1,6.7-7.6,10l-7.7,10l-7.7,10l-7.6,10l-1.1,1.4
		l-0.7-1.6c-1.2-2.7-2.4-5.5-3.7-8.2C80.6,69.1,79.2,66.4,77.8,63.8z"/>
</g>
</svg>
