<?xml version="1.0" encoding="utf-8"?>
<!-- Generator: Adobe Illustrator 23.0.1, SVG Export Plug-In . SVG Version: 6.00 Build 0)  -->
<svg version="1.1" id="Layer_1" xmlns="http://www.w3.org/2000/svg" xmlns:xlink="http://www.w3.org/1999/xlink" x="0px" y="0px"
	 viewBox="0 0 96.7 96.2" style="enable-background:new 0 0 96.7 96.2;" xml:space="preserve">
<style type="text/css">
	.st0{fill:#6A82A0;}
	.st1{fill:#4D667C;}
	.st2{fill:#FFFFFF;}
	.st3{fill:none;}
	.st4{fill:#E0ECFC;}
</style>
<g>
	<path class="st0" d="M96.7,91.1c-1.3-5.1-4.6-9.6-8.7-12.8c-4.1-3.2-9-5.2-14-6.6c-1.3-0.3-2.5-0.6-3.8-0.9
		c-1.3-0.3-2.6-0.6-3.9-1.2c-2.6-1.2-4.6-3.4-5.9-5.9c-0.6-1.2-1.1-2.5-1.5-3.9c-0.3-1.3-0.6-2.8-0.3-4.3c0.3-1.6,1.2-2.9,2.2-3.9
		c1-1,2-1.9,2.8-2.8c0.8-0.9,1.4-1.8,1.6-2.9c0.1-0.5,0.1-1.2,0.1-1.9c0.1-0.7,0.2-1.6,0.6-2.4c0.2-0.4,0.6-0.8,0.9-1
		c0.3-0.3,0.6-0.4,0.8-0.6c0.2-0.2,0.4-0.3,0.5-0.5c0.2-0.2,0.3-0.4,0.5-0.6c0.5-1,0.9-2.2,1.1-3.4c0.2-1.2,0.2-2.4,0.1-3.6
		c-0.1-0.5-0.2-1.1-0.5-1.4c-0.1-0.2-0.8-0.7-1.3-1.5c-0.2-0.4-0.4-0.9-0.5-1.4c-0.1-0.5,0-0.9,0-1.3l0.3-2c0.2-1.2,0.2-2.5,0.2-3.7
		c-0.2-5-2.1-10-5.6-13.4c-1.8-1.7-3.9-3.1-6.2-3.9C54,2.4,51.5,2,49,2.3l-0.1-2.2l0.3,0L49,2.3c-5.4-0.7-11.1,1.7-14.7,5.9
		c-3.7,4.2-5.3,10.1-4.7,15.7c0.1,0.7,0.2,1.4,0.3,2.1c0.1,0.7,0.2,1.7-0.2,2.6c-0.3,0.5-0.6,0.7-0.8,1c-0.1,0.1-0.1,0.2-0.2,0.3
		l-0.2,0.4c-0.2,0.6-0.4,1.3-0.4,2c-0.1,1.4-0.1,2.8,0.1,4.2c0.2,1.4,0.6,2.8,1.4,3.8c0.4,0.5,1.1,0.8,1.7,1.4
		c0.5,0.7,0.7,1.5,0.8,2.2c0.1,0.8,0,1.5,0.1,2.2c0.1,0.7,0.3,1.4,0.7,2c1.5,2.4,4.4,3.9,5.4,6.8c-1.2-2.8-4.2-4-5.8-6.5
		c-0.4-0.6-0.7-1.4-0.8-2.1c-0.1-0.8-0.1-1.5-0.2-2.2c-0.1-0.7-0.3-1.4-0.7-1.8c-0.4-0.5-1.1-0.7-1.7-1.3c-0.6-0.6-0.9-1.3-1.2-2
		c-0.3-0.7-0.5-1.4-0.6-2.2c-0.3-1.5-0.5-3-0.3-4.5c0.1-0.8,0.2-1.5,0.5-2.3l0.2-0.6c0.1-0.2,0.3-0.5,0.4-0.6
		c0.3-0.3,0.5-0.5,0.6-0.7c0.4-0.9-0.2-2.4-0.3-3.9c-0.8-6,0.8-12.3,4.7-17.1C36.7,2.2,43-0.6,49.3,0.1l-0.1,2.2l-0.3,0l-0.1-2.2
		c2.8-0.3,5.7,0,8.3,1c2.6,1,5.1,2.5,7.1,4.4c4.1,3.9,6.2,9.5,6.4,15c0,1.4,0,2.8-0.2,4.2L70,26.6c-0.1,0.6,0,0.9,0.1,1.2
		c0.1,0.2,0.2,0.3,0.4,0.6c0.1,0.1,0.2,0.2,0.4,0.4c0.1,0.2,0.3,0.4,0.4,0.6c0.5,0.8,0.6,1.5,0.8,2.3c0.2,1.5,0.1,2.9-0.1,4.3
		c-0.3,1.4-0.7,2.8-1.4,4.1c-0.2,0.3-0.4,0.7-0.7,1c-0.2,0.3-0.6,0.6-0.9,0.9c-0.3,0.2-0.6,0.4-0.8,0.5c-0.2,0.2-0.3,0.2-0.4,0.4
		c-0.4,0.7-0.3,2-0.5,3.5c-0.2,1.6-1.2,3-2.2,4c-1,1-2,1.8-2.9,2.7c-0.9,0.9-1.5,1.8-1.7,2.9c-0.2,1.1-0.1,2.3,0.2,3.5
		c0.3,1.2,0.7,2.4,1.2,3.5c1.1,2.2,2.7,4.2,5,5.3c2.2,1,4.9,1.4,7.5,2.2c5.1,1.5,10.1,3.8,14.2,7.3C92.6,81.2,95.7,85.9,96.7,91.1z"
		/>
</g>
<g>
	<path class="st0" d="M38.2,54.8c0.5,1.1,0.5,2.3,0.4,3.5c-0.1,1.2-0.4,2.3-0.8,3.5c-0.8,2.2-2,4.4-3.8,6c-0.9,0.8-2,1.5-3.1,1.9
		c-1.1,0.5-2.3,0.8-3.4,1.1c-2.3,0.6-4.5,1.2-6.7,2c-4.3,1.6-8.4,3.9-11.7,7.1C5.8,83,3.3,87,2.4,91.3l-0.6-1.3
		c1.7,0.7,3.6,1.2,5.5,1.7c1.9,0.5,3.8,0.8,5.8,1.1c2,0.3,3.9,0.5,5.9,0.7c1,0.1,1.9,0.1,2.9,0.2c1,0,2,0.1,3,0.1
		c4,0,7.9-0.2,11.9-0.5c4-0.3,8-0.6,11.9-1c8-0.7,16-1.4,24-1.9c4-0.3,8-0.3,12-0.2c4,0.1,8,0.3,12,0.8c-4-0.2-8-0.2-12-0.1
		c-4,0.1-8,0.4-11.9,0.8c-8,0.7-15.9,1.8-23.9,2.7c-8,0.9-15.9,1.7-24.1,1.8c-2,0-4.1,0-6.1-0.2c-2-0.2-4-0.5-6-0.8
		c-2-0.3-4-0.7-6-1.2c-2-0.5-3.9-1-5.9-1.9L0,91.8l0.2-0.9c1.1-4.9,3.9-9.1,7.5-12.4c3.6-3.3,8-5.5,12.5-7c2.3-0.8,4.6-1.4,6.9-1.9
		c1.1-0.3,2.3-0.5,3.3-0.9c1.1-0.4,2.1-0.9,2.9-1.6c1.8-1.4,3.1-3.4,3.9-5.5c0.4-1.1,0.8-2.2,1-3.3C38.6,57.1,38.6,55.9,38.2,54.8z"
		/>
</g>
<g>
	<path class="st0" d="M44.8,5.7c-0.1,2.3-0.2,4.7,0.4,6.8c0.5,2.2,1.8,4,3.2,5.8L47,18.5c0.5-1.7,1.1-3.4,1.6-5.1l1.2-3.6l0.7,3.8
		c0.3,1.9,1.2,3.8,2.1,5.7c1,1.9,1.9,3.8,2.9,5.7l-2.2,0.3l0.9-4.7l1.2-6.4l1.1,6.4c0.5,2.8,1.9,5.5,3.9,7.6c1,1.1,2.2,1.8,3.5,2.8
		c1.3,0.9,2.8,2,3.6,3.6c0.8,1.6,1.1,3.3,1.1,4.9c0,1.6,0,3.2-0.1,4.7c-0.1,3.1-0.2,6.3-0.4,9.4c-0.3-3.1-0.6-6.3-0.8-9.4
		c-0.1-1.6-0.2-3.2-0.3-4.7c-0.2-1.5-0.4-3-1.1-4.1c-0.7-1.1-1.9-2-3.1-2.8c-1.3-0.8-2.8-1.7-4-2.9c-2.4-2.3-4.1-5.5-4.7-8.8l2.3,0
		l-1,4.7l-0.7,3.4l-1.5-3.1c-0.9-1.9-1.8-3.9-2.7-5.8c-0.9-2-1.8-4.1-2-6.4l1.8,0.2c-0.7,1.7-1.3,3.3-2,5l-0.6,1.4L47,19.2
		c-0.6-1-1.2-2-1.8-3.1c-0.5-1.1-0.9-2.3-1-3.5C43.9,10.3,44.4,8,44.8,5.7z"/>
</g>
</svg>
