<?xml version="1.0" encoding="utf-8"?>
<!-- Generator: Adobe Illustrator 23.0.1, SVG Export Plug-In . SVG Version: 6.00 Build 0)  -->
<svg version="1.1" id="Layer_1" xmlns="http://www.w3.org/2000/svg" xmlns:xlink="http://www.w3.org/1999/xlink" x="0px" y="0px"
	 viewBox="0 0 81.2 100.7" style="enable-background:new 0 0 81.2 100.7;" xml:space="preserve">
<style type="text/css">
	.st0{fill:#6A82A0;}
	.st1{fill:#4D667C;}
	.st2{fill:#FFFFFF;}
	.st3{fill:none;}
	.st4{fill:#E0ECFC;}
</style>
<g>
	<path class="st4" d="M56.5,33.5c0.2,3.7-0.7,7.5-2.2,11c-1.6,3.5-3.9,6.7-6.9,9.3c-2.9,2.6-6.5,4.6-10.3,5.8
		c-3.8,1.2-7.9,1.6-11.8,1.2c-4-0.4-7.9-1.7-11.3-3.7c-3.5-2-6.5-4.7-8.8-7.9c-2.3-3.2-3.9-6.8-4.7-10.6c-0.8-3.8-0.7-7.6,0.2-11.2
		C1,35,3.7,41.8,8.3,46.9c4.6,5.1,10.9,8.3,17.6,9c6.7,0.7,13.5-1.1,19.1-5.1C50.6,46.8,54.7,40.7,56.5,33.5z"/>
</g>
<g>
	<path class="st4" d="M0.7,27.6c-0.2-3.7,0.7-7.5,2.2-11C4.5,13,6.8,9.8,9.8,7.2c2.9-2.6,6.5-4.6,10.3-5.8c3.8-1.2,7.9-1.6,11.8-1.2
		c4,0.4,7.9,1.7,11.3,3.7c3.5,2,6.5,4.7,8.8,7.9c2.3,3.2,3.9,6.8,4.7,10.6c0.8,3.8,0.7,7.6-0.2,11.2c-0.3-7.4-3-14.3-7.6-19.4
		C44.3,9,38,5.8,31.3,5.1c-6.7-0.7-13.5,1.1-19.1,5.1C6.7,14.2,2.5,20.4,0.7,27.6z"/>
</g>
<g>
	<path class="st4" d="M43.4,53.9c4,3.3,7.5,6.8,11,10.5c3.4,3.7,6.7,7.5,9.9,11.4c3.2,3.9,6.2,7.9,9,12c2.8,4.1,5.6,8.4,7.9,12.9
		c-4-3.2-7.5-6.8-11-10.5c-3.4-3.7-6.7-7.5-9.9-11.4c-3.1-3.9-6.2-7.9-9-12C48.4,62.7,45.7,58.5,43.4,53.9z"/>
</g>
</svg>
