<?xml version="1.0" encoding="utf-8"?>
<!-- Generator: Adobe Illustrator 23.0.1, SVG Export Plug-In . SVG Version: 6.00 Build 0)  -->
<svg version="1.1" id="Layer_1" xmlns="http://www.w3.org/2000/svg" xmlns:xlink="http://www.w3.org/1999/xlink" x="0px" y="0px"
	 viewBox="0 0 153.9 130.3" style="enable-background:new 0 0 153.9 130.3;" xml:space="preserve">
<style type="text/css">
	.st0{fill:#6A82A0;}
	.st1{fill:#4D667C;}
	.st2{fill:#FFFFFF;}
	.st3{fill:none;}
	.st4{fill:#E0ECFC;}
</style>
<g>
	<path class="st0" d="M7.9,122.7c-1.8-0.1-3.7,1-4.4,2.7c-0.7,1.7-4.6,2.6-3.2,3.8c1.7,1.6,11.5-0.7,13.9-0.8
		c7.5-0.5,11.8,2.1,19.4,2c13.1-0.2,25.6-0.3,38.7-1.7c1.8-0.2,16.5,0.5,11.9-2.3c-1.7-1-7.3-0.8-9.5-2.3
		c-5.2-3.7-12.1-4.2-18.5-4.2c-6.4-0.1-12.9,0.6-19.3,0.1"/>
</g>
<g>
	<path class="st1" d="M97.3,113.7c0.1,1.7-1.4,2.6-0.2,3.6c1.9,1.5,7.9,0.2,10.3,0.1c3.1,0,6.3,0.2,9.4,0c-0.2-0.2-0.3-0.5-0.4-0.8
		c-1.1,0-2.2,0-3.2-0.1c-5.4-0.4-10.6-2.2-16-3.4C97.2,113.2,97.3,113.4,97.3,113.7z"/>
</g>
<g>
	<path class="st0" d="M129.9,119.9c-2.9,1.1-8.6,0.9-10.4,1c-4.7,0.5-9.4,0.3-14.1,0.4c-3.1,0.1-6.7,0.6-9.7-0.3
		c-0.8-0.2-1.5-0.6-2.1-1c-2.6,2.3-8.5,1.5-12.2,0.7c-2.4-0.6-6.1-1.8-8-3.8c0.1,2.5,1.1,5.1,3.3,6.1c1.2,0.6,2.7,0.6,4,0.7
		c1.7,0.1,3.5,0.1,5.2,0.2c0.6,0,1.6,0,2,0.4c0.3,0.3,0.3,0.8,0.5,1.2c0.6,1.1,1.7,0.8,2.9,1c4.2,0.8,8.4,0.7,12.6,1.6
		c4.2,0.9,11,2.9,14.7,0.7c1.7-1,3.6,0,4.6-5.8c0.2-1.5,2.4,0.4,6.1,0.1c0.3,0,0.7-0.1,0.9-0.4c0.2-0.3,2.9-2.7,2.8-3
		C132.9,119,130.1,120.7,129.9,119.9z"/>
</g>
<g>
	<g>
		<path class="st0" d="M50.5,14.3c0.5,2.6,0.1,5.4-0.6,8c-0.7,2.6-1.8,5.1-2.8,7.5c-2.1,4.9-3.8,10-5.1,15.1
			c-2.6,10.3-3.9,20.9-3.7,31.5c0.1,5.3,0.5,10.6,1.3,15.8c0.8,5.2,1.9,10.6,1.7,16c-0.1,2.7-0.5,5.4-1.4,8
			c-0.2,0.6-0.5,1.3-0.8,1.9c-0.3,0.6-0.7,1.2-0.9,1.8c-0.2,0.5-0.2,1.1,0,1.4c0.3,0.3,0.9,0.4,1.5,0.4c5.3-0.6,10.6-1.3,15.9-1.9
			c-5.3,1-10.5,1.8-15.8,2.7c-0.4,0-0.7,0-1.1,0c-0.4-0.1-0.8-0.3-1.1-0.6c-0.6-0.7-0.5-1.7-0.2-2.4c0.3-0.7,0.6-1.2,0.9-1.8
			c0.3-0.6,0.5-1.2,0.7-1.8c0.8-2.5,1.1-5.1,1.1-7.7c0-5.3-1.1-10.5-2-15.8c-0.8-5.3-1.3-10.7-1.4-16.1c-0.1-10.8,1.2-21.5,4.1-31.9
			c1.5-5.2,3.3-10.2,5.5-15.1c1.1-2.4,2.3-4.8,3.2-7.3C50.3,19.6,50.8,16.9,50.5,14.3z"/>
	</g>
	<g>
		<path class="st0" d="M52.1,108.6c0,3.3,1.9,6.4,4.7,7.9c1.4,0.8,2.9,1.3,4.4,1.7c1.6,0.4,3.2,0.7,4.8,0.9c6.4,1,13,0.9,19.5,1.1
			c6.6,0.2,13.1,0.4,19.7,0.7c1.6,0.1,3.2,0,4.8-0.3c1.6-0.3,3.1-0.8,4.6-1.5c3-1.2,6-2.8,9.4-3.1c-3.2,0.7-6.1,2.4-9,3.8
			c-1.5,0.7-3.1,1.3-4.7,1.7c-1.7,0.4-3.4,0.5-5,0.5c-6.6,0-13.1-0.1-19.7-0.3c-6.5-0.2-13.2-0.2-19.7-1.5c-1.6-0.3-3.2-0.7-4.8-1.2
			c-1.6-0.5-3.2-1.1-4.6-2.1C53.4,115.3,51.7,111.9,52.1,108.6z"/>
	</g>
	<g>
		<path class="st0" d="M113.4,120.7c4.5,0.3,9.1,0.2,13.6-0.4c1.1-0.1,2.2-0.3,3.4-0.5c1.1-0.2,2.3-0.4,3.5-0.4
			c2.4,0.1,4.5,1.5,6.6,1.2l-0.4,0.3c0.5-1.1,0-2.4-0.7-3.5c-0.7-1.2-1.5-2.4-2-3.8c-0.9-2.9-0.6-5.8-0.3-8.6
			c0.5-5.6,0.8-11.1,0-16.6c-0.8-5.5-2.5-10.8-3.9-16.3c-0.7-2.7-1.4-5.5-1.8-8.3c-0.4-2.8-0.7-5.6-0.9-8.4
			c-0.3-5.6-0.6-11.2-0.8-16.8c-0.1-2.8-0.3-5.6-0.4-8.4c-0.1-2.8-0.1-5.7,0.2-8.5c0.4-2.8,1.2-5.7,2.8-8.1c1.6-2.4,3.7-4.3,4.7-6.8
			c0.2-0.6,0.5-1.3,0.3-1.8c-0.1-0.2-0.3-0.4-0.6-0.5c-0.3-0.2-0.6-0.3-0.9-0.4c-0.6-0.2-1.4-0.3-1.9-0.2c-0.6,0.2-1.3,0.5-1.9,0.7
			c-0.6,0.3-1.3,0.5-2,0.7c-0.7,0.2-1.4,0.2-2.1,0.3c-1.4,0.1-2.8,0.1-4.2,0.1c1.4-0.1,2.8-0.2,4.2-0.4c0.7-0.1,1.4-0.2,2-0.4
			c0.7-0.2,1.3-0.5,1.9-0.8c0.6-0.3,1.3-0.6,1.9-0.8c0.9-0.2,1.5,0,2.3,0.1c0.4,0.1,0.7,0.2,1,0.4c0.3,0.2,0.7,0.4,0.9,0.8
			c0.2,0.5,0.1,0.9,0.1,1.2c-0.1,0.4-0.2,0.7-0.3,1.1c-1,2.8-3.1,4.8-4.6,7.1c-1.5,2.3-2.2,5-2.5,7.7c-0.3,2.7-0.2,5.5,0,8.3
			l0.5,8.4c0.3,5.6,0.6,11.2,1,16.8c0.2,2.8,0.5,5.6,0.9,8.3c0.5,2.7,1.1,5.4,1.8,8.1c1.4,5.4,3,10.8,3.8,16.5
			c0.8,5.7,0.5,11.4-0.1,17c-0.3,2.8-0.6,5.6,0.1,8.1c0.3,1.3,1.1,2.4,1.8,3.7c0.3,0.6,0.6,1.3,0.8,2.1c0.2,0.8,0.1,1.6-0.2,2.4
			l-0.1,0.3l-0.3,0c-1.3,0.2-2.5-0.2-3.5-0.5c-1.1-0.4-2.1-0.7-3.2-0.8c-1.1-0.1-2.2,0.1-3.3,0.2c-1.1,0.2-2.3,0.3-3.4,0.4
			C122.5,121.2,117.9,121.2,113.4,120.7z"/>
	</g>
	<g>
		<path class="st0" d="M49.4,19.2c-0.6-0.8-0.9-1.8-1.1-2.8c-0.2-1-0.4-2-0.6-2.9c-0.3-2-0.5-3.9-0.6-6c0-0.3,0.1-0.7,0.4-0.9
			c0.3-0.2,0.6-0.3,0.8-0.3c0.5-0.1,1-0.2,1.5-0.2c1-0.1,2.1,0.1,3.1,0.3c2,0.5,3.9,1.1,5.7,1.4c0.9,0.1,1.9,0.1,2.8-0.2
			C62.2,7.4,63.1,7,64,6.6c1.7-0.9,3.4-2.1,5.3-2.9c3.8-1.7,7.9-2.3,11.8-2.7c8-0.9,16-1.2,24-0.7c4,0.2,8,0.6,11.9,1.1
			c2,0.3,3.9,0.6,5.9,0.9c1,0.2,2,0.4,2.9,0.8c0.9,0.4,1.8,1,2.2,1.9c-0.5-0.9-1.4-1.4-2.3-1.7c-0.9-0.3-1.9-0.5-2.9-0.6
			c-2-0.2-4-0.3-5.9-0.5c-4-0.3-7.9-0.5-11.9-0.6c-7.9-0.1-15.9,0.2-23.8,1.1c-3.9,0.4-7.8,1-11.4,2.5c-1.8,0.7-3.4,1.8-5.3,2.7
			c-0.9,0.4-1.9,0.8-3,1.1c-1.1,0.2-2.2,0.2-3.2,0.1c-2.1-0.3-3.9-1.1-5.8-1.6c-0.9-0.2-1.9-0.4-2.8-0.5c-0.5,0-0.9,0-1.4,0.1
			c-0.5,0.1-0.8,0.2-0.8,0.6c0,1.9,0.2,3.9,0.4,5.9c0.1,1,0.2,2,0.4,2.9C48.6,17.4,48.8,18.4,49.4,19.2z"/>
	</g>
	<g>
		<g>
			<path class="st0" d="M53.8,17.8l1.4-0.1l0,0c0,0,0.1,0,0.1,0.1s0,0.1-0.1,0.1c0,0,0,0,0,0L53.8,17.8z"/>
			<circle class="st0" cx="55.3" cy="17.8" r="0.1"/>
			<path class="st0" d="M58,17.3l2.7-0.7l0,0c0.2,0,0.3,0.1,0.4,0.2c0,0.2-0.1,0.3-0.2,0.4c0,0,0,0,0,0l-2.8,0.5
				c-0.1,0-0.2-0.1-0.2-0.2C57.8,17.4,57.9,17.3,58,17.3L58,17.3z"/>
			<path class="st0" d="M60.8,17.2c-0.2,0-0.3-0.1-0.3-0.3s0.1-0.3,0.3-0.3c0.2,0,0.3,0.1,0.3,0.3S60.9,17.2,60.8,17.2z"/>
			<circle class="st0" cx="63.5" cy="16.1" r="0.4"/>
			<path class="st0" d="M63.3,15.7c0.9-0.3,1.8-0.6,2.7-0.8l0,0c0.2-0.1,0.5,0,0.5,0.3c0.1,0.2,0,0.5-0.3,0.5c0,0,0,0,0,0
				c-0.9,0.3-1.8,0.6-2.7,0.9c-0.2,0.1-0.5-0.1-0.5-0.3C63,16,63.1,15.8,63.3,15.7L63.3,15.7z"/>
			<circle class="st0" cx="66.1" cy="15.3" r="0.4"/>
			<path class="st0" d="M68.8,14.8c-0.2,0-0.4-0.2-0.4-0.4c0-0.2,0.2-0.4,0.4-0.4c0.2,0,0.4,0.2,0.4,0.4
				C69.2,14.7,69,14.8,68.8,14.8z"/>
			<path class="st0" d="M68.6,14l2.7-0.8c0.2-0.1,0.5,0.1,0.5,0.3c0.1,0.2-0.1,0.5-0.3,0.5l0,0l-2.7,0.8l0,0
				c-0.2,0.1-0.5-0.1-0.5-0.3C68.3,14.3,68.4,14.1,68.6,14z"/>
			<circle class="st0" cx="71.4" cy="13.6" r="0.4"/>
			<circle class="st0" cx="74.1" cy="12.9" r="0.4"/>
			<path class="st0" d="M74,12.5l2.7-0.6c0.2-0.1,0.5,0.1,0.5,0.3c0.1,0.2-0.1,0.5-0.3,0.5l0,0l-2.7,0.6l0,0
				c-0.2,0.1-0.5-0.1-0.5-0.3C73.7,12.8,73.8,12.6,74,12.5z"/>
			<path class="st0" d="M76.9,12.7c-0.2,0-0.4-0.2-0.4-0.4s0.2-0.4,0.4-0.4c0.2,0,0.4,0.2,0.4,0.4S77.1,12.7,76.9,12.7z"/>
			<path class="st0" d="M79.6,12.1c-0.2,0-0.4-0.2-0.4-0.4s0.2-0.4,0.4-0.4c0.2,0,0.4,0.2,0.4,0.4S79.8,12.1,79.6,12.1z"/>
			<path class="st0" d="M79.5,11.3l2.8-0.5c0.2,0,0.4,0.1,0.5,0.3s-0.1,0.4-0.3,0.5l0,0l-2.7,0.5l0,0c-0.2,0-0.4-0.1-0.5-0.3
				C79.1,11.6,79.3,11.3,79.5,11.3z"/>
			<path class="st0" d="M82.3,11.7c-0.2,0-0.4-0.2-0.4-0.4s0.2-0.4,0.4-0.4c0.2,0,0.4,0.2,0.4,0.4S82.6,11.7,82.3,11.7z"/>
			<circle class="st0" cx="85.1" cy="10.9" r="0.4"/>
			<path class="st0" d="M85.1,10.4l2.8-0.3c0.2,0,0.4,0.1,0.5,0.4c0,0.2-0.1,0.4-0.4,0.5l0,0l-2.8,0.3l0,0c-0.2,0-0.4-0.1-0.5-0.4
				C84.7,10.7,84.8,10.5,85.1,10.4z"/>
			<circle class="st0" cx="87.9" cy="10.5" r="0.4"/>
			<circle class="st0" cx="90.7" cy="10.3" r="0.4"/>
			<path class="st0" d="M90.6,9.9l2.8-0.1c0.2,0,0.4,0.2,0.4,0.4s-0.2,0.4-0.4,0.4l0,0l-2.8,0.1l0,0c-0.2,0-0.4-0.2-0.4-0.4
				C90.2,10.1,90.4,9.9,90.6,9.9z"/>
			<circle class="st0" cx="93.4" cy="10.2" r="0.4"/>
			<circle class="st0" cx="96.2" cy="10.1" r="0.4"/>
			<path class="st0" d="M96.2,9.7l2.8,0c0.2,0,0.4,0.2,0.4,0.4c0,0.2-0.2,0.4-0.4,0.4l0,0l-2.8,0l0,0c-0.2,0-0.4-0.2-0.4-0.4
				C95.8,9.9,96,9.7,96.2,9.7z"/>
			<path class="st0" d="M99,10.5c-0.2,0-0.4-0.2-0.4-0.4s0.2-0.4,0.4-0.4c0.2,0,0.4,0.2,0.4,0.4S99.2,10.5,99,10.5z"/>
			<circle class="st0" cx="101.8" cy="10.2" r="0.4"/>
			<path class="st0" d="M101.8,9.8l2.8,0.2c0.2,0,0.4,0.2,0.4,0.4s-0.2,0.4-0.4,0.4l0,0l-2.8-0.2l0,0c-0.2,0-0.4-0.2-0.4-0.4
				C101.4,9.9,101.6,9.8,101.8,9.8z"/>
			<circle class="st0" cx="104.6" cy="10.4" r="0.4"/>
			<path class="st0" d="M107.4,11.1c-0.2,0-0.4-0.2-0.4-0.4s0.2-0.4,0.4-0.4c0.2,0,0.4,0.2,0.4,0.4S107.6,11.1,107.4,11.1z"/>
			<path class="st0" d="M107.4,10.2l2.8,0.3c0.2,0,0.4,0.2,0.4,0.5c0,0.2-0.2,0.4-0.5,0.4l0,0l-2.8-0.3l0,0c-0.2,0-0.4-0.2-0.4-0.5
				S107.2,10.2,107.4,10.2z"/>
			<circle class="st0" cx="110.1" cy="11" r="0.4"/>
			<circle class="st0" cx="112.9" cy="11.4" r="0.4"/>
			<path class="st0" d="M113,11l2.8,0.5c0.2,0,0.4,0.3,0.3,0.5s-0.3,0.4-0.5,0.3l0,0l-2.7-0.5l0,0c-0.2,0-0.4-0.3-0.3-0.5
				S112.7,11,113,11z"/>
			<circle class="st0" cx="115.6" cy="11.9" r="0.4"/>
			<circle class="st0" cx="118.4" cy="12.5" r="0.4"/>
			<path class="st0" d="M118.5,12.1c0.9,0.2,1.8,0.4,2.7,0.7c0.2,0.1,0.4,0.3,0.3,0.5c-0.1,0.2-0.3,0.4-0.5,0.3l0,0
				c-0.9-0.2-1.8-0.5-2.7-0.7l0,0c-0.2-0.1-0.4-0.3-0.3-0.5C118,12.2,118.2,12.1,118.5,12.1C118.4,12.1,118.5,12.1,118.5,12.1z"/>
			<circle class="st0" cx="121.1" cy="13.2" r="0.4"/>
			<circle class="st0" cx="123.7" cy="13.9" r="0.3"/>
			<path class="st0" d="M123.8,13.6c0.9,0.3,1.8,0.7,2.6,1c0.1,0,0.2,0.1,0.1,0.2c0,0.1-0.1,0.1-0.2,0.1l0,0
				c-0.9-0.3-1.8-0.5-2.7-0.8c-0.2,0-0.3-0.2-0.2-0.4C123.5,13.7,123.6,13.6,123.8,13.6C123.8,13.6,123.8,13.6,123.8,13.6
				L123.8,13.6z"/>
			<circle class="st0" cx="126.4" cy="14.8" r="0.2"/>
			<path class="st0" d="M128.9,16.1l1,1.1l-1.1-1l0,0c0,0,0-0.1,0-0.1S128.8,16.1,128.9,16.1C128.9,16.1,128.9,16.1,128.9,16.1z"/>
		</g>
	</g>
	<g>
		<g>
			<path class="st0" d="M53.8,13.3l1.4-0.1l0,0c0,0,0.1,0,0.1,0.1s0,0.1-0.1,0.1c0,0,0,0,0,0L53.8,13.3z"/>
			<circle class="st0" cx="55.3" cy="13.2" r="0.1"/>
			<path class="st0" d="M58,12.7l2.7-0.7l0,0c0.2,0,0.3,0.1,0.4,0.2c0,0.2-0.1,0.3-0.2,0.4c0,0,0,0,0,0l-2.8,0.5
				c-0.1,0-0.2-0.1-0.2-0.2C57.8,12.9,57.9,12.8,58,12.7L58,12.7z"/>
			<path class="st0" d="M60.8,12.7c-0.2,0-0.3-0.1-0.3-0.3s0.1-0.3,0.3-0.3c0.2,0,0.3,0.1,0.3,0.3S60.9,12.7,60.8,12.7z"/>
			<circle class="st0" cx="63.5" cy="11.6" r="0.4"/>
			<path class="st0" d="M63.3,11.2c0.9-0.3,1.8-0.6,2.7-0.8l0,0c0.2-0.1,0.5,0,0.5,0.3c0.1,0.2,0,0.5-0.3,0.5c0,0,0,0,0,0
				c-0.9,0.3-1.8,0.6-2.7,0.9c-0.2,0.1-0.5-0.1-0.5-0.3C63,11.5,63.1,11.3,63.3,11.2L63.3,11.2z"/>
			<circle class="st0" cx="66.1" cy="10.7" r="0.4"/>
			<path class="st0" d="M68.8,10.3c-0.2,0-0.4-0.2-0.4-0.4c0-0.2,0.2-0.4,0.4-0.4c0.2,0,0.4,0.2,0.4,0.4
				C69.2,10.1,69,10.3,68.8,10.3z"/>
			<path class="st0" d="M68.6,9.5l2.7-0.8c0.2-0.1,0.5,0.1,0.5,0.3c0.1,0.2-0.1,0.5-0.3,0.5l0,0l-2.7,0.8l0,0
				c-0.2,0.1-0.5-0.1-0.5-0.3C68.3,9.8,68.4,9.5,68.6,9.5z"/>
			<circle class="st0" cx="71.4" cy="9.1" r="0.4"/>
			<circle class="st0" cx="74.1" cy="8.4" r="0.4"/>
			<path class="st0" d="M74,8l2.7-0.6c0.2-0.1,0.5,0.1,0.5,0.3c0.1,0.2-0.1,0.5-0.3,0.5l0,0l-2.7,0.6l0,0c-0.2,0.1-0.5-0.1-0.5-0.3
				C73.7,8.2,73.8,8,74,8z"/>
			<path class="st0" d="M76.9,8.2c-0.2,0-0.4-0.2-0.4-0.4c0-0.2,0.2-0.4,0.4-0.4c0.2,0,0.4,0.2,0.4,0.4C77.3,8,77.1,8.2,76.9,8.2z"
				/>
			<path class="st0" d="M79.6,7.6c-0.2,0-0.4-0.2-0.4-0.4c0-0.2,0.2-0.4,0.4-0.4c0.2,0,0.4,0.2,0.4,0.4C80,7.4,79.8,7.6,79.6,7.6z"
				/>
			<path class="st0" d="M79.5,6.8l2.8-0.5c0.2,0,0.4,0.1,0.5,0.3c0,0.2-0.1,0.4-0.3,0.5l0,0l-2.7,0.5l0,0c-0.2,0-0.4-0.1-0.5-0.3
				C79.1,7,79.3,6.8,79.5,6.8z"/>
			<path class="st0" d="M82.3,7.1c-0.2,0-0.4-0.2-0.4-0.4c0-0.2,0.2-0.4,0.4-0.4c0.2,0,0.4,0.2,0.4,0.4C82.8,6.9,82.6,7.1,82.3,7.1z
				"/>
			<circle class="st0" cx="85.1" cy="6.3" r="0.4"/>
			<path class="st0" d="M85.1,5.9l2.8-0.3c0.2,0,0.4,0.1,0.5,0.4c0,0.2-0.1,0.4-0.4,0.5l0,0l-2.8,0.3l0,0c-0.2,0-0.4-0.1-0.5-0.4
				C84.7,6.1,84.8,5.9,85.1,5.9z"/>
			<circle class="st0" cx="87.9" cy="6" r="0.4"/>
			<circle class="st0" cx="90.7" cy="5.8" r="0.4"/>
			<path class="st0" d="M90.6,5.3l2.8-0.1c0.2,0,0.4,0.2,0.4,0.4c0,0.2-0.2,0.4-0.4,0.4l0,0l-2.8,0.1l0,0c-0.2,0-0.4-0.2-0.4-0.4
				S90.4,5.4,90.6,5.3z"/>
			<circle class="st0" cx="93.4" cy="5.6" r="0.4"/>
			<circle class="st0" cx="96.2" cy="5.6" r="0.4"/>
			<path class="st0" d="M96.2,5.1l2.8,0c0.2,0,0.4,0.2,0.4,0.4C99.4,5.8,99.3,6,99,6l0,0l-2.8,0l0,0c-0.2,0-0.4-0.2-0.4-0.4
				C95.8,5.3,96,5.1,96.2,5.1z"/>
			<path class="st0" d="M99,6c-0.2,0-0.4-0.2-0.4-0.4c0-0.2,0.2-0.4,0.4-0.4c0.2,0,0.4,0.2,0.4,0.4C99.4,5.8,99.2,6,99,6z"/>
			<circle class="st0" cx="101.8" cy="5.7" r="0.4"/>
			<path class="st0" d="M101.8,5.2l2.8,0.2c0.2,0,0.4,0.2,0.4,0.4s-0.2,0.4-0.4,0.4l0,0l-2.8-0.2l0,0c-0.2,0-0.4-0.2-0.4-0.4
				C101.4,5.4,101.6,5.2,101.8,5.2z"/>
			<circle class="st0" cx="104.6" cy="5.8" r="0.4"/>
			<path class="st0" d="M107.4,6.5c-0.2,0-0.4-0.2-0.4-0.4c0-0.2,0.2-0.4,0.4-0.4c0.2,0,0.4,0.2,0.4,0.4
				C107.8,6.3,107.6,6.5,107.4,6.5z"/>
			<path class="st0" d="M107.4,5.7l2.8,0.3c0.2,0,0.4,0.2,0.4,0.5c0,0.2-0.2,0.4-0.5,0.4l0,0l-2.8-0.3l0,0c-0.2,0-0.4-0.2-0.4-0.5
				C107,5.8,107.2,5.7,107.4,5.7z"/>
			<circle class="st0" cx="110.1" cy="6.5" r="0.4"/>
			<circle class="st0" cx="112.9" cy="6.9" r="0.4"/>
			<path class="st0" d="M113,6.5l2.8,0.5c0.2,0,0.4,0.3,0.3,0.5c0,0.2-0.3,0.4-0.5,0.3l0,0l-2.7-0.5l0,0c-0.2,0-0.4-0.3-0.3-0.5
				S112.7,6.4,113,6.5z"/>
			<circle class="st0" cx="115.6" cy="7.4" r="0.4"/>
			<circle class="st0" cx="118.4" cy="8" r="0.4"/>
			<path class="st0" d="M118.5,7.6c0.9,0.2,1.8,0.4,2.7,0.7c0.2,0.1,0.4,0.3,0.3,0.5c-0.1,0.2-0.3,0.4-0.5,0.3l0,0
				c-0.9-0.2-1.8-0.5-2.7-0.7l0,0c-0.2-0.1-0.4-0.3-0.3-0.5C118,7.7,118.2,7.5,118.5,7.6C118.4,7.6,118.5,7.6,118.5,7.6z"/>
			<circle class="st0" cx="121.1" cy="8.6" r="0.4"/>
			<circle class="st0" cx="123.7" cy="9.4" r="0.3"/>
			<path class="st0" d="M123.8,9.1c0.9,0.3,1.8,0.7,2.6,1c0.1,0,0.2,0.1,0.1,0.2c0,0.1-0.1,0.1-0.2,0.1l0,0
				c-0.9-0.3-1.8-0.5-2.7-0.8c-0.2,0-0.3-0.2-0.2-0.4C123.5,9.1,123.6,9,123.8,9.1C123.8,9.1,123.8,9.1,123.8,9.1L123.8,9.1z"/>
			<circle class="st0" cx="126.4" cy="10.3" r="0.2"/>
			<path class="st0" d="M128.9,11.6l1,1.1l-1.1-1l0,0c0,0,0-0.1,0-0.1S128.8,11.6,128.9,11.6C128.9,11.6,128.9,11.6,128.9,11.6z"/>
		</g>
	</g>
	<g>
		<path class="st0" d="M127.2,37.6c-0.2,3.2-1,6.3-1.7,9.4c-0.8,3.1-1.7,6.1-2.2,9.2c-0.5,3.1-0.7,6.2-0.2,9.3
			c0.5,3.1,1.4,6.2,1.7,9.4c0.7,6.6-1.2,12.9-0.2,19.1c0.4,3.1,1.1,6.2,2.1,9.2c0.9,3,2.1,6,3.2,9c-1.4-2.8-2.8-5.7-4-8.7
			c-1.1-3-2.1-6.1-2.6-9.3c-0.6-3.2-0.5-6.5-0.3-9.7c0.2-3.2,0.5-6.3,0.1-9.4c-0.3-3.1-1.2-6.2-1.6-9.4c-0.4-3.3-0.2-6.6,0.5-9.7
			c0.7-3.2,1.7-6.2,2.7-9.2C125.7,43.8,126.6,40.8,127.2,37.6z"/>
	</g>
	<g>
		<path class="st0" d="M133.1,107.9c0.5-2.5,0.9-5,1.2-7.6c0.1-1.3,0.2-2.5,0.2-3.8c0-1.2,0-2.5-0.2-3.7c-0.2-2.5-0.8-4.9-1.6-7.3
			c-0.8-2.4-1.5-4.9-2.1-7.4c1.2,2.3,2.3,4.6,3.3,7c0.5,1.2,0.9,2.4,1.3,3.7c0.3,1.3,0.6,2.6,0.7,3.9c0.2,2.6,0.1,5.3-0.4,7.8
			C135.1,103.1,134.2,105.6,133.1,107.9z"/>
	</g>
	<g>
		<path class="st2" d="M41.1,49c-3.2,0.8-6.7,1.7-8.5,4.5c-1,1.4-1.4,3.2-1.7,4.9c-1.5,7.4-3.1,14.8-3.5,22.4
			c-0.4,7.5,0.2,15.3,3,22.3c1.4,3.6-10.2,1.7-10.4,5.5c-0.1,2.8-18.2,15.1-16.8,17.5c0.9,1.5,17.4-3.2,35-0.3
			c10.5,1.7,20.6-0.7,31.2,0c2.7,0.2,7.8-1.8,10.5-1.5c1.3,0.2,3.3,0.7,2.5-0.4c-4.2-5.8,0.2-19.1-2.3-25.7c-1.2-3.2-3.4-6-4.9-9.1
			c-1.3-2.8-2-5.9-2.1-9c0-3.9,0.9-8-0.8-11.5c-1.9-3.8-6.3-5.6-10.5-6.2s-8.5-0.2-12.6-1.2c-0.7-0.2-1.4-0.4-2-0.9
			c-0.5-0.5-0.8-1.2-1.1-1.8c-0.7-1.9-0.9-4-1.7-5.9c-0.8-1.9-2.3-3.7-4.3-3.9"/>
	</g>
	<g>
		<path class="st0" d="M12.3,56.9c0.4,1.8,0.1,3.6-0.5,5.3c-0.6,1.7-1.4,3.3-2.2,4.9c-1.6,3.2-2.9,6.5-3.9,9.9c-2,6.8-3,13.9-2.7,21
			c0.1,3.5,0.6,7,1.3,10.5c0.7,3.5,1.5,7.2,0.9,10.9c-0.3,1.8-0.9,3.7-2,5.2c-0.3,0.4-0.5,0.7-0.5,0.9c0,0.2,0.1,0.4,0.4,0.5
			c0.7,0.2,1.6,0,2.5-0.1c3.6-0.3,7.2-0.6,10.7-0.9c-3.5,0.6-7.1,1.1-10.6,1.7l-1.3,0.2c-0.5,0.1-1,0.1-1.5,0
			c-0.3-0.1-0.6-0.2-0.8-0.4c-0.2-0.3-0.4-0.6-0.4-1c0-0.7,0.4-1.1,0.6-1.5c0.9-1.5,1.4-3.1,1.6-4.8c0.4-3.4-0.4-6.9-1.1-10.4
			c-0.8-3.5-1.2-7.2-1.4-10.8C1,90.9,2.1,83.5,4.4,76.7c1.2-3.4,2.7-6.8,4.4-9.9c0.9-1.6,1.8-3.1,2.5-4.7
			C12.1,60.4,12.5,58.7,12.3,56.9z"/>
	</g>
	<g>
		<path class="st0" d="M13.5,117.9c0,1.3,0.6,2.5,1.4,3.4c0.8,0.9,1.9,1.5,3,2c1.1,0.4,2.3,0.7,3.6,0.9c1.2,0.2,2.5,0.4,3.7,0.5
			c5,0.5,10,0.5,15,0.6c5,0.1,10.1,0.3,15.1,0.5c1.2,0,2.5,0,3.7-0.1c1.2-0.2,2.4-0.5,3.6-0.9c2.4-0.7,4.8-1.7,7.4-1.8
			c-2.5,0.5-4.7,1.6-7.1,2.6c-1.2,0.5-2.4,0.9-3.7,1.2c-1.3,0.3-2.6,0.3-3.9,0.4c-5.1,0-10.1,0-15.1-0.1c-5-0.1-10.1-0.2-15.2-0.9
			c-1.3-0.2-2.5-0.4-3.8-0.7c-1.2-0.3-2.5-0.6-3.7-1.2c-1.2-0.6-2.3-1.4-3-2.4C13.8,120.5,13.3,119.2,13.5,117.9z"/>
	</g>
	<g>
		<path class="st0" d="M61.7,125.7c3.6,0.1,7.1,0,10.6-0.4c0.9-0.1,1.8-0.2,2.6-0.4c0.9-0.1,1.8-0.3,2.7-0.3c1.9,0,3.6,0.9,5.2,0.7
			l-0.4,0.3c0.3-0.6,0-1.3-0.5-2c-0.5-0.7-1.2-1.5-1.6-2.5c-0.7-2-0.5-4-0.3-5.9c0.4-3.7,0.6-7.4-0.2-11c-0.7-3.6-2-7.1-3.2-10.7
			c-0.6-1.8-1-3.7-1.4-5.6c-0.3-1.9-0.5-3.8-0.6-5.7c-0.2-3.8-0.4-7.5-0.6-11.2c-0.1-1.9-0.2-3.7-0.2-5.6c0-1.9,0.1-3.9,0.6-5.7
			c0.3-0.9,0.7-1.9,1.2-2.7c0.5-0.8,1.2-1.6,1.9-2.2c0.7-0.7,1.3-1.3,1.8-2c0.3-0.4,0.5-0.7,0.7-1.1c0.2-0.4,0.3-0.9,0.2-0.9
			c-0.2-0.2-0.7-0.4-1.1-0.5c-0.4-0.1-0.9-0.2-1.3-0.2c-0.1,0-0.2,0-0.3,0l-0.3,0.1l-0.7,0.2c-0.4,0.1-0.9,0.3-1.3,0.4
			c-0.9,0.3-1.9,0.3-2.8,0.4c-0.9,0-1.9,0-2.8,0c0.9-0.1,1.9-0.2,2.8-0.3c0.9-0.1,1.9-0.2,2.7-0.5c0.4-0.2,0.9-0.3,1.3-0.5l0.7-0.2
			l0.3-0.1c0.1,0,0.3-0.1,0.4-0.1c0.5,0,1,0,1.5,0.1c0.5,0.1,1,0.2,1.4,0.6c0.3,0.3,0.3,0.7,0.2,1c0,0.3-0.1,0.5-0.2,0.7
			c-0.2,0.5-0.4,0.9-0.7,1.3c-0.5,0.8-1.2,1.5-1.8,2.2c-0.6,0.7-1.2,1.4-1.7,2.1c-0.5,0.8-0.8,1.6-1,2.5c-0.9,3.5-0.2,7.3,0,11
			l0.8,11.2c0.1,1.9,0.3,3.7,0.6,5.5c0.3,1.8,0.8,3.6,1.3,5.3c1.1,3.5,2.4,7.1,3.1,10.9c0.8,3.8,0.5,7.7,0,11.4
			c-0.2,1.8-0.5,3.7,0,5.3c0.2,0.8,0.8,1.5,1.3,2.3c0.3,0.4,0.5,0.9,0.7,1.4c0.2,0.5,0.1,1.2-0.2,1.8l-0.1,0.3l-0.3,0
			c-2.1,0.2-3.7-0.9-5.3-0.9c-0.8,0-1.7,0.1-2.6,0.2c-0.9,0.1-1.8,0.2-2.7,0.2C68.8,126.1,65.2,126.1,61.7,125.7z"/>
	</g>
	<g>
		<path class="st0" d="M11.4,60.1c-0.5-0.6-0.8-1.3-1-2c-0.2-0.7-0.4-1.5-0.5-2.2c-0.1-0.8-0.2-1.5-0.3-2.3L9.6,53
			c0-0.2-0.1-0.4,0-0.7c0.1-0.3,0.4-0.5,0.6-0.6c0.2-0.1,0.4-0.1,0.6-0.1c1.6-0.3,3.2,0,4.7,0.3c1.5,0.3,2.9,0.7,4.3,0.6
			c2.8-0.1,5.3-2.2,8.3-3.1c3-1,6.1-1.2,9.1-1.5c6.1-0.5,12.2-0.6,18.3-0.3c3,0.2,6.1,0.4,9.1,0.8l4.5,0.6c0.8,0.1,1.5,0.2,2.2,0.5
			c0.7,0.3,1.5,0.6,1.8,1.3c-0.4-0.7-1.2-0.9-1.9-1.1c-0.7-0.2-1.5-0.3-2.2-0.3c-1.5-0.1-3-0.2-4.5-0.2c-3-0.1-6.1-0.2-9.1-0.3
			c-6,0-12.1,0.2-18.1,0.7c-3,0.2-6,0.5-8.8,1.3c-1.4,0.4-2.7,1-4.1,1.6c-1.4,0.6-3,1.2-4.6,1.2c-1.7,0-3.2-0.5-4.6-0.9
			c-1.4-0.4-2.9-0.8-4.3-0.6c-0.2,0-0.4,0-0.5,0.1c-0.2,0-0.2,0.1-0.2,0.2c-0.1,0.2,0,0.7,0,1c0,0.8,0.1,1.5,0.2,2.3
			c0.1,0.8,0.2,1.5,0.3,2.2C10.8,58.7,11,59.5,11.4,60.1z"/>
	</g>
	<g>
		<g>
			<path class="st0" d="M14.9,59.2l1,0c0,0,0,0,0,0c0,0,0,0,0,0c0,0,0,0,0,0L14.9,59.2z"/>
			<path class="st0" d="M16,59.2C15.9,59.2,15.9,59.2,16,59.2C15.9,59.1,15.9,59.1,16,59.2C16,59.1,16,59.1,16,59.2
				C16,59.2,16,59.2,16,59.2z"/>
			<path class="st0" d="M18,58.9l2-0.4l0,0c0.1,0,0.2,0,0.2,0.1c0,0.1,0,0.2-0.1,0.2c0,0,0,0,0,0l-2,0.3C17.9,59.1,17.9,59,18,58.9
				C17.9,58.9,17.9,58.9,18,58.9L18,58.9z"/>
			<circle class="st0" cx="20" cy="58.6" r="0.1"/>
			<circle class="st0" cx="22" cy="58.2" r="0.2"/>
			<path class="st0" d="M21.9,58c0.6-0.2,1.3-0.3,2-0.5c0.1,0,0.2,0,0.3,0.1s0,0.2-0.2,0.3c-0.7,0.2-1.3,0.3-2,0.5
				c-0.1,0-0.2,0-0.2-0.2C21.7,58.1,21.8,58,21.9,58L21.9,58z"/>
			<path class="st0" d="M23.9,57.9c-0.1,0-0.2-0.1-0.2-0.2c0-0.1,0.1-0.2,0.2-0.2c0.1,0,0.2,0.1,0.2,0.2
				C24.1,57.8,24,57.9,23.9,57.9z"/>
			<path class="st0" d="M25.9,57.4c-0.1,0-0.2-0.1-0.2-0.2c0-0.1,0.1-0.2,0.2-0.2s0.2,0.1,0.2,0.2C26.1,57.3,26,57.4,25.9,57.4z"/>
			<path class="st0" d="M25.8,57l2-0.5c0.1,0,0.2,0,0.3,0.2c0,0.1,0,0.2-0.2,0.3l-2,0.5c-0.1,0-0.2,0-0.3-0.1
				C25.7,57.1,25.7,57,25.8,57L25.8,57z"/>
			<path class="st0" d="M27.9,56.9c-0.1,0-0.2-0.1-0.2-0.2c0-0.1,0.1-0.2,0.2-0.2c0.1,0,0.2,0.1,0.2,0.2
				C28.1,56.8,28,56.9,27.9,56.9z"/>
			<path class="st0" d="M29.8,56.4c-0.1,0-0.2-0.1-0.2-0.2c0-0.1,0.1-0.2,0.2-0.2s0.2,0.1,0.2,0.2C30,56.3,29.9,56.4,29.8,56.4z"/>
			<path class="st0" d="M29.8,56l2-0.4c0.1,0,0.2,0,0.2,0.2c0,0.1,0,0.2-0.2,0.2l0,0l-2,0.4l0,0c-0.1,0-0.2,0-0.2-0.2
				S29.7,56,29.8,56z"/>
			<circle class="st0" cx="31.8" cy="55.8" r="0.2"/>
			<circle class="st0" cx="33.8" cy="55.4" r="0.2"/>
			<path class="st0" d="M33.8,55.2l2-0.3c0.1,0,0.2,0.1,0.2,0.2c0,0.1-0.1,0.2-0.2,0.2l0,0l-2,0.3l0,0c-0.1,0-0.2-0.1-0.2-0.2
				C33.6,55.4,33.7,55.3,33.8,55.2z"/>
			<path class="st0" d="M35.8,55.3c-0.1,0-0.2-0.1-0.2-0.2c0-0.1,0.1-0.2,0.2-0.2c0.1,0,0.2,0.1,0.2,0.2
				C36,55.2,35.9,55.3,35.8,55.3z"/>
			<circle class="st0" cx="37.8" cy="54.9" r="0.2"/>
			<path class="st0" d="M37.8,54.6l2-0.2c0.1,0,0.2,0.1,0.2,0.2s-0.1,0.2-0.2,0.2l0,0l-2,0.2l0,0c-0.1,0-0.2-0.1-0.2-0.2
				C37.6,54.8,37.7,54.7,37.8,54.6z"/>
			<circle class="st0" cx="39.9" cy="54.6" r="0.2"/>
			<circle class="st0" cx="41.9" cy="54.4" r="0.2"/>
			<path class="st0" d="M41.9,54.2l2-0.1c0.1,0,0.2,0.1,0.2,0.2c0,0.1-0.1,0.2-0.2,0.2l0,0l-2,0.1l0,0c-0.1,0-0.2-0.1-0.2-0.2
				C41.7,54.3,41.7,54.2,41.9,54.2z"/>
			<path class="st0" d="M43.9,54.5c-0.1,0-0.2-0.1-0.2-0.2c0-0.1,0.1-0.2,0.2-0.2c0.1,0,0.2,0.1,0.2,0.2
				C44.1,54.4,44,54.5,43.9,54.5z"/>
			<path class="st0" d="M45.9,54.4c-0.1,0-0.2-0.1-0.2-0.2c0-0.1,0.1-0.2,0.2-0.2c0.1,0,0.2,0.1,0.2,0.2
				C46.1,54.3,46,54.4,45.9,54.4z"/>
			<path class="st0" d="M45.9,54l2,0c0.1,0,0.2,0.1,0.2,0.2s-0.1,0.2-0.2,0.2l0,0l-2,0l0,0c-0.1,0-0.2-0.1-0.2-0.2
				C45.7,54.1,45.8,54,45.9,54z"/>
			<circle class="st0" cx="48" cy="54.2" r="0.2"/>
			<path class="st0" d="M50,54.4c-0.1,0-0.2-0.1-0.2-0.2c0-0.1,0.1-0.2,0.2-0.2c0.1,0,0.2,0.1,0.2,0.2C50.2,54.3,50.1,54.4,50,54.4z
				"/>
			<path class="st0" d="M50,54l2,0c0.1,0,0.2,0.1,0.2,0.2c0,0.1-0.1,0.2-0.2,0.2l0,0l-2,0l0,0c-0.1,0-0.2-0.1-0.2-0.2
				C49.8,54.1,49.9,54,50,54z"/>
			<path class="st0" d="M52,54.4c-0.1,0-0.2-0.1-0.2-0.2c0-0.1,0.1-0.2,0.2-0.2c0.1,0,0.2,0.1,0.2,0.2C52.2,54.3,52.1,54.4,52,54.4z
				"/>
			<path class="st0" d="M54,54.5c-0.1,0-0.2-0.1-0.2-0.2c0-0.1,0.1-0.2,0.2-0.2c0.1,0,0.2,0.1,0.2,0.2C54.3,54.4,54.2,54.5,54,54.5z
				"/>
			<path class="st0" d="M54.1,54.1l2,0.1c0.1,0,0.2,0.1,0.2,0.2c0,0.1-0.1,0.2-0.2,0.2l0,0l-2-0.1l0,0c-0.1,0-0.2-0.1-0.2-0.2
				C53.8,54.2,53.9,54.1,54.1,54.1z"/>
			<path class="st0" d="M56.1,54.7c-0.1,0-0.2-0.1-0.2-0.2c0-0.1,0.1-0.2,0.2-0.2c0.1,0,0.2,0.1,0.2,0.2
				C56.3,54.6,56.2,54.7,56.1,54.7z"/>
			<circle class="st0" cx="58.1" cy="54.6" r="0.2"/>
			<path class="st0" d="M58.1,54.4l2,0.2c0.1,0,0.2,0.1,0.2,0.2c0,0.1-0.1,0.2-0.2,0.2l0,0l-2-0.2l0,0c-0.1,0-0.2-0.1-0.2-0.2
				C57.9,54.5,58,54.4,58.1,54.4z"/>
			<path class="st0" d="M60.1,55.1c-0.1,0-0.2-0.1-0.2-0.2c0-0.1,0.1-0.2,0.2-0.2c0.1,0,0.2,0.1,0.2,0.2
				C60.3,55,60.2,55.1,60.1,55.1z"/>
			<path class="st0" d="M62.1,55.4c-0.1,0-0.2-0.1-0.2-0.2c0-0.1,0.1-0.2,0.2-0.2c0.1,0,0.2,0.1,0.2,0.2
				C62.3,55.3,62.2,55.4,62.1,55.4z"/>
			<path class="st0" d="M62.1,54.9l2,0.3c0.1,0,0.2,0.1,0.2,0.2c0,0.1-0.1,0.2-0.2,0.2l0,0l-2-0.3l0,0c-0.1,0-0.2-0.1-0.2-0.2
				C61.9,55,62,54.9,62.1,54.9z"/>
			<path class="st0" d="M64.1,55.7c-0.1,0-0.2-0.1-0.2-0.2c0-0.1,0.1-0.2,0.2-0.2c0.1,0,0.2,0.1,0.2,0.2
				C64.3,55.6,64.2,55.7,64.1,55.7z"/>
			<path class="st0" d="M66.1,56c-0.1,0-0.2-0.1-0.2-0.2c0-0.1,0.1-0.2,0.2-0.2s0.2,0.1,0.2,0.2C66.3,55.9,66.2,56,66.1,56z"/>
			<path class="st0" d="M66.2,55.6c0.7,0.1,1.3,0.3,2,0.4c0.1,0,0.2,0.1,0.1,0.2c0,0.1-0.1,0.2-0.2,0.1c-0.7-0.1-1.3-0.3-2-0.4
				c-0.1,0-0.2-0.1-0.2-0.2C65.9,55.7,66,55.6,66.2,55.6L66.2,55.6z"/>
			<path class="st0" d="M68.1,56.4c-0.1,0-0.2-0.1-0.2-0.2c0-0.1,0.1-0.2,0.2-0.2s0.2,0.1,0.2,0.2C68.3,56.4,68.2,56.4,68.1,56.4z"
				/>
			<path class="st0" d="M70.1,56.8c-0.1,0-0.1-0.1-0.1-0.1c0-0.1,0.1-0.1,0.1-0.1s0.1,0.1,0.1,0.1C70.2,56.8,70.2,56.8,70.1,56.8z"
				/>
			<path class="st0" d="M70.1,56.6c0.7,0.2,1.3,0.4,1.9,0.6c0,0,0.1,0.1,0.1,0.1c0,0-0.1,0.1-0.1,0.1l0,0c-0.7-0.2-1.3-0.3-2-0.5
				c-0.1,0-0.1-0.1-0.1-0.2C69.9,56.6,70,56.5,70.1,56.6C70.1,56.6,70.1,56.6,70.1,56.6z"/>
			<path class="st0" d="M72,57.3C72,57.3,71.9,57.3,72,57.3c-0.1-0.1,0-0.2,0-0.2C72.1,57.2,72.1,57.2,72,57.3
				C72.1,57.3,72.1,57.3,72,57.3z"/>
			<path class="st0" d="M73.9,58.1l0.8,0.7L73.9,58.1L73.9,58.1C73.8,58.1,73.8,58.1,73.9,58.1C73.9,58.1,73.9,58.1,73.9,58.1
				C73.9,58.1,73.9,58.1,73.9,58.1z"/>
		</g>
	</g>
	<g>
		<g>
			<path class="st0" d="M14.9,56.2l1,0c0,0,0,0,0,0c0,0,0,0,0,0c0,0,0,0,0,0L14.9,56.2z"/>
			<path class="st0" d="M16,56.2C15.9,56.2,15.9,56.2,16,56.2C15.9,56.2,15.9,56.2,16,56.2C16,56.2,16,56.2,16,56.2
				C16,56.2,16,56.2,16,56.2z"/>
			<path class="st0" d="M18,55.9l2-0.4l0,0c0.1,0,0.2,0,0.2,0.1c0,0.1,0,0.2-0.1,0.2c0,0,0,0,0,0l-2,0.3
				C17.9,56.1,17.9,56.1,18,55.9C17.9,56,17.9,56,18,55.9L18,55.9z"/>
			<circle class="st0" cx="20" cy="55.7" r="0.1"/>
			<circle class="st0" cx="22" cy="55.3" r="0.2"/>
			<path class="st0" d="M21.9,55.1c0.6-0.2,1.3-0.3,2-0.5c0.1,0,0.2,0,0.3,0.1s0,0.2-0.2,0.3c-0.7,0.2-1.3,0.3-2,0.5
				c-0.1,0-0.2,0-0.2-0.2C21.7,55.2,21.8,55.1,21.9,55.1L21.9,55.1z"/>
			<path class="st0" d="M23.9,55c-0.1,0-0.2-0.1-0.2-0.2s0.1-0.2,0.2-0.2c0.1,0,0.2,0.1,0.2,0.2S24,55,23.9,55z"/>
			<path class="st0" d="M25.9,54.4c-0.1,0-0.2-0.1-0.2-0.2c0-0.1,0.1-0.2,0.2-0.2s0.2,0.1,0.2,0.2C26.1,54.4,26,54.4,25.9,54.4z"/>
			<path class="st0" d="M25.8,54l2-0.5c0.1,0,0.2,0,0.3,0.2s0,0.2-0.2,0.3l-2,0.5c-0.1,0-0.2,0-0.3-0.1C25.7,54.2,25.7,54.1,25.8,54
				L25.8,54z"/>
			<circle class="st0" cx="27.9" cy="53.7" r="0.2"/>
			<circle class="st0" cx="29.8" cy="53.3" r="0.2"/>
			<path class="st0" d="M29.8,53.1l2-0.4c0.1,0,0.2,0,0.2,0.2c0,0.1,0,0.2-0.2,0.2l0,0l-2,0.4l0,0c-0.1,0-0.2,0-0.2-0.2
				S29.7,53.1,29.8,53.1z"/>
			<circle class="st0" cx="31.8" cy="52.9" r="0.2"/>
			<path class="st0" d="M33.8,52.7c-0.1,0-0.2-0.1-0.2-0.2c0-0.1,0.1-0.2,0.2-0.2s0.2,0.1,0.2,0.2C34,52.6,33.9,52.7,33.8,52.7z"/>
			<path class="st0" d="M33.8,52.3l2-0.3c0.1,0,0.2,0.1,0.2,0.2c0,0.1-0.1,0.2-0.2,0.2l0,0l-2,0.3l0,0c-0.1,0-0.2-0.1-0.2-0.2
				C33.6,52.4,33.7,52.3,33.8,52.3z"/>
			<path class="st0" d="M35.8,52.4c-0.1,0-0.2-0.1-0.2-0.2c0-0.1,0.1-0.2,0.2-0.2c0.1,0,0.2,0.1,0.2,0.2
				C36,52.3,35.9,52.4,35.8,52.4z"/>
			<path class="st0" d="M37.8,52.1c-0.1,0-0.2-0.1-0.2-0.2c0-0.1,0.1-0.2,0.2-0.2c0.1,0,0.2,0.1,0.2,0.2C38,52,38,52.1,37.8,52.1z"
				/>
			<path class="st0" d="M37.8,51.7l2-0.2c0.1,0,0.2,0.1,0.2,0.2c0,0.1-0.1,0.2-0.2,0.2l0,0l-2,0.2l0,0c-0.1,0-0.2-0.1-0.2-0.2
				C37.6,51.8,37.7,51.7,37.8,51.7z"/>
			<path class="st0" d="M39.9,51.9c-0.1,0-0.2-0.1-0.2-0.2c0-0.1,0.1-0.2,0.2-0.2c0.1,0,0.2,0.1,0.2,0.2
				C40.1,51.8,40,51.9,39.9,51.9z"/>
			<path class="st0" d="M41.9,51.7c-0.1,0-0.2-0.1-0.2-0.2c0-0.1,0.1-0.2,0.2-0.2s0.2,0.1,0.2,0.2C42.1,51.6,42,51.7,41.9,51.7z"/>
			<path class="st0" d="M41.9,51.3l2-0.1c0.1,0,0.2,0.1,0.2,0.2c0,0.1-0.1,0.2-0.2,0.2l0,0l-2,0.1l0,0c-0.1,0-0.2-0.1-0.2-0.2
				S41.7,51.3,41.9,51.3z"/>
			<path class="st0" d="M43.9,51.6c-0.1,0-0.2-0.1-0.2-0.2c0-0.1,0.1-0.2,0.2-0.2c0.1,0,0.2,0.1,0.2,0.2
				C44.1,51.5,44,51.6,43.9,51.6z"/>
			<circle class="st0" cx="45.9" cy="51.3" r="0.2"/>
			<path class="st0" d="M45.9,51.1l2,0c0.1,0,0.2,0.1,0.2,0.2c0,0.1-0.1,0.2-0.2,0.2l0,0l-2,0l0,0c-0.1,0-0.2-0.1-0.2-0.2
				C45.7,51.2,45.8,51.1,45.9,51.1z"/>
			<path class="st0" d="M48,51.4c-0.1,0-0.2-0.1-0.2-0.2c0-0.1,0.1-0.2,0.2-0.2s0.2,0.1,0.2,0.2C48.2,51.4,48.1,51.4,48,51.4z"/>
			<path class="st0" d="M50,51.4c-0.1,0-0.2-0.1-0.2-0.2S49.9,51,50,51c0.1,0,0.2,0.1,0.2,0.2S50.1,51.4,50,51.4z"/>
			<path class="st0" d="M50,51l2,0c0.1,0,0.2,0.1,0.2,0.2c0,0.1-0.1,0.2-0.2,0.2l0,0l-2,0l0,0c-0.1,0-0.2-0.1-0.2-0.2
				C49.8,51.1,49.9,51,50,51z"/>
			<circle class="st0" cx="52" cy="51.3" r="0.2"/>
			<path class="st0" d="M54,51.6c-0.1,0-0.2-0.1-0.2-0.2c0-0.1,0.1-0.2,0.2-0.2c0.1,0,0.2,0.1,0.2,0.2C54.3,51.5,54.2,51.6,54,51.6z
				"/>
			<path class="st0" d="M54.1,51.2l2,0.1c0.1,0,0.2,0.1,0.2,0.2c0,0.1-0.1,0.2-0.2,0.2l0,0l-2-0.1l0,0c-0.1,0-0.2-0.1-0.2-0.2
				C53.8,51.2,53.9,51.2,54.1,51.2z"/>
			<circle class="st0" cx="56.1" cy="51.5" r="0.2"/>
			<path class="st0" d="M58.1,51.9c-0.1,0-0.2-0.1-0.2-0.2c0-0.1,0.1-0.2,0.2-0.2s0.2,0.1,0.2,0.2C58.3,51.8,58.2,51.9,58.1,51.9z"
				/>
			<path class="st0" d="M58.1,51.5l2,0.2c0.1,0,0.2,0.1,0.2,0.2c0,0.1-0.1,0.2-0.2,0.2l0,0l-2-0.2l0,0c-0.1,0-0.2-0.1-0.2-0.2
				C57.9,51.6,58,51.5,58.1,51.5z"/>
			<path class="st0" d="M60.1,52.1c-0.1,0-0.2-0.1-0.2-0.2c0-0.1,0.1-0.2,0.2-0.2c0.1,0,0.2,0.1,0.2,0.2
				C60.3,52,60.2,52.1,60.1,52.1z"/>
			<path class="st0" d="M62.1,52.4c-0.1,0-0.2-0.1-0.2-0.2c0-0.1,0.1-0.2,0.2-0.2c0.1,0,0.2,0.1,0.2,0.2
				C62.3,52.3,62.2,52.4,62.1,52.4z"/>
			<path class="st0" d="M62.1,52l2,0.3c0.1,0,0.2,0.1,0.2,0.2c0,0.1-0.1,0.2-0.2,0.2l0,0l-2-0.3l0,0c-0.1,0-0.2-0.1-0.2-0.2
				C61.9,52.1,62,52,62.1,52z"/>
			<circle class="st0" cx="64.1" cy="52.5" r="0.2"/>
			<path class="st0" d="M66.1,53.1c-0.1,0-0.2-0.1-0.2-0.2c0-0.1,0.1-0.2,0.2-0.2s0.2,0.1,0.2,0.2C66.3,53,66.2,53.1,66.1,53.1z"/>
			<path class="st0" d="M66.2,52.7c0.7,0.1,1.3,0.3,2,0.4c0.1,0,0.2,0.1,0.1,0.2c0,0.1-0.1,0.2-0.2,0.1c-0.7-0.1-1.3-0.3-2-0.4
				c-0.1,0-0.2-0.1-0.2-0.2C65.9,52.7,66,52.7,66.2,52.7L66.2,52.7z"/>
			<path class="st0" d="M68.1,53.5c-0.1,0-0.2-0.1-0.2-0.2c0-0.1,0.1-0.2,0.2-0.2s0.2,0.1,0.2,0.2C68.3,53.4,68.2,53.5,68.1,53.5z"
				/>
			<path class="st0" d="M70.1,53.9c-0.1,0-0.1-0.1-0.1-0.1c0-0.1,0.1-0.1,0.1-0.1s0.1,0.1,0.1,0.1C70.2,53.8,70.2,53.9,70.1,53.9z"
				/>
			<path class="st0" d="M70.1,53.6c0.7,0.2,1.3,0.4,1.9,0.6c0,0,0.1,0.1,0.1,0.1c0,0-0.1,0.1-0.1,0.1l0,0c-0.7-0.2-1.3-0.3-2-0.5
				c-0.1,0-0.1-0.1-0.1-0.2C69.9,53.7,70,53.6,70.1,53.6C70.1,53.6,70.1,53.6,70.1,53.6z"/>
			<path class="st0" d="M72,54.4C72,54.4,71.9,54.4,72,54.4c-0.1-0.1,0-0.2,0-0.2C72.1,54.2,72.1,54.3,72,54.4
				C72.1,54.4,72.1,54.4,72,54.4z"/>
			<path class="st0" d="M73.9,55.2l0.8,0.7L73.9,55.2L73.9,55.2C73.8,55.2,73.8,55.2,73.9,55.2C73.9,55.1,73.9,55.1,73.9,55.2
				C73.9,55.2,73.9,55.2,73.9,55.2z"/>
		</g>
	</g>
	<g>
		<path class="st0" d="M72.6,72c-0.3,4.2-2.1,8.2-2.9,12.1c-0.4,2-0.5,4-0.1,5.9c0.4,2,1.1,3.9,1.4,6.1c0.3,2.2,0,4.4-0.2,6.4
			c-0.2,2.1-0.3,4,0,6c0.6,4,2.4,7.8,4,11.7c-2.2-3.5-4.4-7.2-5.3-11.4c-0.5-2.1-0.5-4.3-0.3-6.4c0.2-2.1,0.4-4.1,0.1-6.1
			c-0.2-2-0.9-3.9-1.3-6.1c-0.3-2.2-0.2-4.4,0.4-6.5C69.5,79.6,71.6,76,72.6,72z"/>
	</g>
	<g>
		<path class="st0" d="M77.2,117.4c0.3-1.7,0.6-3.3,0.8-4.9c0.1-1.6,0.2-3.2,0-4.8c-0.2-1.6-0.6-3.1-1.2-4.7
			c-0.6-1.6-1.1-3.2-1.5-4.9c1,1.4,1.9,2.8,2.7,4.3c0.4,0.7,0.8,1.5,1.1,2.4c0.3,0.8,0.5,1.7,0.6,2.6C80,111,79.1,114.6,77.2,117.4z
			"/>
	</g>
	<g>
		<path class="st2" d="M93.5,100.9c0.5,1.5,0.5,3,0.5,4.6c0,5.4-0.1,10.8-0.1,16.2c0,0.6,0,1.2,0.3,1.7c0.5,0.7,1.4,0.8,2.2,0.9
			c3.7,0.2,7.5,0.3,11.2,0.2c0.2,0,0.5,0,0.7-0.1c0.2-0.2,0.4-0.4,0.4-0.7c0.3-1.1,0.4-2.3,0.4-3.5c0.2-6.3-0.2-12.6-1.2-18.9"/>
	</g>
	<g>
		<g>
			<path class="st0" d="M101.2,98.3c-1.5,0.1-3,0.3-4.5,0.6c-0.7,0.1-1.4,0.3-2,0.7c-0.3,0.2-0.5,0.4-0.5,0.6
				c-0.1,0.2,0,0.3,0.1,0.5c0.6,0.9,2,1.3,3.5,1.5c1.4,0.3,2.9,0.4,4.3,0.4c1.5,0,2.9-0.1,4.3-0.4c0.7-0.1,1.4-0.3,2-0.5
				c0.3-0.1,0.5-0.3,0.7-0.5c0.1-0.2,0.2-0.2,0.2-0.4c0-0.2-0.2-0.4-0.4-0.6c-0.2-0.2-0.5-0.4-0.8-0.6c-0.6-0.4-1.3-0.6-2-0.8
				c-1.4-0.4-2.9-0.5-4.4-0.7c1.5-0.2,3-0.3,4.6-0.1c0.8,0.1,1.6,0.3,2.3,0.6c0.7,0.3,1.6,0.8,2,1.8c0.2,0.5,0,1.3-0.3,1.7
				c-0.3,0.4-0.7,0.7-1.1,0.9c-0.8,0.4-1.6,0.6-2.3,0.8c-1.5,0.4-3.1,0.5-4.7,0.5c-1.6,0-3.1-0.2-4.7-0.5c-0.8-0.2-1.5-0.4-2.3-0.7
				c-0.8-0.3-1.6-0.9-2-1.8c-0.1-0.2-0.2-0.5-0.2-0.8c0-0.3,0.1-0.6,0.2-0.9c0.3-0.5,0.7-0.8,1.1-1c0.8-0.4,1.6-0.5,2.4-0.5
				C98.2,98,99.7,98,101.2,98.3z"/>
		</g>
		<g>
			<path class="st0" d="M93.3,102.1c0.3,1.8,0.5,3.6,0.7,5.4c0.2,1.8,0.3,3.6,0.5,5.4l0.2,2.7l0.1,1.4c0,0.5-0.1,1-0.1,1.5
				c-0.2,0.9-0.5,1.8-0.7,2.7c-0.1,0.4-0.2,0.9-0.2,1.3c0,0.4,0,0.9,0.4,1.2c-0.4-0.2-0.7-0.7-0.8-1.2c-0.1-0.5-0.1-1-0.1-1.4
				c0-0.9,0.1-1.9,0.2-2.7c0-0.4,0-0.9,0-1.2l-0.2-1.3c-0.1-0.9-0.2-1.8-0.3-2.7c-0.1-1.8-0.2-3.6-0.1-5.5
				C92.8,105.7,93,103.9,93.3,102.1z"/>
		</g>
		<g>
			<path class="st0" d="M94.2,123.7c3,0.5,5.9,0.5,8.9,0.2c1.5-0.2,2.9-0.4,4.4-0.6l1.1-0.2c0.2,0,0.4-0.1,0.5-0.1
				c0.1,0,0.1-0.1,0.1,0c-0.1,0.1-0.1,0.3-0.1,0.1l-0.1-0.6c-0.1-0.4-0.1-0.8-0.1-1.2c0-1.6,0.3-3.1,0.5-4.6
				c0.2-1.4,0.3-2.9,0.3-4.4c0.1-3-0.1-6,0.2-9c0.4,3,0.9,5.9,1.1,9c0.1,1.5,0.1,3.1-0.1,4.6c-0.2,1.5-0.4,3-0.4,4.4
				c0,0.3,0,0.7,0.1,1l0.1,0.5c0,0.1,0,0.3,0,0.5c0,0.2-0.1,0.5-0.3,0.7c-0.3,0.4-0.7,0.5-0.9,0.5c-0.3,0.1-0.4,0.1-0.6,0.1
				c-0.4,0.1-0.7,0.1-1.1,0.1c-1.5,0.2-3,0.3-4.5,0.3C100.1,125.2,96.9,124.9,94.2,123.7z"/>
		</g>
		<g>
			<path class="st0" d="M93.3,121.5c0.3,0.9,0.7,1.8,1.4,2.1c0.7,0.3,1.6,0.3,2.5,0.3c1.9-0.1,3.7-0.1,5.6-0.1c0.9,0,1.9,0,2.8,0.1
				c1,0,1.9,0.1,2.8,0.1c0.4,0,0.9,0,1.2-0.1c0.2-0.1,0.3-0.1,0.4-0.2c0.1-0.1,0.2-0.3,0.3-0.5c0.3-0.8,0.5-1.7,0.4-2.6
				c0.4,0.9,0.6,1.9,0.4,2.9c-0.1,0.3-0.2,0.5-0.3,0.8c-0.2,0.3-0.5,0.5-0.7,0.6c-0.5,0.2-1,0.3-1.5,0.4c-1,0.1-1.9,0.1-2.8,0.1
				c-0.9,0.1-1.9,0.1-2.8,0.1c-1.9,0-3.8,0-5.6-0.2c-0.9-0.1-2-0.2-2.9-0.9c-0.4-0.3-0.8-0.8-0.9-1.3
				C93.3,122.5,93.3,122,93.3,121.5z"/>
		</g>
		<g>
			<path class="st0" d="M93,99.9c-0.4,1,0,1.9,0.6,2.6c0.1,0.2,0.3,0.4,0.4,0.4c0.2,0.1,0.4,0.1,0.6,0.2c0.4,0.1,0.9,0.2,1.4,0.3
				c1,0.2,1.9,0.3,2.9,0.5c1,0.1,1.9,0.2,2.9,0.2c2,0,3.9,0,5.8-0.3c0.5-0.1,0.9-0.2,1.4-0.3l0.7-0.2c0.2-0.1,0.3-0.1,0.4-0.2
				c0.3-0.3,0.5-0.7,0.7-1.2c0.1-0.4,0.3-1-0.1-1.3c0.2,0.1,0.5,0.3,0.5,0.6c0.1,0.3,0.1,0.5,0.1,0.8c0,0.5-0.2,1.1-0.5,1.6
				c-0.2,0.3-0.5,0.5-0.7,0.6l-0.7,0.3c-0.5,0.2-1,0.4-1.5,0.5c-2,0.6-4.1,0.7-6.1,0.7c-2.2,0-4.1-0.5-6.1-1.1
				c-0.5-0.2-1-0.3-1.5-0.6c-0.2-0.1-0.5-0.2-0.8-0.4c-0.3-0.3-0.4-0.5-0.6-0.7c-0.2-0.5-0.4-1-0.4-1.6
				C92.5,100.8,92.7,100.2,93,99.9z"/>
		</g>
		<g>
			<path class="st0" d="M106.3,100c-0.2-0.1-0.4-0.2-0.5-0.3c0,0-0.1,0-0.1,0c0,0,0,0,0,0c0,0,0,0-0.1,0l-0.3,0c-0.4,0-0.7,0-1,0.1
				c-0.3,0.1-0.6,0.2-0.9,0.3c-0.1,0.1-0.3,0.1-0.4,0.2c0,0-0.1,0.1-0.1,0c0,0,0.1-0.1,0.1-0.3c0-0.2-0.1-0.3-0.1-0.4c0,0,0,0,0,0
				c0,0,0.1,0.1,0.2,0.1c0.3,0.1,0.6,0.1,1,0.2c0.4,0,0.7,0.1,1.1,0.1c0.2,0,0.3,0,0.5,0c0.1,0,0.2,0,0.2,0c0.1,0,0.1-0.1,0.1-0.2
				c0.1,0,0.2,0.2,0.2,0.3c-0.1,0.1-0.1,0.2-0.2,0.3c-0.2,0.2-0.4,0.3-0.6,0.4c-0.4,0.2-0.8,0.3-1.2,0.4c-0.4,0.1-0.8,0.1-1.3,0.1
				c-0.2,0-0.5-0.1-0.8-0.3c-0.2-0.1-0.3-0.2-0.4-0.4c-0.1-0.2-0.3-0.5-0.3-0.9c0-0.4,0.2-0.6,0.4-0.8c0.2-0.1,0.3-0.2,0.4-0.3
				c0.2-0.1,0.5-0.2,0.7-0.3c0.4-0.1,0.9-0.2,1.4-0.1c0.5,0,0.9,0.2,1.2,0.4l0.3,0.1c0.1,0,0.1,0.1,0.2,0.1c0,0,0.1,0.1,0.1,0.1
				c0,0.1,0,0.1,0,0.1C106.2,99.6,106.3,99.8,106.3,100z"/>
		</g>
		<path class="st0" d="M93.3,108.3c1.2,1.2,2.9,1.9,4.6,2.1c1.7,0.2,3.4,0,5.1-0.2c2.4-0.4,4.8-0.9,7.2-1.6c0,2,0,4,0,6
			c0,0.4,0,0.8-0.2,1.1c-0.2,0.3-0.5,0.5-0.8,0.7c-2.3,1.2-5,1.5-7.5,1.2c-2.6-0.2-5.1-0.9-7.5-1.6"/>
	</g>
	<g>
		<path class="st2" d="M120.4,108c0.1,3.6,0.6,7.3,0.2,10.9c-0.2,1.7-0.6,3.4-0.3,5c0,0.2,0.1,0.3,0,0.5c-0.1,0.2-0.4,0.3-0.7,0.3
			c-4,0.6-8.3,1.1-12.2-0.1l0,0c-1.2-0.9,0.1-3.6,0-5.4c0-0.6-0.1-1.1-0.1-1.7c-0.3-3.5-0.5-7-0.4-10.5"/>
		<path class="st0" d="M120.4,108c0.3,2.5,0.7,4.9,0.9,7.4c0.1,1.2,0.1,2.5,0,3.8c-0.1,1.3-0.3,2.5-0.3,3.6c0,0.3,0,0.6,0.1,0.8
			l0.1,0.4c0,0.1,0,0.3,0,0.5c0,0.2-0.1,0.4-0.3,0.6c-0.3,0.3-0.6,0.4-0.8,0.5c-0.2,0.1-0.4,0.1-0.5,0.1l-0.9,0.2
			c-1.2,0.2-2.5,0.3-3.7,0.4c-2.5,0.2-5.1,0-7.6-0.8l-0.1,0l-0.1-0.1c-0.6-0.4-0.8-1.1-0.8-1.5c0-0.5,0-0.9,0-1.3
			c0.1-0.8,0.3-1.5,0.4-2.2c0.1-0.3,0.1-0.7,0.1-1l-0.1-1.1c0-0.7-0.1-1.5-0.1-2.2c0-1.5-0.1-3,0-4.5c0-1.5,0.1-3,0.3-4.5l0.4,4.5
			c0.2,1.5,0.3,3,0.5,4.4l0.3,2.2l0.1,1.1c0,0.4,0,0.8,0,1.2c-0.1,0.8-0.2,1.5-0.3,2.2c0,0.3,0,0.7,0,0.9c0,0.3,0.1,0.4,0.2,0.4
			l-0.2-0.1c2.2,0.7,4.6,0.8,7,0.6c1.2-0.1,2.4-0.2,3.6-0.4l0.9-0.1l0.4-0.1c0.1,0,0.1,0,0,0.1c-0.1,0.1-0.1,0.3-0.1,0.2l-0.1-0.5
			c0-0.3,0-0.7,0-1c0-1.3,0.3-2.6,0.5-3.7c0.2-1.2,0.3-2.4,0.3-3.6C120.4,113,120.2,110.5,120.4,108z"/>
	</g>
	<g>
		<path class="st0" d="M106.7,123.9c0.3,0.8,0.6,1.4,1.2,1.6c0.6,0.2,1.3,0.2,2,0.2c1.5-0.1,3-0.1,4.6-0.1c0.8,0,1.5,0,2.3,0.1
			c0.8,0,1.6,0.1,2.3,0.1c0.4,0,0.7,0,1-0.1c0.1,0,0.2-0.1,0.3-0.1c0.1-0.1,0.2-0.2,0.3-0.3c0.3-0.6,0.4-1.4,0.4-2.1
			c0.4,0.7,0.5,1.5,0.4,2.4c0,0.2-0.1,0.4-0.3,0.7c-0.1,0.2-0.4,0.4-0.6,0.5c-0.4,0.2-0.9,0.3-1.3,0.3c-0.8,0.1-1.6,0.1-2.3,0.1
			c-0.8,0.1-1.5,0.1-2.3,0.1c-1.5,0-3.1,0-4.6-0.2c-0.8-0.1-1.7-0.2-2.4-0.8c-0.4-0.3-0.6-0.7-0.7-1.1
			C106.6,124.7,106.6,124.3,106.7,123.9z"/>
	</g>
	<g>
		<path class="st0" d="M106.6,105.2c-0.3,0.8,0.1,1.5,0.5,2.1c0.1,0.1,0.3,0.3,0.3,0.3c0.1,0.1,0.3,0.1,0.5,0.2
			c0.4,0.1,0.8,0.2,1.1,0.2c0.8,0.1,1.6,0.3,2.4,0.3c0.8,0.1,1.5,0.2,2.3,0.2c1.6,0,3.2,0,4.8-0.2c0.4-0.1,0.8-0.1,1.1-0.2l0.6-0.1
			c0.2,0,0.2-0.1,0.3-0.2c0.2-0.2,0.4-0.6,0.6-0.9c0.1-0.3,0.3-0.8-0.1-1.1c0.2,0,0.4,0.2,0.5,0.5c0.1,0.2,0.1,0.5,0.1,0.7
			c0,0.4-0.1,0.9-0.4,1.3c-0.1,0.2-0.4,0.5-0.6,0.6l-0.6,0.3c-0.4,0.2-0.8,0.3-1.2,0.5c-1.7,0.5-3.4,0.6-5,0.6c-1.8,0-3.4-0.4-5-0.9
			c-0.4-0.1-0.8-0.3-1.2-0.5c-0.2-0.1-0.4-0.2-0.6-0.4c-0.3-0.3-0.3-0.4-0.5-0.6c-0.2-0.4-0.3-0.9-0.3-1.3
			C106.1,105.9,106.3,105.5,106.6,105.2z"/>
	</g>
	<path class="st0" d="M106.8,112.1c1,1,2.4,1.5,3.7,1.7s2.8,0,4.2-0.2c2-0.3,4-0.7,5.9-1.3c0,1.6,0,3.3,0,4.9c0,0.3,0,0.6-0.2,0.9
		c-0.2,0.3-0.4,0.4-0.7,0.6c-1.9,1-4.1,1.2-6.2,1c-2.1-0.2-4.1-0.7-6.2-1.3"/>
	<g>
		<g>
			<path class="st2" d="M102.6,100.3c0.4,0,0.4-0.6,0-0.6C102.2,99.7,102.2,100.3,102.6,100.3L102.6,100.3z"/>
		</g>
	</g>
	<g>
		<path class="st2" d="M113.3,103.9c-1.3-0.1-2.6,0-3.9,0.2c-0.7,0.1-1.4,0.2-1.9,0.7c-0.2,0.2-0.4,0.5-0.5,0.8
			c0,0.3,0.1,0.5,0.2,0.8c0.5,0.7,1.4,1,2.2,1.3c2.9,0.8,6,0.8,8.9,0c0.6-0.2,1.2-0.3,1.7-0.7c0.2-0.1,0.3-0.3,0.4-0.6
			c0.2-0.6-0.3-1.2-0.8-1.5c-1.7-1.1-3.9-1.1-5.9-1.1"/>
		<path class="st0" d="M113.3,103.9c-1.2,0.1-2.5,0.3-3.7,0.6c-0.6,0.1-1.2,0.3-1.6,0.6c-0.2,0.1-0.3,0.3-0.4,0.4
			c0,0.1,0,0.2,0.1,0.3c0.4,0.7,1.6,1,2.8,1.2c1.2,0.2,2.3,0.3,3.5,0.3c1.2,0,2.4-0.1,3.5-0.3c0.6-0.1,1.2-0.2,1.6-0.4
			c0.2-0.1,0.4-0.2,0.5-0.3c0.1-0.1,0.1-0.1,0.1-0.2c0-0.1-0.1-0.3-0.3-0.5c-0.2-0.2-0.4-0.3-0.6-0.5c-0.5-0.3-1-0.5-1.6-0.7
			c-1.1-0.3-2.4-0.4-3.6-0.6c1.2-0.2,2.5-0.3,3.8-0.2c0.6,0.1,1.3,0.2,1.9,0.5c0.6,0.3,1.3,0.6,1.7,1.6c0.2,0.5,0,1.2-0.3,1.5
			c-0.3,0.4-0.6,0.6-1,0.8c-0.7,0.4-1.3,0.5-1.9,0.7c-1.3,0.3-2.6,0.4-3.9,0.5c-1.3,0-2.6-0.1-3.9-0.4c-0.6-0.2-1.2-0.3-1.9-0.6
			c-0.6-0.3-1.3-0.8-1.7-1.5c-0.1-0.2-0.2-0.4-0.2-0.7c0-0.3,0.1-0.5,0.2-0.8c0.2-0.4,0.6-0.7,0.9-0.8c0.7-0.3,1.4-0.4,2-0.4
			C110.8,103.6,112.1,103.6,113.3,103.9z"/>
	</g>
	<g>
		<path class="st0" d="M117.5,105.3c-0.2,0-0.4-0.1-0.6-0.2c0,0-0.1,0-0.1,0c0,0,0,0.1,0.1,0.1c0,0,0,0,0,0.1
			c-0.1,0-0.1,0.1-0.2,0.1c-0.4,0.1-0.6,0.2-0.8,0.3c-0.2,0.1-0.3,0.2-0.5,0.3c-0.1,0.1-0.2,0.1-0.2,0.1c0,0,0,0,0.1-0.1
			c0.1-0.1,0.2-0.2,0.3-0.6c0-0.4-0.2-0.6-0.2-0.7c-0.1-0.1-0.1-0.1-0.1-0.1c-0.1,0-0.1,0,0,0c0.1,0.1,0.4,0.1,0.7,0.2
			c0.3,0.1,0.5,0.2,0.8,0.3c0.1,0.1,0.3,0.1,0.4,0.1c0.1,0,0.1,0,0.2,0.1c0,0,0.1,0,0.1-0.1C117.4,105.3,117.5,105.3,117.5,105.3
			c0.1,0.1,0.1,0.2,0.1,0.3c0,0.1-0.1,0.2-0.2,0.3c-0.1,0.2-0.3,0.3-0.5,0.5c-0.3,0.2-0.7,0.4-1,0.5c-0.4,0.1-0.7,0.2-1.2,0.1
			c-0.2,0-0.5-0.1-0.9-0.3c-0.2-0.1-0.3-0.2-0.5-0.4c-0.2-0.2-0.4-0.6-0.4-1.1c0.1-0.5,0.3-0.8,0.5-1c0.2-0.2,0.3-0.2,0.5-0.3
			c0.3-0.1,0.5-0.2,0.7-0.2c0.4-0.1,0.8-0.1,1.3,0c0.4,0.1,0.8,0.3,1.1,0.5c0.1,0.1,0.1,0.1,0.2,0.2c0,0,0.1,0.1,0.2,0.1
			c0,0,0.1,0.1,0.1,0.2c0,0.1,0,0.1,0,0.1C117.5,104.9,117.5,105.1,117.5,105.3z"/>
	</g>
	<g>
		<g>
			<path class="st2" d="M114.4,105.5c0.4,0,0.4-0.6,0-0.6C114,104.8,114,105.5,114.4,105.5L114.4,105.5z"/>
		</g>
	</g>
</g>
</svg>
