<?xml version="1.0" encoding="utf-8"?>
<!-- Generator: Adobe Illustrator 23.0.1, SVG Export Plug-In . SVG Version: 6.00 Build 0)  -->
<svg version="1.1" id="Layer_1" xmlns="http://www.w3.org/2000/svg" xmlns:xlink="http://www.w3.org/1999/xlink" x="0px" y="0px"
	 viewBox="0 0 109.6 59.7" style="enable-background:new 0 0 109.6 59.7;" xml:space="preserve">
<style type="text/css">
	.st0{fill:#6A82A0;}
	.st1{fill:#4D667C;}
	.st2{fill:#FFFFFF;}
	.st3{fill:none;}
	.st4{fill:#E0ECFC;}
</style>
<g>
	<path class="st0" d="M36,1.7c-3.8,2.1-6.7,5.3-9.1,8.8c-2.4,3.5-4.4,7.3-6.5,11.1c-2.2,3.8-4.7,7.4-7.5,10.8
		c-2.8,3.4-5.9,6.7-10.1,8.9l0.6-2.1c0.7,1,1.6,2.1,2.6,3.1c0.9,1,1.9,2,3,3c2.1,1.9,4.3,3.6,6.7,5.2c2.3,1.6,4.8,2.9,7.4,4.2
		c1.3,0.6,2.6,1.3,3.9,1.9c0.6,0.3,1.3,0.7,1.9,1c0.6,0.3,1.2,0.8,2,0.8c-0.7,0.1-1.4-0.3-2.1-0.5l-2-0.7l-4.1-1.4
		c-2.7-1-5.5-2.1-8.1-3.5c-2.5-1.5-5-3.1-7.3-5c-1.1-1-2.2-1.9-3.3-3c-1.1-1.1-2-2.2-3-3.5L0,39.4l1.5-0.8c1.7-0.9,3.3-2.2,4.8-3.6
		c1.5-1.4,3-2.9,4.3-4.6c2.7-3.2,5.2-6.7,7.5-10.3c2.3-3.6,4.6-7.4,7.4-10.7C28.4,6.1,31.9,3.1,36,1.7z"/>
</g>
<g>
	<path class="st0" d="M30.8,58.4c0.5-0.1,0.9-0.4,1.2-0.7c0.4-0.3,0.7-0.7,1-1c0.7-0.7,1.3-1.4,1.9-2.2c1.2-1.5,2.3-3.1,3.2-4.8
		c0.9-1.7,1.6-3.5,2.3-5.3c0.8-1.8,1.6-3.7,2.8-5.5c2.4-3.4,5.5-6.1,8.8-8.5c1.6-1.2,3.3-2.3,4.9-3.4c1.6-1.1,3.3-2.2,4.9-3.3
		l-0.1,2.3C59.5,24,57.3,22,55.1,20c-2.2-2-4.3-4-6.5-6c-2.1-2-4.3-4-6.4-6.1c-2.1-2.1-4.2-4.1-6.2-6.3c2.4,1.7,4.7,3.5,7.1,5.3
		c2.3,1.8,4.6,3.6,6.9,5.5c2.3,1.9,4.6,3.7,6.8,5.6c2.3,1.9,4.5,3.8,6.7,5.7l1.4,1.2L63.5,26c-3.2,2.4-6.6,4.5-9.7,6.7
		c-3.1,2.3-6.2,4.7-8.4,7.6c-2.3,2.9-3.5,6.7-5.8,10.1c-1.1,1.7-2.4,3.2-3.9,4.6c-0.7,0.7-1.5,1.3-2.3,1.9c-0.4,0.3-0.8,0.6-1.2,0.9
		C31.8,58.1,31.3,58.4,30.8,58.4z"/>
</g>
<g>
	<path class="st0" d="M39.7,0c6.6,3.9,12.8,8.5,18.9,13.2c6.1,4.7,12,9.6,17.9,14.6c2.9,2.5,5.8,5,8.7,7.6c2.8,2.6,5.7,5.1,8.5,7.8
		c2.8,2.6,5.5,5.3,8.2,8.1c2.7,2.8,5.4,5.5,7.8,8.5c-2.9-2.6-5.8-5-8.8-7.5L92,44.9c-2.9-2.4-5.8-5-8.8-7.4L74.5,30L57.1,15
		C51.3,10,45.6,4.9,39.7,0z"/>
</g>
</svg>
