<?xml version="1.0" encoding="utf-8"?>
<!-- Generator: Adobe Illustrator 23.0.1, SVG Export Plug-In . SVG Version: 6.00 Build 0)  -->
<svg version="1.1" id="Layer_1" xmlns="http://www.w3.org/2000/svg" xmlns:xlink="http://www.w3.org/1999/xlink" x="0px" y="0px"
	 viewBox="0 0 119.1 91.6" style="enable-background:new 0 0 119.1 91.6;" xml:space="preserve">
<style type="text/css">
	.st0{fill:#6A82A0;}
	.st1{fill:#4D667C;}
	.st2{fill:#FFFFFF;}
	.st3{fill:none;}
	.st4{fill:#E0ECFC;}
</style>
<g>
	<path class="st0" d="M109.9,91.6c-0.6-4.4-0.9-8.8-1.2-13.3c-0.1-2.2-0.2-4.4-0.3-6.6l-0.1-6.6c0-4.4,0.1-8.8,0.3-13.3
		c0.2-4.4,0.5-8.8,1.2-13.3c0.6,4.4,1,8.8,1.2,13.3c0.2,4.4,0.3,8.8,0.3,13.3l-0.1,6.6c-0.1,2.2-0.1,4.4-0.3,6.6
		C110.9,82.8,110.5,87.2,109.9,91.6z"/>
</g>
<g>
	<path class="st0" d="M9.6,91.4C8.9,86.7,8.6,82,8.4,77.3c-0.1-2.4-0.2-4.7-0.3-7.1l-0.1-7.1l0.1-7.1c0.1-2.4,0.1-4.7,0.2-7.1
		c0.2-4.7,0.5-9.4,1.2-14.1c0.6,4.7,1,9.4,1.2,14.1c0.1,2.4,0.2,4.7,0.2,7.1l0.1,7.1L11,70.3c-0.1,2.4-0.1,4.7-0.3,7.1
		C10.5,82,10.2,86.7,9.6,91.4z"/>
</g>
<g>
	<path class="st0" d="M2.6,15.7c0.9,2.5,1.7,5,2.1,7.6c0.5,2.6,0.7,5.2,0.7,7.9c0,2.6-0.2,5.3-0.4,7.9c-0.2,2.6-0.3,5.2-0.4,7.8
		l-1.3-0.9c11.6-5.3,24.9-6.8,37.4-4.1c6.3,1.5,12.1,4.2,17.9,6.2c2.9,1,5.8,1.8,8.8,2.1c3,0.3,5.9,0.1,8.8-0.5
		c6.2-1.4,12.6-1.9,18.9-2c3.1-0.1,6.3,0,9.4,0c1.5,0,3.1,0,4.6-0.2c1.5-0.1,3-0.3,4.2-0.9c0.6-0.3,1.1-0.6,1.3-1
		c0.3-0.5,0.5-1.2,0.7-1.9c0.3-1.4,0.5-3,0.7-4.5c0.3-3.1,0.4-6.2,0.6-9.3c0.2-3.1,0.3-6.3,0.5-9.4c0.3-3.1,0.6-6.3,1.4-9.3
		c-0.6,3.1-0.7,6.2-0.7,9.3c-0.1,3.1,0,6.2,0,9.4c0,3.1,0.1,6.3-0.1,9.4c-0.1,1.6-0.2,3.2-0.5,4.8c-0.2,0.8-0.4,1.6-0.8,2.5
		c-0.5,1-1.4,1.5-2.2,1.9c-1.6,0.8-3.3,1-4.9,1.2c-1.6,0.2-3.2,0.3-4.8,0.3l-9.4,0.2c-6.2,0.2-12.4,0.8-18.3,2.2
		c-3.2,0.7-6.5,1-9.8,0.6c-3.3-0.3-6.4-1.2-9.4-2.2c-6-2.1-11.6-4.8-17.6-6.2c-5.9-1.4-12.1-1.8-18.2-1.3c-6.1,0.5-12.1,2-17.8,4.3
		l-1.4,0.6l0.1-1.4c0.1-2.6,0.4-5.3,0.7-7.9c0.3-2.6,0.7-5.2,0.9-7.8c0.2-2.6,0.1-5.2-0.3-7.7C3.8,20.8,3.3,18.2,2.6,15.7z"/>
</g>
<g>
	<path class="st0" d="M118.6,11.1c0.2-1.4,0.1-2.9-0.7-3.9c-0.8-1-2-1.4-3.3-1.6c-1.3-0.2-2.7-0.1-4,0c-1.4,0.1-2.7,0.3-4.1,0.5
		c-2.7,0.5-5.5,1-8.2,1.6c-2.8,0.5-5.5,1.2-8.3,1.7c-2.8,0.5-5.6,1-8.5,1.3c-1.4,0.1-2.9,0.2-4.3,0.2c-1.5,0-2.9-0.1-4.4-0.3
		C67,9.9,61.5,8.3,56.1,6.6c-2.7-0.8-5.4-1.7-8.1-2.4c-2.7-0.7-5.4-1.3-8.2-1.7c-5.5-0.8-11.1-1.3-16.8-1.4c-2.8,0-5.6,0-8.4,0.3
		c-2.8,0.2-5.6,0.6-8.3,1.4C5.1,3.2,3.8,3.7,2.7,4.5C1.5,5.2,0.5,6.3,0.3,7.6c-0.2,1.4,0.5,2.7,0.9,4c0.5,1.3,0.9,2.7,1.3,4
		c-0.5-1.3-0.9-2.7-1.5-4l-0.8-2C0.1,9.1-0.1,8.3,0,7.6c0.1-1.5,1.2-2.7,2.4-3.5c1.2-0.8,2.5-1.4,3.9-1.8c2.7-0.9,5.5-1.4,8.4-1.7
		c2.8-0.3,5.7-0.5,8.5-0.5c5.7-0.1,11.3,0.2,17,0.9c2.8,0.4,5.6,0.8,8.4,1.5c2.8,0.7,5.5,1.5,8.2,2.2C62.1,6.3,67.5,7.8,73,8.3
		c0.7,0.1,1.4,0.1,2.1,0.1c0.7,0,1.3,0,2-0.1c1.4-0.1,2.7-0.2,4.1-0.5c2.7-0.4,5.5-0.9,8.2-1.5c5.5-1.1,11.1-2.2,16.8-2.7
		c2.9-0.2,5.8-0.3,8.7,0.4c0.7,0.2,1.5,0.5,2.1,0.9c0.7,0.4,1.3,1,1.6,1.7C119.4,8.2,119.1,9.8,118.6,11.1z"/>
</g>
</svg>
