<?xml version="1.0" encoding="utf-8"?>
<!-- Generator: Adobe Illustrator 23.0.1, SVG Export Plug-In . SVG Version: 6.00 Build 0)  -->
<svg version="1.1" id="Layer_1" xmlns="http://www.w3.org/2000/svg" xmlns:xlink="http://www.w3.org/1999/xlink" x="0px" y="0px"
	 viewBox="0 0 88.4 87" style="enable-background:new 0 0 88.4 87;" xml:space="preserve">
<style type="text/css">
	.st0{fill:#6A82A0;}
	.st1{fill:#4D667C;}
	.st2{fill:#FFFFFF;}
	.st3{fill:none;}
	.st4{fill:#E0ECFC;}
</style>
<path class="st0" d="M88.4,83.4c-1.1-5.2-4.5-9.7-8.8-12.9c-4.3-3.2-9.3-5.1-14.5-6.3c-1.7-0.4-3.5-0.8-5.1-1.6
	c-3-1.6-4.9-4.8-5.7-8.1c-0.4-1.6-0.6-3.2-0.1-4.8c1.2-3,5.1-4.5,5.9-7.6c0.3-1.4,0-3,0.8-4.2c0.4-0.6,1.2-0.9,1.7-1.4
	c2.2-2.2,2.9-8.5,1.1-10.3c-0.3-0.3-0.7-0.7-0.9-1.1c-0.4-0.8-0.2-1.7,0-2.5c1-5.6-0.2-11.6-3.7-16.1c-3.5-4.5-9.3-7.1-14.9-6.4
	l0.2,0c-5.6-0.7-11.4,2-14.9,6.4s-4.7,10.5-3.7,16.1c0.2,0.8,0.3,1.7,0,2.5c-0.2,0.4-0.7,0.7-0.9,1.1c-1.5,2.9-0.4,8.8,1.1,10.3
	c0.5,0.5,1.2,0.8,1.7,1.4c0.8,1.2,0.5,2.8,0.8,4.2c0.7,3.2,4.7,4.6,5.9,7.6"/>
<path class="st0" d="M34.2,49.8c0.6,1.5,0.4,3.2-0.1,4.8c-0.9,3.3-2.7,6.5-5.7,8.1c-1.6,0.8-3.4,1.2-5.1,1.6
	c-5.2,1.2-10.3,3.1-14.5,6.3S1.1,78.2,0,83.4c0,0,5.3,2.4,16.6,3.4c11,1,33.1-2.2,49.8-3.4c12.8-1,22.1,0,22.1,0"/>
<path class="st0" d="M40.3,4.3c-0.3,2.6-0.6,5.3,0.3,7.8c0.5,1.6,1.5,3,2.4,4.4c0.6-1.6,1.1-3.1,1.7-4.7c0.3,2.2,1.3,4.3,2.2,6.3
	c0.8,1.6,1.5,3.1,2.3,4.7c0.3-1.5,0.6-2.9,0.9-4.4c0.6,3.5,2.6,6.7,5.4,8.8c1.7,1.3,3.8,2.2,5,4c1.2,1.8,1.3,4,1.3,6.2
	c0.1,3.8,0.2,7.6,0.3,11.5"/>
</svg>
