<?xml version="1.0" encoding="utf-8"?>
<!-- Generator: Adobe Illustrator 23.0.1, SVG Export Plug-In . SVG Version: 6.00 Build 0)  -->
<svg version="1.1" id="Layer_1" xmlns="http://www.w3.org/2000/svg" xmlns:xlink="http://www.w3.org/1999/xlink" x="0px" y="0px"
	 viewBox="0 0 96.6 98.4" style="enable-background:new 0 0 96.6 98.4;" xml:space="preserve">
<style type="text/css">
	.st0{fill:#6A82A0;}
	.st1{fill:#4D667C;}
	.st2{fill:#FFFFFF;}
	.st3{fill:none;}
	.st4{fill:#E0ECFC;}
</style>
<g>
	<path class="st4" d="M58.7,46.4c-0.7,3.8-2.4,7.5-4.7,10.7c-2.4,3.2-5.5,6-9.1,8c-3.6,2-7.6,3.3-11.7,3.6
		c-4.1,0.4-8.3-0.1-12.3-1.4c-3.9-1.3-7.6-3.4-10.7-6.2c-3.1-2.8-5.6-6.2-7.2-9.9c-1.7-3.7-2.5-7.8-2.5-11.8c0-4,0.9-8,2.6-11.4
		C1.7,35.6,3,43.2,6.5,49.4c3.5,6.2,9.3,11,16,13.2c6.7,2.2,14.1,1.9,20.7-1C49.8,58.7,55.3,53.3,58.7,46.4z"/>
</g>
<g>
	<path class="st4" d="M3.2,28c0.7-3.8,2.4-7.5,4.7-10.7c2.4-3.2,5.5-6,9.1-8c3.6-2,7.6-3.3,11.7-3.6C32.8,5.2,37,5.7,40.9,7
		c3.9,1.3,7.6,3.4,10.7,6.2c3.1,2.8,5.6,6.2,7.2,9.9c1.7,3.7,2.5,7.8,2.5,11.8c0,4-0.9,8-2.6,11.4c1.4-7.6,0.2-15.2-3.4-21.5
		c-3.5-6.2-9.3-11-16-13.2c-6.7-2.2-14.1-1.9-20.7,1C12.1,15.6,6.6,21,3.2,28z"/>
</g>
<g>
	<g>
		<path class="st4" d="M35.7,11c2.5,0.9,5,1.9,7.5,2.8c-0.2-0.1,0.1-4.6,0-5c0-1.2,0-2.4,0-3.5c0-0.2,0.1-1.4,0-1.5
			c-2.5-0.9-5-1.9-7.5-2.8c0.2,0.1-0.1,4.6,0,5c0,1.2,0,2.4,0,3.5C35.7,9.7,35.6,11,35.7,11L35.7,11z"/>
	</g>
</g>
<g>
	<g>
		<path class="st4" d="M51,18.7c2.4,1.9,4.3,4.3,6.2,6.7c-0.1-0.1,0-1.6,0-1.5c0-1.2,0-2.4,0-3.5c0-1.2,0-2.4,0-3.5
			c0-0.3,0.1-1.2,0-1.5c-1.9-2.4-3.8-4.7-6.2-6.7c0,0,0,1.6,0,1.5c0,1.2,0,2.4,0,3.5c0,1.2,0,2.4,0,3.5C51,17.4,50.9,18.5,51,18.7
			L51,18.7z"/>
	</g>
</g>
<g>
	<g>
		<path class="st4" d="M25.6,0.9c-2.6-1.4-5.7-1.1-8,0.8c-0.1,0.1,0,1.6,0,1.5c0,1.2,0,2.4,0,3.5c0,1.2,0,2.4,0,3.5
			c0,0.2,0.1,1.4,0,1.5c2.3-1.9,5.4-2.2,8-0.8c-0.3-0.2,0.1-4.5,0-5c0-1.2,0-2.4,0-3.5C25.7,2.1,25.7,0.9,25.6,0.9L25.6,0.9z"/>
	</g>
</g>
<g>
	<g>
		<path class="st4" d="M2.9,23c-1,0.2-1.9,0.2-2.8-0.1c0,0,0,1.7,0,1.5c0,1.2,0,2.4,0,3.5c0,1.2,0,2.4,0,3.5c0,0.2-0.1,1.4,0,1.5
			C1,33.2,2,33.2,2.9,33c0,0,0-1.7,0-1.5c0-1.2,0-2.4,0-3.5c0-1.2,0-2.4,0-3.5C3,24.3,2.9,23,2.9,23L2.9,23z"/>
	</g>
</g>
<g>
	<g>
		<path class="st4" d="M58,51c1.1,0.2,2.2,0.5,3.2,0.7c0,0,0-1.7,0-1.5c0-1.2,0-2.4,0-3.5c0-1.2,0-2.4,0-3.5c0-0.2,0-1.4,0-1.5
			c-1.1-0.2-2.2-0.5-3.2-0.7c0,0,0,1.7,0,1.5c0,1.2,0,2.4,0,3.5c0,1.2,0,2.4,0,3.5C58,49.7,57.9,51,58,51L58,51z"/>
	</g>
</g>
<g>
	<g>
		<path class="st4" d="M22.5,71.5c2,0.7,4,1.2,6.1,1.5c-0.1,0,0.1-4.6,0.1-5c0-0.4,0.2-5-0.1-5c-2.1-0.3-4.1-0.9-6.1-1.5
			c0.2,0.1-0.1,4.6-0.1,5c0,1.2,0,2.4,0,3.5C22.5,70.2,22.4,71.4,22.5,71.5L22.5,71.5z"/>
	</g>
</g>
<g>
	<g>
		<path class="st4" d="M38.1,73.4c2.1-0.7,4-1.6,5.9-2.7c0.1,0,0-1.6,0-1.5c0-1.2,0-2.4,0-3.5c0-1.2,0-2.4,0-3.5
			c0-0.2-0.1-1.4,0-1.5c-1.9,1.1-3.9,2-5.9,2.7c-0.3,0.1-0.1,4.6,0,5c0,1.2,0,2.4,0,3.5C38.1,72.1,38.2,73.4,38.1,73.4L38.1,73.4z"
			/>
	</g>
</g>
<g>
	<g>
		<path class="st4" d="M8.2,52.6c-0.2,2.2-0.1,4.5-0.1,6.8c0,1.5-0.3,3.3,0.2,4.7c0.6,1.7,2.3,2.6,3.8,3.4c0,0,0-1.7,0-1.5
			c0-1.2,0-2.4,0-3.5c0-1.2,0-2.4,0-3.5c0-0.2,0.1-1.4,0-1.5c-1.8-0.9-3.8-2-4-4.2c0,1.2,0,2.4,0,3.7c0-0.1,0-0.2,0-0.3
			c0,2.1,0,4.2,0,6.3c0-0.1,0-0.2,0-0.3c0.2-1.6,0.1-3.4,0-5c0-1.2,0-2.4,0-3.5C8.2,53.6,8.2,53.1,8.2,52.6L8.2,52.6z"/>
	</g>
</g>
<g>
	<g>
		<path class="st4" d="M0.1,50.4c0.9,2.7,2.1,5.3,3.6,7.7c-0.1-0.2,0-1.5,0-1.5c0-1.2,0-2.4,0-3.5c0-1.2,0-2.4,0-3.5
			c0-0.3,0.1-1.2,0-1.5c-1.5-2.5-2.7-5-3.6-7.7c0.1,0.3,0,1.3,0,1.5c0,1.2,0,2.4,0,3.5c0,1.2,0,2.4,0,3.5C0,49.3-0.1,50,0.1,50.4
			L0.1,50.4z"/>
	</g>
</g>
<g>
	<g>
		<path class="st4" d="M51.9,66.1c1.6-1.1,2.7-2.7,3.2-4.5c0.1-0.4,0-1.1,0-1.5c0-1.2,0-2.4,0-3.5c0-1.2,0-2.4,0-3.5
			c0-0.4-0.1-1.1,0-1.5c-0.5,1.9-1.6,3.5-3.2,4.5c-0.1,0.1,0,1.6,0,1.5c0,1.2,0,2.4,0,3.5c0,1.2,0,2.4,0,3.5
			C51.8,64.8,52,66,51.9,66.1L51.9,66.1z"/>
	</g>
</g>
<g>
	<g>
		<path class="st4" d="M11.3,9.5c-2.8,0.3-5,2.4-5.6,5.1c-0.1,0.4,0,1.1,0,1.5c0,1.2,0,2.4,0,3.5c0,1.2,0,2.4,0,3.5
			c0,0.4,0.1,1,0,1.5c0.6-2.7,2.8-4.8,5.6-5.1C11.8,19.4,11.1,9.5,11.3,9.5L11.3,9.5z"/>
	</g>
</g>
<g>
	<g>
		<path class="st4" d="M60.5,32c0.6,0.5,0.8,1.1,0.9,1.9c0-3.3,0-6.5,0-9.8c-0.1,1.3-0.5,2.5-0.5,3.8c-0.1,1.8-0.1,3.7-0.1,5.5
			c0,1.8-0.1,3.6,0,5.4c0,0.7,0.5,2.1,1.1,1.1c0.2-0.3,0.1-1,0.1-1.4c0-0.9,0-1.7,0-2.6c0-2.2,0-4.4,0-6.7c0-2.5-0.3-4.9-1.2-7.3
			c0.1,0.3,0,1.3,0,1.5c0,1.2,0,2.4,0,3.5c0,1.2,0,2.4,0,3.5c0,0.4-0.1,1.1,0,1.5c0.5,1.5,0.8,3,1,4.5c0.3,3.1,0.3,0.7,0.1-7.3
			c0.3,0.7,0.1,1.1-0.4,1.1c-0.7,0-0.7-0.8-0.8-1.3c0,0.8,0,1.7,0,2.5c-0.2,6-0.2,7.8,0.1,5.3c0-0.2,0.1-0.4,0.1-0.6
			c0.1-0.5,0.2-1.1,0.3-1.6c0.1-1.4,0.1-2.8,0.1-4.2c0-2,0.1-4.1,0-6.2c-0.1-0.9-0.2-1.5-0.9-2.1c0.1,0,0,1.6,0,1.5
			c0,1.2,0,2.4,0,3.5c0,1.2,0,2.4,0,3.5C60.5,30.7,60.3,31.8,60.5,32L60.5,32z"/>
	</g>
</g>
<g>
	<g>
		<path class="st4" d="M59.8,30.8c0.7,0.5,1.2,1.1,1.5,1.8c0-0.1,0-0.3,0-0.4c0-0.3,0-0.7,0-1c0-1.2,0-2.4,0-3.5c0-1.2,0-2.4,0-3.5
			c0-0.3,0-0.5,0-0.8c0-0.2,0-0.5,0-0.7c-0.3-0.8-0.8-1.4-1.5-1.8c0,0,0,1.7,0,1.5c0,1.2,0,2.4,0,3.5c0,1.2,0,2.4,0,3.5
			C59.8,29.5,59.7,30.7,59.8,30.8L59.8,30.8z"/>
	</g>
</g>
<g>
	<path class="st4" d="M94.3,79c-0.6,5.2-4,10.2-8.9,13.1c-4.9,2.9-11.1,3.6-16.6,1.7c-5.5-1.8-10.1-6.1-12.3-11.3
		c-2.2-5.2-2-11.3,0.7-15.8c-0.6,5.2,0.4,10.1,2.8,14c2.4,4,6.1,6.9,10.3,8.3c4.2,1.4,9,1.3,13.2-0.5C88,86.9,91.7,83.6,94.3,79z"/>
</g>
<g>
	<path class="st4" d="M57.2,66.7c0.6-5.2,4-10.2,8.9-13.1c4.9-2.9,11.1-3.6,16.6-1.7C88.2,53.7,92.8,58,95,63.2
		c2.2,5.2,2,11.3-0.7,15.8c0.6-5.2-0.4-10.1-2.8-14c-2.4-4-6.1-6.9-10.3-8.3c-4.2-1.4-9-1.3-13.2,0.5C63.6,58.9,59.8,62.2,57.2,66.7
		z"/>
</g>
<g>
	<g>
		<path class="st4" d="M79,57.1c1.7,0.6,3.3,1.3,5,1.9c0,0,0-1.7,0-1.5c0-1.2,0-2.4,0-3.5c0-1.2,0-2.4,0-3.5c0-0.2,0.1-1.4,0-1.5
			c-1.7-0.6-3.3-1.3-5-1.9c0,0,0,1.7,0,1.5c0,1.2,0,2.4,0,3.5c0,1.2,0,2.4,0,3.5C78.9,55.8,78.9,57,79,57.1L79,57.1z"/>
	</g>
</g>
<g>
	<g>
		<path class="st4" d="M89.2,62.2c1.6,1.3,2.9,2.9,4.1,4.4c-0.1-0.1,0-1.6,0-1.5c0-1.2,0-2.4,0-3.5c0-1.2,0-2.4,0-3.5
			c0-0.3,0.1-1.2,0-1.5c-1.3-1.6-2.5-3.2-4.1-4.4c0,0,0,1.6,0,1.5c0,1.2,0,2.4,0,3.5c0,1.2,0,2.4,0,3.5C89.1,60.9,89,62.1,89.2,62.2
			L89.2,62.2z"/>
	</g>
</g>
<g>
	<g>
		<path class="st4" d="M72.2,47c-1.7-0.9-3.8-0.7-5.3,0.5c-0.1,0.1,0,1.6,0,1.5c0,1.2,0,2.4,0,3.5c0,1.2,0,2.4,0,3.5
			c0,0.2,0.1,1.4,0,1.5c1.5-1.2,3.6-1.5,5.3-0.5c0,0,0-1.7,0-1.5c0-1.2,0-2.4,0-3.5c0-1.2,0-2.4,0-3.5C72.3,48.2,72.4,47,72.2,47
			L72.2,47z"/>
	</g>
</g>
<g>
	<g>
		<path class="st4" d="M57.1,61.8c-0.6,0.1-1.3,0.1-1.9-0.1c0,0,0,1.7,0,1.5c0,1.2,0,2.4,0,3.5c0,1.2,0,2.4,0,3.5
			c0,0.2-0.1,1.4,0,1.5c0.6,0.2,1.2,0.2,1.9,0.1c0,0,0-1.7,0-1.5c0-1.2,0-2.4,0-3.5c0-1.2,0-2.4,0-3.5
			C57.1,63.1,57.1,61.8,57.1,61.8L57.1,61.8z"/>
	</g>
</g>
<g>
	<g>
		<path class="st4" d="M93.8,83.7c0.7,0.2,1.4,0.3,2.2,0.5c0,0,0-1.7,0-1.5c0-1.2,0-2.4,0-3.5c0-1.2,0-2.4,0-3.5c0-0.2,0-1.4,0-1.5
			c-0.7-0.2-1.4-0.3-2.2-0.5c0,0,0,1.7,0,1.5c0,1.2,0,2.4,0,3.5c0,1.2,0,2.4,0,3.5C93.8,82.4,93.8,83.7,93.8,83.7L93.8,83.7z"/>
	</g>
</g>
<g>
	<g>
		<path class="st4" d="M71.7,97.1c1.3,0.5,2.7,0.8,4.1,1c-0.1,0,0.1-4.6,0.1-5c0-0.4,0.2-5-0.1-5c-1.4-0.2-2.8-0.6-4.1-1
			c0,0,0,1.7,0,1.5c0,1.2,0,2.4,0,3.5c0,1.2,0,2.4,0,3.5C71.6,95.8,71.6,97.1,71.7,97.1L71.7,97.1z"/>
	</g>
</g>
<g>
	<g>
		<path class="st4" d="M82.1,98.4c1.4-0.5,2.7-1.1,4-1.8c0.1,0,0-1.6,0-1.5c0-1.2,0-2.4,0-3.5c0-1.2,0-2.4,0-3.5
			c0-0.2-0.1-1.4,0-1.5c-1.3,0.7-2.6,1.3-4,1.8c-0.1,0,0,1.7,0,1.5c0,1.2,0,2.4,0,3.5c0,1.2,0,2.4,0,3.5
			C82,97.1,82.1,98.4,82.1,98.4L82.1,98.4z"/>
	</g>
</g>
<g>
	<g>
		<path class="st4" d="M62.1,81.2C62,81.7,62,82.3,62,82.9c0,1.7,0,3.3,0,5c0,1.1,0,2.2,0,3.3c0,0.4,0,0.7,0.1,1
			c0.4,1.1,1.5,1.7,2.6,2.2c0,0,0-1.7,0-1.5c0-1.2,0-2.4,0-3.5c0-1.2,0-2.4,0-3.5c0-0.2,0.1-1.4,0-1.5c-1.2-0.6-2.5-1.3-2.7-2.8
			c0,1.2,0,2.4,0,3.7c0-0.1,0-0.1,0-0.2c0,2.1,0,4.2,0,6.3c0-0.1,0-0.1,0-0.2c0.2-1.6,0.1-3.4,0-5c0-1.2,0-2.4,0-3.5
			C62.1,82.2,62,81.7,62.1,81.2L62.1,81.2z"/>
	</g>
</g>
<g>
	<g>
		<path class="st4" d="M55.2,83.3c0.6,1.8,1.4,3.5,2.4,5.1c-0.1-0.2,0-1.5,0-1.5c0-1.2,0-2.4,0-3.5c0-1.2,0-2.4,0-3.5
			c0-0.3,0.1-1.2,0-1.5c-1-1.6-1.8-3.3-2.4-5.1c0.1,0.3,0,1.3,0,1.5c0,1.2,0,2.4,0,3.5c0,1.2,0,2.4,0,3.5
			C55.2,82.3,55,82.9,55.2,83.3L55.2,83.3z"/>
	</g>
</g>
<g>
	<g>
		<path class="st4" d="M91.2,93.5c1.1-0.7,1.8-1.8,2.1-3c0.1-0.4,0-1.1,0-1.5c0-1.2,0-2.4,0-3.5c0-1.2,0-2.4,0-3.5
			c0-0.4-0.1-1.1,0-1.5c-0.3,1.3-1.1,2.3-2.1,3c-0.1,0.1,0,1.6,0,1.5c0,1.2,0,2.4,0,3.5c0,1.2,0,2.4,0,3.5
			C91.2,92.2,91.3,93.5,91.2,93.5L91.2,93.5z"/>
	</g>
</g>
<g>
	<g>
		<path class="st4" d="M62.7,52.7c-1.8,0.2-3.4,1.6-3.7,3.4c-0.1,0.4,0,1.1,0,1.5c0,1.2,0,2.4,0,3.5c0,1.2,0,2.4,0,3.5
			c0,0.4,0.1,1,0,1.5c0.4-1.8,1.9-3.2,3.7-3.4c0.1,0,0.1-4.6,0-5C62.8,57.3,62.7,52.7,62.7,52.7L62.7,52.7z"/>
	</g>
</g>
<g>
	<g>
		<path class="st4" d="M95.5,71.1c0.4,0.4,0.6,0.7,0.6,1.3c0-3.3,0-6.5,0-9.8c0,0.8-0.3,1.6-0.4,2.5c-0.1,1.8-0.1,3.5-0.1,5.3
			c0,1.7-0.1,3.5,0,5.2c0,0.5,0.3,1.5,0.8,0.8c0.1-0.2,0.1-0.7,0.1-1c0-0.8,0-1.7,0-2.5c0-2.2,0-4.3,0-6.5c0-1.9-0.2-3.6-0.8-5.4
			c0.1,0.3,0,1.3,0,1.5c0,1.2,0,2.4,0,3.5c0,1.2,0,2.4,0,3.5c0,0.4-0.1,1.1,0,1.5c0.2,0.6,0.4,1.1,0.5,1.7c0.2,0.8,0.2,3.2,0.2,0.1
			c0-2.4,0-4.9,0-7.3c0,0.3,0.2,1.2-0.4,1c-0.4-0.1-0.4-0.5-0.4-0.8c0,0.8,0,1.7,0,2.5c0-0.1,0-0.2,0-0.4c0,2.4,0,4.9,0,7.3
			c0-0.8,0.3-1.6,0.3-2.4c0.1-1.3,0.1-2.7,0.1-4c0-2,0.1-4.1,0-6.2c0-0.6-0.1-1.1-0.6-1.5c0.1,0,0,1.6,0,1.5c0,1.2,0,2.4,0,3.5
			c0,1.2,0,2.4,0,3.5C95.5,69.8,95.4,70.9,95.5,71.1L95.5,71.1z"/>
	</g>
</g>
<g>
	<g>
		<path class="st4" d="M95.1,70.3c0.5,0.3,0.8,0.7,1,1.2c0-0.1,0-0.3,0-0.4c0-0.3,0-0.7,0-1c0-1.2,0-2.4,0-3.5c0-1.2,0-2.4,0-3.5
			c0-0.3,0-0.5,0-0.8c0-0.2,0-0.5,0-0.7c-0.2-0.5-0.5-0.9-1-1.2c0,0,0,1.7,0,1.5c0,1.2,0,2.4,0,3.5c0,1.2,0,2.4,0,3.5
			C95,69,94.9,70.2,95.1,70.3L95.1,70.3z"/>
	</g>
</g>
</svg>
