<?xml version="1.0" encoding="utf-8"?>
<!-- Generator: Adobe Illustrator 23.0.1, SVG Export Plug-In . SVG Version: 6.00 Build 0)  -->
<svg version="1.1" id="Layer_1" xmlns="http://www.w3.org/2000/svg" xmlns:xlink="http://www.w3.org/1999/xlink" x="0px" y="0px"
	 viewBox="0 0 124.2 94.8" style="enable-background:new 0 0 124.2 94.8;" xml:space="preserve">
<style type="text/css">
	.st0{fill:#6A82A0;}
	.st1{fill:#4D667C;}
	.st2{fill:#FFFFFF;}
	.st3{fill:none;}
	.st4{fill:#E0ECFC;}
</style>
<g>
	<path class="st2" d="M0.4,34.9C0.7,40.5,1.1,48.3,1.5,54c0,0.6,0.1,1.2,0.3,1.7c0.3,0.5,0.7,0.8,1.2,1.2
		c6.8,5.4,11.3,13.4,18.3,18.4c0.4,0.3,0.8,0.5,1.3,0.6c1,0.2,2-0.4,2.9-1C42.6,63.5,62,55.6,82.3,51.8"/>
	<path class="st0" d="M0.4,34.9c0.5,4.8,1,9.5,1.4,14.3l0.3,3.6c0.1,0.6,0.1,1.2,0.2,1.8c0.1,0.5,0.2,0.8,0.5,1.2
		c0.3,0.3,0.9,0.7,1.3,1.1c0.5,0.4,1,0.8,1.4,1.2c0.9,0.8,1.8,1.7,2.7,2.5c3.4,3.4,6.4,7.2,9.8,10.5c0.8,0.8,1.7,1.6,2.6,2.3
		c0.4,0.4,0.9,0.7,1.4,1c0.5,0.4,0.8,0.5,1,0.5c0.2,0,0.6-0.1,1-0.3c0.4-0.2,0.9-0.6,1.4-0.9c1-0.7,2-1.3,3-2
		c4.1-2.6,8.3-4.9,12.6-7.1c4.3-2.1,8.8-4,13.3-5.7c9-3.3,18.4-5.7,27.9-7c-9.3,2.3-18.4,5.2-27.2,8.8c-4.4,1.8-8.7,3.8-12.9,6
		c-4.2,2.1-8.4,4.5-12.4,7c-1,0.6-2,1.3-3,1.9c-0.5,0.3-1,0.7-1.6,1c-0.6,0.3-1.4,0.7-2.4,0.6c-1-0.1-1.7-0.7-2.2-1
		c-0.5-0.4-1-0.7-1.5-1.1c-1-0.8-1.9-1.6-2.7-2.5c-3.5-3.5-6.3-7.3-9.5-10.8C6,60.8,5.2,60,4.4,59.2c-0.4-0.4-0.8-0.8-1.3-1.2
		c-0.4-0.4-0.9-0.7-1.4-1.3c-0.2-0.3-0.5-0.6-0.6-1c-0.1-0.4-0.2-0.7-0.2-1.1c0-0.7,0-1.2-0.1-1.8l-0.1-3.6
		C0.5,44.5,0.4,39.7,0.4,34.9z"/>
</g>
<g>
	<path class="st0" d="M45.6,86.7c0-0.6,0.2-1.1,0.5-1.6c0.3-0.5,0.7-0.9,1.2-1.3c0.9-0.7,2-1.2,3.1-1.6c2.2-0.8,4.5-1.1,6.8-1.1
		c2.3,0,4.6,0.3,6.8,1.1c1.1,0.4,2.2,0.9,3.1,1.6c0.5,0.3,0.9,0.8,1.2,1.3c0.3,0.5,0.5,1.1,0.5,1.7h-0.3c0-0.6-0.2-1.1-0.5-1.6
		c-0.3-0.5-0.7-0.9-1.1-1.2c-0.9-0.7-1.9-1.2-3-1.6c-2.2-0.8-4.5-1.1-6.8-1.1c-2.3,0-4.6,0.3-6.8,1c-1.1,0.4-2.1,0.9-3.1,1.6
		c-0.5,0.3-0.9,0.8-1.2,1.3C45.9,85.6,45.7,86.1,45.6,86.7z"/>
</g>
<g>
	<path class="st0" d="M68.9,86.7c0.2,0.6,0.1,1.3-0.1,2c-0.2,0.6-0.6,1.2-1.1,1.7c-0.9,1-2,1.7-3.2,2.3c-1.1,0.6-2.4,0.9-3.6,1.2
		c-1.2,0.2-2.5,0.3-3.7,0.4c-1.2,0-2.5-0.1-3.7-0.4c-1.2-0.3-2.4-0.6-3.6-1.2c-1.2-0.5-2.3-1.3-3.2-2.3c-0.4-0.5-0.8-1.1-1.1-1.7
		c-0.2-0.6-0.3-1.4-0.1-2h0.2c0,0.6,0.2,1.1,0.5,1.6c0.3,0.5,0.7,0.9,1.2,1.2c0.9,0.7,1.9,1.2,3,1.6c2.2,0.7,4.5,1,6.8,1
		c2.3,0,4.6-0.3,6.8-1c1.1-0.4,2.1-0.9,3-1.6c0.5-0.3,0.8-0.8,1.2-1.2c0.3-0.5,0.5-1,0.5-1.6H68.9z"/>
</g>
<g>
	<path class="st2" d="M71.8,10c0.4-0.1,0.9,0.1,1.3,0.3c9.6,4.5,18.6,10.3,26.7,17.1c0.3,0.3,0.6,0.6,0.7,1c0.1,0.5-0.3,1-0.7,1.3
		c-2.1,1.9-4.4,3.4-6.9,4.8c-4.4,2.4-9,4.3-13.8,5.5c-3.4,0.9-6.9,1.5-10.4,2.1c-13.4,2.6-42.8,13-43.1,14.5"/>
	<path class="st0" d="M71.8,10c0.6-0.1,1.2,0.2,1.7,0.4l1.7,0.7c1.1,0.5,2.2,1,3.3,1.5c2.2,1,4.3,2.2,6.4,3.4
		c4.2,2.4,8.3,5.1,12.1,8c1,0.7,1.9,1.5,2.9,2.2c0.2,0.2,0.5,0.4,0.7,0.6c0.3,0.2,0.7,0.6,0.8,1.3c0.2,0.7-0.1,1.3-0.4,1.7
		c-0.3,0.4-0.6,0.6-0.8,0.8c-1.8,1.7-3.9,3.1-6,4.4c-4.2,2.5-8.8,4.4-13.5,5.8c-4.7,1.4-9.6,2-14.2,3c-4.7,1-9.3,2.3-13.9,3.6
		c-4.6,1.3-9.2,2.7-13.8,4.2c-2.3,0.7-4.6,1.5-6.8,2.3c-1.1,0.4-2.3,0.8-3.4,1.2c-0.6,0.2-1.1,0.4-1.7,0.7c-0.3,0.1-0.5,0.2-0.8,0.4
		c-0.3,0.1-0.6,0.3-0.7,0.5c0.1-0.3,0.4-0.4,0.7-0.6c0.3-0.2,0.5-0.3,0.8-0.5c0.5-0.3,1.1-0.6,1.6-0.8c1.1-0.5,2.2-1,3.3-1.5
		c2.2-1,4.4-1.9,6.7-2.8c4.5-1.7,9-3.4,13.6-4.9c4.6-1.5,9.2-2.9,13.9-4.1c4.8-1.1,9.5-1.7,14-3.1c4.5-1.3,8.9-3.1,13-5.4
		c2-1.2,4-2.4,5.7-4c0.2-0.2,0.4-0.3,0.5-0.5c0.1-0.1,0-0.1,0.1,0c0,0.1,0,0-0.2-0.2l-0.6-0.6c-0.9-0.8-1.8-1.6-2.7-2.3
		c-3.7-3-7.6-5.9-11.6-8.5c-2-1.3-4-2.6-6.1-3.8c-1-0.6-2.1-1.2-3.1-1.8l-1.6-0.9C72.9,10.4,72.4,10,71.8,10z"/>
</g>
<g>
	<path class="st2" d="M0.4,34.9c13.7,1,29.5-3.9,42.8-7.5c5.2-1.4,10.4-3,15.2-5.5s9.1-6,11.9-10.6c0.4-0.6,0.8-1.3,1.5-1.4"/>
	<path class="st0" d="M0.4,34.9c6.5,0.3,13-0.7,19.3-2c6.3-1.3,12.6-3.1,18.8-4.9l4.7-1.4l4.6-1.6c3-1.1,6-2.2,8.9-3.5
		c2.9-1.4,5.6-3,8.1-4.9c1.2-1,2.4-2,3.5-3.2c0.6-0.6,1.1-1.2,1.6-1.8c0.3-0.3,0.5-0.6,0.8-0.9c0.3-0.3,0.7-0.6,1.1-0.6
		c-0.4,0.1-0.7,0.4-0.8,0.8c-0.2,0.3-0.3,0.7-0.5,1.1c-0.3,0.8-0.8,1.5-1.2,2.2c-0.9,1.4-2,2.7-3.2,3.9c-1.2,1.2-2.5,2.2-3.9,3.2
		c-1.4,1-2.8,1.8-4.3,2.5c-3,1.5-6.1,2.6-9.3,3.4c-1.6,0.4-3.2,0.8-4.8,1.1c-1.6,0.4-3.1,0.8-4.7,1.2c-6.3,1.6-12.6,3.2-19,4.4
		C13.5,34.8,6.9,35.5,0.4,34.9z"/>
</g>
<path class="st0" d="M55.4,46c1.6,4.8,2.2,10,1.7,15.1c0,0.2,0,0.5,0.2,0.6c0.1,0.1,0.3,0,0.4,0c2.3-0.7,4.6-1.7,6.7-3
	c0.2-0.1,0.4-0.3,0.5-0.5c0.1-0.2,0-0.4-0.1-0.6c-1.1-2.3-2.3-7.2-2.3-9.8"/>
<g>
	<path class="st2" d="M43.5,0c-2.5,2.6-7.5,8.2-10,10.8c-0.8,0.8-1.5,1.5-2,2.5c-0.5,1-0.6,2.1-0.8,3.2c-0.8,7.3-1.4,14.6-1.6,22
		c6.5-1.2,13,1.7,19.1,4.1c20.2,8.2,41.7,13.1,61.2,22.9c0.7,0.4,1.4,0.7,2.2,0.7c0.6,0,1.1-0.2,1.6-0.5c3.4-1.6,10.3-8,7.2-9.7
		C76.1,33.1,43.5,0,43.5,0z"/>
	<g>
		<path class="st0" d="M43.5,0c-2.4,2.6-4.7,5.4-7.1,8.1l-1.8,2c-0.6,0.7-1.3,1.3-1.8,2c-0.6,0.7-1,1.4-1.2,2.2
			c-0.2,0.8-0.3,1.7-0.4,2.6c-0.7,7.2-1.1,14.4-1.2,21.6L29,37.7c2.1-0.4,4.3-0.4,6.4-0.1c2.1,0.3,4.2,0.8,6.2,1.5
			c2,0.7,3.9,1.4,5.9,2.2c1.9,0.8,3.8,1.5,5.8,2.2c7.7,2.9,15.6,5.4,23.4,7.9c7.9,2.6,15.7,5.3,23.4,8.5c1.9,0.8,3.8,1.6,5.7,2.5
			c0.9,0.4,1.9,0.9,2.8,1.4c0.9,0.4,2,1,2.6,1.2c0.3,0.1,0.5,0.1,0.8,0c0.3-0.1,0.8-0.3,1.2-0.5c0.8-0.5,1.6-1,2.4-1.6
			c1.5-1.2,3-2.6,4-4.2c0.2-0.4,0.4-0.8,0.5-1c0-0.1,0-0.2,0-0.3c0,0,0,0,0,0c0,0-0.1-0.1-0.4-0.2l-0.7-0.4l-1.4-0.7l-5.5-3
			c-1.8-1-3.6-2.1-5.4-3.2l-2.7-1.6l-2.6-1.7l-5.3-3.3L91,39.7c-1.7-1.1-3.4-2.4-5.1-3.6c-1.7-1.2-3.4-2.4-5-3.7l-5-3.7l-4.9-3.8
			c-3.2-2.6-6.4-5.2-9.5-7.9C55.3,11.6,49.2,6,43.5,0z M43.5,0c6,5.6,12.3,11,18.7,16.2c6.5,5.1,13,10.2,19.7,14.9
			c1.7,1.2,3.4,2.3,5.1,3.5c1.7,1.2,3.4,2.3,5.1,3.4l5.2,3.4l5.3,3.2l2.6,1.6l2.7,1.5c1.8,1,3.6,2.1,5.4,3.1l5.4,2.9l1.4,0.7
			l0.7,0.4c0.2,0.1,0.6,0.3,0.9,0.6c0.4,0.3,0.6,0.8,0.7,1.3c0.1,0.5,0.1,0.9,0,1.3c-0.2,0.7-0.5,1.3-0.8,1.8
			c-1.3,2-2.8,3.4-4.5,4.8c-0.8,0.7-1.7,1.3-2.7,1.9c-0.5,0.3-1,0.5-1.6,0.7c-0.6,0.2-1.5,0.3-2.2,0.1c-0.7-0.2-1.2-0.5-1.7-0.7
			l-1.4-0.7c-0.9-0.4-1.8-0.9-2.8-1.3c-1.9-0.8-3.7-1.7-5.6-2.5c-7.6-3.2-15.3-5.9-23.2-8.5c-7.8-2.7-15.7-5.2-23.4-8.2
			c-1.9-0.8-3.9-1.5-5.8-2.3c-1.9-0.8-3.8-1.6-5.7-2.3c-1.9-0.7-3.9-1.2-5.8-1.5c-2-0.3-4-0.3-5.9,0l-0.9,0.2l0-0.9
			c0.3-7.2,0.9-14.4,1.9-21.6c0.1-0.9,0.2-1.8,0.5-2.7c0.3-0.9,0.8-1.8,1.4-2.5c0.6-0.7,1.3-1.3,1.9-1.9L36,7.8
			C38.4,5.2,40.9,2.5,43.5,0z"/>
	</g>
</g>
<g>
	<path class="st2" d="M122.1,58.6c-0.2,0.1-0.5,0.2-0.7,0.1c-3-0.1-5.9-1.3-8.7-2.4c-12.6-5-25.8-8.5-38.6-13S48.8,33.1,38.6,24.2
		c-0.6-0.5-1.2-1.1-1.4-1.8c-0.2-0.6-0.1-1.2,0-1.8c1.2-7.1,3.3-14,6.3-20.6"/>
	<path class="st0" d="M122.1,58.6c-0.2,0.2-0.6,0.2-0.9,0.2c-0.3,0-0.6,0-0.9,0c-0.6,0-1.2-0.1-1.8-0.2c-1.2-0.2-2.4-0.6-3.6-1
		c-2.3-0.8-4.6-1.6-6.9-2.4c-4.6-1.5-9.3-2.9-13.9-4.3c-9.3-2.8-18.7-5.5-27.8-9.2c-4.5-1.8-9-3.9-13.4-6.3
		c-4.3-2.4-8.5-5.1-12.3-8.2c-1-0.8-1.9-1.6-2.8-2.4c-0.5-0.4-1-0.9-1.4-1.7c-0.4-0.8-0.3-1.7-0.2-2.3c0.5-2.4,1-4.8,1.7-7.2
		c1.4-4.7,3.2-9.3,5.5-13.6c-1.8,4.5-3.3,9.2-4.3,13.9c-0.5,2.4-1,4.8-1.3,7.1c-0.1,0.6,0,1,0.1,1.3c0.2,0.3,0.5,0.7,1,1.1
		c0.9,0.7,1.9,1.5,2.8,2.2c3.8,2.9,7.9,5.4,12.2,7.7c4.3,2.3,8.7,4.3,13.2,6c9,3.6,18.3,6.5,27.5,9.6c4.6,1.6,9.2,3.2,13.8,5.1
		c2.3,0.9,4.5,1.9,6.7,2.9c1.1,0.5,2.2,0.9,3.4,1.2c0.6,0.2,1.2,0.3,1.8,0.4c0.3,0,0.6,0.1,0.9,0.1
		C121.5,58.7,121.9,58.8,122.1,58.6z"/>
</g>
<g>
	<path class="st2" d="M43.5,0c8.2,8.2,18.9,14.3,28.5,19.8c3,1.7,6,3.4,9.1,4.8c4.5,1.9,9.3,3.1,14,4.3c6.5,1.6,13,3.3,19.4,4.9
		c2.8,0.7,5.7,1.4,8.6,1.6c0.3,7.4,0,14.9-0.7,22.3c0,0.3-0.1,0.7-0.4,0.9"/>
	<path class="st0" d="M43.5,0C48.9,5.1,55,9.2,61.3,13c3.2,1.9,6.4,3.7,9.6,5.5c1.6,0.9,3.3,1.7,4.9,2.6c1.6,0.8,3.3,1.6,4.9,2.3
		c3.3,1.4,6.8,2.4,10.4,3.3l10.7,2.7l10.7,2.8c3.6,0.9,7.1,2,10.6,2.3l0.9,0.1l0,0.9c0,3.9-0.1,7.8-0.4,11.7
		c-0.2,1.9-0.3,3.9-0.6,5.8l-0.4,2.9l-0.2,1.4c-0.1,0.5-0.1,1-0.5,1.4c0.4-0.4,0.3-0.9,0.3-1.4l0-1.5l0.1-2.9c0-1.9,0-3.9,0-5.8
		c0-3.9-0.2-7.8-0.4-11.6l1,1c-3.9-0.1-7.5-1.2-11.1-2l-10.8-2.6c-3.6-0.9-7.1-1.8-10.7-2.8c-3.6-1-7.2-2.2-10.6-3.8
		c-1.7-0.8-3.3-1.7-4.9-2.7c-1.6-0.9-3.1-2-4.7-2.9c-3.2-1.9-6.3-3.8-9.5-5.8C54.6,9.8,48.6,5.4,43.5,0z"/>
</g>
<path class="st0" d="M75.4,21.1c-1.4,9.1-5,20.2-10,28c2.9-0.2,5.9,0.5,8.5,1.8c0.3,0.2,0.6,0.3,1,0.3c0.5-0.1,0.7-0.5,1-1
	c1.3-2.6,2.4-5.4,3.2-8.2c1.5-5.3,2-10.9,4.5-15.7"/>
<g>
	<path class="st2" d="M29.2,38.5c0.3-1.6,2.1-5.8,2.5-6.8c0.4-0.9,4.6-8,5.4-10.1"/>
	<path class="st0" d="M29.2,38.5c-0.1-1.7,0.2-3.2,0.6-4.8c0.2-0.8,0.4-1.5,0.7-2.3c0.3-0.9,0.7-1.5,1.1-2.2c0.8-1.4,1.6-2.7,2.5-4
		c0.9-1.3,1.9-2.5,3-3.7c-0.1,1.7-0.7,3.2-1.3,4.6c-0.6,1.5-1.3,2.9-2,4.2c-0.4,0.7-0.8,1.4-1.1,1.9c-0.3,0.7-0.7,1.4-1.1,2.1
		C30.9,35.8,30,37.1,29.2,38.5z"/>
</g>
<g>
	<path class="st0" d="M22.9,76.6c-0.3-1.1-0.3-2.3-0.4-3.4c0-1.1,0-2.3,0.1-3.4c0.1-2.3,0.3-4.5,0.7-6.8c0.2-1.2,0.6-2.3,0.8-3.4
		c0.1-0.5,0.3-1.1,0.3-1.6c0.1-0.5,0.1-1,0.1-1.3c0-0.2-0.1-0.2-0.1-0.2c0,0-0.2-0.2-0.4-0.4c-0.4-0.3-0.9-0.6-1.3-0.9L20,53.5
		c-1.9-1.3-3.8-2.6-5.6-4c-1.8-1.4-3.5-2.9-5.2-4.4C5.8,42,2.8,38.6,0,35c3.7,2.7,7.1,5.6,10.6,8.4c3.5,2.7,7.1,5.5,10.7,8l2.8,1.9
		c0.5,0.3,0.9,0.7,1.4,1c0.2,0.2,0.5,0.3,0.8,0.8c0.4,0.5,0.5,1,0.5,1.4c0.1,0.8,0,1.5-0.2,2.1c-0.1,0.6-0.3,1.2-0.5,1.7
		c-0.3,1.1-0.7,2.2-1,3.2c-0.3,1-0.5,2.2-0.7,3.3c-0.2,1.1-0.5,2.2-0.7,3.3c-0.2,1.1-0.4,2.2-0.6,3.3C23.2,74.4,23,75.5,22.9,76.6z"
		/>
</g>
<g>
	<path class="st2" d="M33.7,88.7c-2-4.4,1.2-10.1,7-12.7c5.8-2.6,12.2-1.1,14.1,3.3"/>
	<path class="st0" d="M33.7,88.7c-0.6-1.2-0.9-2.6-0.7-4c0.1-1.4,0.6-2.7,1.3-3.9c1.4-2.4,3.7-4.2,6.2-5.3c2.5-1.1,5.4-1.6,8.1-1
		c1.4,0.3,2.7,0.8,3.8,1.6c1.1,0.8,2,1.9,2.4,3.2c-1.3-2.4-3.8-3.7-6.4-4.1c-2.6-0.3-5.2,0.1-7.6,1.2c-2.4,1.1-4.5,2.7-5.9,4.8
		C33.5,83.4,32.8,86.1,33.7,88.7z"/>
</g>
<g>
	<path class="st2" d="M54.8,79.3c2,4.4-1.2,10.1-7,12.7c-5.8,2.6-12.2,1.1-14.1-3.3"/>
	<path class="st0" d="M54.8,79.3c0.6,1.2,0.9,2.6,0.7,4c-0.1,1.4-0.6,2.7-1.3,3.9c-1.4,2.4-3.7,4.2-6.2,5.3c-2.5,1.1-5.4,1.6-8.1,1
		c-1.4-0.3-2.7-0.8-3.8-1.6c-1.1-0.8-2-1.9-2.4-3.2c1.3,2.4,3.8,3.7,6.4,4.1c2.6,0.3,5.2-0.1,7.6-1.2c2.4-1.1,4.5-2.7,5.9-4.8
		C55,84.6,55.7,81.9,54.8,79.3z"/>
</g>
<g>
	<path class="st2" d="M75,87.3c0-3.1,5.2-5.6,11.6-5.6s11.6,2.5,11.6,5.6"/>
	<path class="st0" d="M75,87.3c0-0.6,0.2-1.1,0.5-1.6c0.3-0.5,0.7-0.9,1.2-1.3c0.9-0.7,2-1.2,3.1-1.6c2.2-0.8,4.5-1.1,6.8-1.1
		c2.3,0,4.6,0.3,6.8,1.1c1.1,0.4,2.2,0.9,3.1,1.6c0.5,0.3,0.9,0.8,1.2,1.3c0.3,0.5,0.5,1.1,0.5,1.7h-0.3c0-0.6-0.2-1.1-0.5-1.6
		c-0.3-0.5-0.7-0.9-1.1-1.2c-0.9-0.7-1.9-1.2-3-1.6c-2.2-0.8-4.5-1.1-6.8-1.1c-2.3,0-4.6,0.3-6.8,1c-1.1,0.4-2.1,0.9-3.1,1.6
		c-0.5,0.3-0.9,0.8-1.2,1.3C75.2,86.2,75,86.7,75,87.3z"/>
</g>
<g>
	<path class="st2" d="M98.1,87.3c0,3.1-5.2,5.6-11.6,5.6S75,90.4,75,87.3"/>
	<path class="st0" d="M98.2,87.3c0.2,0.6,0.1,1.3-0.1,2c-0.2,0.6-0.6,1.2-1.1,1.7c-0.9,1-2,1.7-3.2,2.3c-1.1,0.6-2.4,0.9-3.6,1.2
		c-1.2,0.2-2.5,0.3-3.7,0.4c-1.2,0-2.5-0.1-3.7-0.4c-1.2-0.3-2.4-0.6-3.6-1.2C78,92.7,76.9,92,76,91c-0.4-0.5-0.8-1.1-1.1-1.7
		c-0.2-0.6-0.3-1.4-0.1-2h0.2c0,0.6,0.2,1.1,0.5,1.6c0.3,0.5,0.7,0.9,1.2,1.2c0.9,0.7,1.9,1.2,3,1.6c2.2,0.7,4.5,1,6.8,1
		c2.3,0,4.6-0.3,6.8-1c1.1-0.4,2.1-0.9,3-1.6c0.5-0.3,0.8-0.8,1.2-1.2c0.3-0.5,0.5-1,0.5-1.6H98.2z"/>
</g>
<g>
	<path class="st2" d="M75,83.9c0-3.1,5.2-5.6,11.6-5.6s11.6,2.5,11.6,5.6"/>
	<path class="st0" d="M75,83.9c0-0.6,0.2-1.1,0.5-1.6c0.3-0.5,0.7-0.9,1.2-1.3c0.9-0.7,2-1.2,3.1-1.6c2.2-0.8,4.5-1.1,6.8-1.1
		c2.3,0,4.6,0.3,6.8,1.1c1.1,0.4,2.2,0.9,3.1,1.6c0.5,0.3,0.9,0.8,1.2,1.3c0.3,0.5,0.5,1.1,0.5,1.7h-0.3c0-0.6-0.2-1.1-0.5-1.6
		c-0.3-0.5-0.7-0.9-1.1-1.2c-0.9-0.7-1.9-1.2-3-1.6c-2.2-0.8-4.5-1.1-6.8-1.1c-2.3,0-4.6,0.3-6.8,1c-1.1,0.4-2.1,0.9-3.1,1.6
		c-0.5,0.3-0.9,0.8-1.2,1.3C75.2,82.7,75,83.3,75,83.9z"/>
</g>
<g>
	<path class="st2" d="M98.1,83.9c0,3.1-5.2,5.6-11.6,5.6S75,87,75,83.9"/>
	<path class="st0" d="M98.2,83.9c0.2,0.6,0.1,1.3-0.1,2c-0.2,0.6-0.6,1.2-1.1,1.7c-0.9,1-2,1.7-3.2,2.3c-1.1,0.6-2.4,0.9-3.6,1.2
		c-1.2,0.2-2.5,0.3-3.7,0.4c-1.2,0-2.5-0.1-3.7-0.4c-1.2-0.3-2.4-0.6-3.6-1.2c-1.2-0.5-2.3-1.3-3.2-2.3c-0.4-0.5-0.8-1.1-1.1-1.7
		c-0.2-0.6-0.3-1.4-0.1-2h0.2c0,0.6,0.2,1.1,0.5,1.6c0.3,0.5,0.7,0.9,1.2,1.2c0.9,0.7,1.9,1.2,3,1.6c2.2,0.7,4.5,1,6.8,1
		c2.3,0,4.6-0.3,6.8-1c1.1-0.4,2.1-0.9,3-1.6c0.5-0.3,0.8-0.8,1.2-1.2c0.3-0.5,0.5-1,0.5-1.6H98.2z"/>
</g>
<g>
	<path class="st2" d="M75,80.1c0-3.1,5.2-5.6,11.6-5.6s11.6,2.5,11.6,5.6"/>
	<path class="st0" d="M75,80.1c0-0.6,0.2-1.1,0.5-1.6c0.3-0.5,0.7-0.9,1.2-1.3c0.9-0.7,2-1.2,3.1-1.6c2.2-0.8,4.5-1.1,6.8-1.1
		c2.3,0,4.6,0.3,6.8,1.1c1.1,0.4,2.2,0.9,3.1,1.6c0.5,0.3,0.9,0.8,1.2,1.3c0.3,0.5,0.5,1.1,0.5,1.7h-0.3c0-0.6-0.2-1.1-0.5-1.6
		c-0.3-0.5-0.7-0.9-1.1-1.2c-0.9-0.7-1.9-1.2-3-1.6c-2.2-0.8-4.5-1.1-6.8-1.1c-2.3,0-4.6,0.3-6.8,1c-1.1,0.4-2.1,0.9-3.1,1.6
		c-0.5,0.3-0.9,0.8-1.2,1.3C75.2,78.9,75,79.5,75,80.1z"/>
</g>
<g>
	<path class="st2" d="M98.1,80.1c0,3.1-5.2,5.6-11.6,5.6S75,83.2,75,80.1"/>
	<path class="st0" d="M98.2,80.1c0.2,0.6,0.1,1.3-0.1,2c-0.2,0.6-0.6,1.2-1.1,1.7c-0.9,1-2,1.7-3.2,2.3c-1.1,0.6-2.4,0.9-3.6,1.2
		c-1.2,0.2-2.5,0.3-3.7,0.4c-1.2,0-2.5-0.1-3.7-0.4c-1.2-0.3-2.4-0.6-3.6-1.2c-1.2-0.5-2.3-1.3-3.2-2.3c-0.4-0.5-0.8-1.1-1.1-1.7
		c-0.2-0.6-0.3-1.4-0.1-2h0.2c0,0.6,0.2,1.1,0.5,1.6c0.3,0.5,0.7,0.9,1.2,1.2c0.9,0.7,1.9,1.2,3,1.6c2.2,0.7,4.5,1,6.8,1
		c2.3,0,4.6-0.3,6.8-1c1.1-0.4,2.1-0.9,3-1.6c0.5-0.3,0.8-0.8,1.2-1.2c0.3-0.5,0.5-1,0.5-1.6H98.2z"/>
</g>
<g>
	<path class="st2" d="M75,78.2c0-2.1,5.2-3.8,11.6-3.8s11.6,1.7,11.6,3.8"/>
	<path class="st0" d="M75,78.2c0-0.6,0.4-1,0.8-1.3c0.4-0.3,0.9-0.6,1.4-0.8c1-0.4,2-0.7,3-1c2.1-0.5,4.2-0.6,6.4-0.6
		c2.1,0,4.3,0.2,6.4,0.6c1,0.2,2.1,0.5,3.1,1c0.5,0.2,1,0.5,1.4,0.8c0.4,0.3,0.8,0.8,0.8,1.4H98c0-0.5-0.3-0.9-0.7-1.3
		c-0.4-0.3-0.9-0.6-1.3-0.8c-1-0.4-2-0.7-3-1c-2.1-0.4-4.2-0.6-6.3-0.6c-2.1,0-4.3,0.2-6.4,0.6c-1,0.2-2.1,0.5-3,0.9
		c-0.5,0.2-1,0.5-1.4,0.8C75.3,77.2,75,77.7,75,78.2z"/>
</g>
<g>
	<path class="st2" d="M98.1,78.2c0,2.1-5.2,3.8-11.6,3.8S75,80.3,75,78.2"/>
	<path class="st0" d="M98.2,78.2c0,0.1,0,0.3,0,0.5c0,0.1-0.1,0.3-0.1,0.5c-0.1,0.3-0.3,0.6-0.5,0.8c-0.4,0.5-0.9,0.9-1.3,1.2
		c-1,0.6-2,1.1-3.1,1.4c-1.1,0.4-2.2,0.5-3.3,0.7c-1.1,0.2-2.2,0.2-3.3,0.2c-1.1,0-2.2-0.1-3.3-0.2c-1.1-0.2-2.2-0.4-3.3-0.7
		c-1.1-0.3-2.1-0.8-3.1-1.4c-0.5-0.3-1-0.7-1.3-1.2c-0.2-0.2-0.4-0.5-0.5-0.8c0-0.2-0.1-0.3-0.1-0.5c0-0.2,0-0.3,0-0.5H75
		c0,0.5,0.4,1,0.8,1.3c0.4,0.3,0.9,0.6,1.3,0.8c1,0.4,2,0.7,3,0.9c2.1,0.4,4.2,0.6,6.3,0.6c2.1,0,4.3-0.2,6.3-0.6
		c1-0.2,2.1-0.5,3-0.9c0.5-0.2,0.9-0.5,1.3-0.8c0.4-0.3,0.7-0.8,0.8-1.3H98.2z"/>
</g>
</svg>
