<?xml version="1.0" encoding="utf-8"?>
<!-- Generator: Adobe Illustrator 23.0.1, SVG Export Plug-In . SVG Version: 6.00 Build 0)  -->
<svg version="1.1" id="Layer_1" xmlns="http://www.w3.org/2000/svg" xmlns:xlink="http://www.w3.org/1999/xlink" x="0px" y="0px"
	 viewBox="0 0 90.5 90" style="enable-background:new 0 0 90.5 90;" xml:space="preserve">
<style type="text/css">
	.st0{fill:#6A82A0;}
	.st1{fill:#4D667C;}
	.st2{fill:#FFFFFF;}
	.st3{fill:none;}
	.st4{fill:#E0ECFC;}
</style>
<g>
	<path class="st0" d="M90.5,85.2c-1.2-4.8-4.3-9-8.1-11.9c-3.9-3-8.4-4.9-13.1-6.2c-1.2-0.3-2.4-0.6-3.6-0.9
		c-1.2-0.3-2.5-0.6-3.7-1.1c-2.5-1.1-4.3-3.2-5.5-5.5c-0.6-1.2-1.1-2.4-1.4-3.6c-0.3-1.3-0.5-2.6-0.3-4.1c0.3-1.5,1.1-2.7,2-3.6
		c0.9-1,1.9-1.7,2.6-2.6c0.8-0.8,1.3-1.7,1.5-2.7c0.1-0.5,0.1-1.1,0.1-1.8c0.1-0.7,0.2-1.5,0.6-2.2c0.2-0.4,0.6-0.8,0.9-1
		c0.3-0.2,0.6-0.4,0.8-0.6c0.4-0.3,0.6-0.6,0.9-1.1c0.5-0.9,0.8-2,1-3.1c0.2-1.1,0.2-2.3,0.1-3.3c-0.1-0.5-0.2-1-0.4-1.4
		c-0.1-0.2-0.7-0.7-1.2-1.4c-0.5-0.8-0.5-1.8-0.4-2.5l0.3-1.8c0.2-1.2,0.2-2.3,0.2-3.5c-0.2-4.7-1.9-9.4-5.3-12.6
		c-3.3-3.2-8.1-5.1-12.6-4.5l-0.1-2.1l0.2,0l-0.1,2.1c-5.1-0.7-10.4,1.6-13.8,5.5c-3.5,3.9-5,9.4-4.4,14.7c0.1,0.7,0.2,1.3,0.3,2
		c0.1,0.7,0.2,1.6-0.2,2.4c-0.3,0.5-0.6,0.7-0.8,0.9c-0.1,0.1-0.1,0.1-0.2,0.3l-0.2,0.4c-0.2,0.6-0.3,1.2-0.4,1.8
		c-0.1,1.3-0.1,2.6,0.1,3.9c0.2,1.3,0.6,2.7,1.3,3.6c0.4,0.4,1.1,0.7,1.6,1.3c0.5,0.6,0.7,1.4,0.7,2.1c0.1,0.7,0,1.4,0.1,2
		c0.1,0.6,0.3,1.3,0.6,1.8c1.4,2.3,4.1,3.7,5.1,6.3c-1.1-2.6-3.9-3.7-5.5-6.1c-0.4-0.6-0.7-1.3-0.8-2c-0.1-0.7-0.1-1.4-0.2-2.1
		c-0.1-0.6-0.3-1.3-0.6-1.7c-0.4-0.4-1-0.7-1.6-1.2c-1.1-1.2-1.4-2.6-1.7-3.9c-0.3-1.4-0.4-2.8-0.3-4.2c0.1-0.7,0.2-1.4,0.4-2.2
		l0.2-0.5c0.1-0.2,0.2-0.4,0.4-0.6c0.3-0.3,0.5-0.5,0.6-0.6c0.4-0.8-0.2-2.3-0.3-3.7c-0.7-5.6,0.7-11.5,4.4-16
		c3.7-4.4,9.6-7,15.4-6.4L46,2.2l-0.2,0l-0.1-2.1c2.6-0.3,5.3,0,7.8,0.9c2.5,0.9,4.7,2.3,6.6,4.1c3.8,3.7,5.8,8.9,6,14.1
		c0,1.3,0,2.6-0.2,3.9l-0.3,1.8c-0.1,0.5,0,0.9,0.1,1.1c0.1,0.1,0.2,0.3,0.4,0.5c0.1,0.1,0.2,0.2,0.3,0.4c0.1,0.2,0.3,0.4,0.4,0.5
		c0.4,0.7,0.6,1.4,0.7,2.1c0.2,1.4,0.1,2.7-0.1,4c-0.2,1.3-0.6,2.6-1.3,3.8c-0.2,0.3-0.4,0.6-0.7,0.9c-0.2,0.3-0.6,0.6-0.9,0.8
		c-0.6,0.4-1,0.6-1.1,0.9c-0.4,0.6-0.3,1.8-0.5,3.2c-0.2,1.5-1.1,2.8-2,3.7c-0.9,1-1.9,1.7-2.7,2.6c-0.8,0.8-1.4,1.7-1.6,2.7
		c-0.2,1-0.1,2.1,0.2,3.3c0.3,1.1,0.6,2.3,1.2,3.3c1,2.1,2.6,3.9,4.6,4.9c2.1,1,4.6,1.3,7,2.1c4.8,1.4,9.4,3.6,13.3,6.8
		C86.6,76,89.6,80.4,90.5,85.2z"/>
</g>
<g>
	<path class="st0" d="M35.7,51.3c0.4,1,0.5,2.2,0.4,3.3c-0.1,1.1-0.4,2.2-0.7,3.2c-0.7,2.1-1.9,4.1-3.6,5.6
		c-0.9,0.8-1.9,1.4-2.9,1.8c-1.1,0.4-2.1,0.7-3.2,1c-2.1,0.5-4.2,1.2-6.2,1.9c-4,1.5-7.9,3.7-10.9,6.6c-3.1,2.9-5.4,6.6-6.3,10.7
		l-0.6-1.2c1.6,0.6,3.4,1.1,5.2,1.6c1.8,0.4,3.6,0.8,5.4,1.1c1.8,0.3,3.7,0.5,5.5,0.7c0.9,0.1,1.8,0.1,2.7,0.2c0.9,0,1.8,0.1,2.8,0
		c3.7,0,7.4-0.2,11.1-0.5c3.7-0.3,7.4-0.6,11.2-0.9C53,85.8,60.5,85,68,84.6c3.8-0.2,7.5-0.3,11.3-0.2c3.8,0.1,7.5,0.3,11.2,0.8
		c-7.5-0.3-15-0.1-22.4,0.7c-7.4,0.7-14.9,1.7-22.3,2.5c-7.5,0.8-14.9,1.6-22.5,1.7c-1.9,0-3.8,0-5.7-0.2c-1.9-0.2-3.8-0.4-5.6-0.7
		C10,88.8,8.2,88.4,6.3,88c-1.9-0.5-3.7-1-5.5-1.8L0,85.9L0.2,85c1-4.6,3.7-8.6,7.1-11.6c3.4-3.1,7.5-5.2,11.7-6.6
		c2.1-0.7,4.3-1.3,6.4-1.7c1.1-0.2,2.1-0.5,3.1-0.8c1-0.3,1.9-0.8,2.7-1.5c1.7-1.3,2.9-3.2,3.7-5.2C35.7,55.6,36.4,53.4,35.7,51.3z"
		/>
</g>
</svg>
