<?xml version="1.0" encoding="utf-8"?>
<!-- Generator: Adobe Illustrator 23.0.1, SVG Export Plug-In . SVG Version: 6.00 Build 0)  -->
<svg version="1.1" id="Layer_1" xmlns="http://www.w3.org/2000/svg" xmlns:xlink="http://www.w3.org/1999/xlink" x="0px" y="0px"
	 viewBox="0 0 162.5 124.5" style="enable-background:new 0 0 162.5 124.5;" xml:space="preserve">
<style type="text/css">
	.st0{fill:#6A82A0;}
	.st1{fill:#4D667C;}
	.st2{fill:#FFFFFF;}
	.st3{fill:none;}
	.st4{fill:#E0ECFC;}
</style>
<path class="st0" d="M76.6,31.5c1.3,2.5,2.5,5,3.8,7.6c0.9-1.6,1.8-3.1,3.1-4.3c1.3-1.1,2.9-1.7,4.4-2.3c7.1-2.7,15.7-6.1,22.2-10.3
	"/>
<g>
	<path class="st2" d="M72.3,25.4c4.5,2.1,7.8,6.8,8.3,11.9c0.2,1.7,0,3.5,0.1,5.2c0.1,3.9,1.1,7.7,1.1,11.6c0,2.2,3.8,6.9,5.5,8.2"
		/>
	<path class="st0" d="M72.3,25.4c3.4,1.1,6.2,3.9,7.8,7.2c0.8,1.7,1.3,3.5,1.4,5.3c0.1,1.8,0,3.6,0,5.3c0.2,3.4,0.9,6.9,0.8,10.5
		c0,0.5,0,0.8,0.1,1.2c0.1,0.4,0.2,0.8,0.4,1.2c0.3,0.8,0.8,1.5,1.2,2.3c1,1.4,2,2.9,3.2,4.1c-1.4-1-2.7-2.3-3.8-3.7
		C83,58,82.5,57.3,82,56.5c-0.2-0.4-0.4-0.8-0.6-1.3c-0.1-0.2-0.1-0.5-0.2-0.7l-0.1-0.7c-0.2-3.4-1.2-6.8-1.4-10.4
		c-0.1-1.8,0.1-3.6,0-5.3c0-0.8-0.1-1.7-0.3-2.5c-0.2-0.8-0.4-1.6-0.7-2.4C77.6,30.1,75.3,27.3,72.3,25.4z"/>
</g>
<g>
	<path class="st0" d="M156.3,73.8c-0.9,3.1-2.1,3.9-3.8,4.8c-3.2,1.6-3,0.7-6,2.5c-0.8,0.5-3.9,2.9-4.7,3.5c-1.1,0.8-2,1.9-3,2.8
		c-2,1.6-13.8,7.2-17.3,6.3c-2.3-0.6-7.3,0.8-9.4,1.9c0.1-0.3,2.2-2.5,2.3-2.8c0.4-1,0.7-2.1,1.3-2.9c0.6-0.9,1.5-1.6,2.6-1.6"/>
</g>
<g>
	<path class="st2" d="M116.7,90.5c1.8,0.4,3.5,1,5.3,1c1.5,0,2.9-0.9,4.3-1.5c3.8-1.8,8.3-2.2,11.9-4.5c2.1-1.4,3.8-3.3,5.8-4.9
		c1.7-1.4,3.7-2.5,5.8-3.2c2-0.7,4.1-1.1,5.6-2.5c1.3-1.2,2-3,1.8-4.8c0-0.2-0.1-0.4-0.2-0.6c-0.3-0.4-1-0.3-1.5-0.1
		c-7.4,2.7-15,5.4-21.7,9.7c-2.5,1.6-4.8,3.4-7.6,4.3c-0.4,0.1-0.8,0.3-1.2,0.1c-0.4-0.1-0.7-0.6-0.5-1l0.2,0.3
		c2-1.5,4.7-1.6,6.9-2.7c1.2-0.6,2.2-1.4,3.3-2.2c4.2-3,9.1-4.8,13.9-6.5c1.7-0.6,3.4-1.2,5.1-1.8c1.3-0.5,2.6-1,3.5-2.1
		c0.8-1.1,0.8-3-0.4-3.7c-1.3-0.7-2.8,0.4-4,1.2c-2.9,1.9-6.5,2.2-9.4,3.9c-1.3,0.8-2.5,1.8-3.9,2.6c-4,2.4-9.2,2.6-12.9,5.5
		c-0.6,0.5-1.2,1.1-2,1.2c-1.5,0.3-2.7-1-4.2-1.4c-0.9-0.3-1.9-0.2-2.9-0.2c-2.3-0.2-4.4-1.6-6.5-2.6c-6.6-3.2-12.3-0.3-22.2-8.2
		C89.1,65.4,55.8,77.5,116.7,90.5z"/>
	<path class="st0" d="M116.7,90.5c1.7,0.4,3.5,1,5.3,1c1.8,0,3.3-1.2,5-1.8c3.3-1.4,6.9-1.9,10.1-3.6c3.2-1.6,5.3-4.7,8.4-6.7
		c1.5-1,3.1-1.8,4.8-2.4c1.7-0.6,3.5-1,4.8-2.2c1.3-1.1,2-2.9,1.9-4.5c0-0.2,0-0.4-0.1-0.6c0-0.2-0.1-0.2-0.2-0.3
		c-0.3-0.1-0.7,0-1.1,0.2l-2.5,0.9c-3.3,1.3-6.7,2.6-9.9,4c-3.2,1.5-6.4,3.2-9.3,5.1c-1.5,1-2.9,2-4.6,2.9c-0.8,0.5-1.6,0.9-2.5,1.2
		c-0.4,0.1-1,0.4-1.7,0.2c-0.4-0.1-0.7-0.4-1-0.7c-0.2-0.3-0.3-0.8-0.1-1.3l0.6-1.4l0.7,1.4l0.2,0.3l-1.1-0.3
		c2.2-1.6,4.8-1.7,6.8-2.7c1-0.4,1.9-1.1,2.9-1.9c1-0.7,2-1.4,3.1-2c4.2-2.5,8.8-4,13.3-5.7l3.4-1.2c1.1-0.4,2.2-0.8,2.8-1.5
		c0.3-0.3,0.5-0.7,0.6-1.1c0.1-0.4,0.1-0.9-0.1-1.2c-0.3-0.7-1-0.8-2-0.3c-0.5,0.2-0.9,0.6-1.5,0.9c-0.5,0.3-1.1,0.7-1.7,0.9
		c-1.1,0.5-2.3,0.9-3.5,1.3c-1.1,0.4-2.3,0.7-3.3,1.2c-1.1,0.4-2,1-3,1.7c-1,0.7-2,1.4-3.1,2c-1.1,0.6-2.3,1-3.4,1.3
		c-2.3,0.7-4.6,1.3-6.7,2.3c-0.5,0.3-1,0.6-1.5,0.9c-0.5,0.3-0.9,0.7-1.5,1.1c-0.6,0.4-1.4,0.6-2.1,0.5c-0.7-0.1-1.3-0.4-1.8-0.7
		c-0.5-0.3-1-0.6-1.5-0.7c-0.5-0.2-1-0.2-1.6-0.2c-0.6,0-1.2,0-1.9-0.2c-0.6-0.1-1.2-0.3-1.8-0.5c-1.2-0.5-2.2-1.1-3.3-1.6
		c-1-0.6-2.1-1-3.2-1.4c-2.2-0.7-4.6-1-7-1.4c-2.4-0.4-4.7-1.2-6.9-2.2c-2.2-1.1-4.2-2.4-6-3.9l0.2,0c-2.1,0.8-4.2,1.8-6,3.2
		c-0.9,0.7-1.7,1.5-2.3,2.5c-0.6,0.9-0.9,2.1-0.7,3.2c0.2,1.1,0.8,2.1,1.6,2.9c0.8,0.8,1.7,1.6,2.6,2.2c1.9,1.3,3.9,2.3,6,3.2
		c4.2,1.8,8.6,3.2,13,4.4C107.8,88.5,112.2,89.5,116.7,90.5z M116.7,90.5c-4.5-1-8.9-2-13.3-3.2c-4.4-1.2-8.8-2.6-13-4.4
		c-2.1-0.9-4.2-1.9-6.1-3.2c-0.9-0.6-1.9-1.4-2.6-2.2c-0.8-0.8-1.4-1.9-1.7-3c-0.2-1.2,0.1-2.4,0.7-3.4c0.6-1,1.4-1.8,2.3-2.5
		c1.8-1.4,3.9-2.5,6-3.4l0.1,0l0.1,0.1c1.9,1.4,3.9,2.8,6,3.7c2.1,1,4.4,1.7,6.8,2c2.3,0.4,4.7,0.6,7.1,1.3c1.2,0.4,2.3,0.8,3.4,1.4
		c1.1,0.5,2.1,1.1,3.2,1.5c1.1,0.4,2.1,0.6,3.4,0.5c0.6,0,1.3,0,1.9,0.2c0.7,0.2,1.2,0.5,1.7,0.8c0.5,0.3,1,0.5,1.5,0.6
		c0.5,0.1,0.9,0,1.3-0.3c0.4-0.3,0.9-0.7,1.4-1.1c0.5-0.4,1-0.7,1.6-1c2.2-1.2,4.6-1.8,6.8-2.6c1.1-0.4,2.2-0.8,3.2-1.3
		c1-0.5,1.9-1.2,2.9-1.9c1-0.7,2.1-1.4,3.2-1.9c1.1-0.5,2.3-0.9,3.4-1.3c1.1-0.4,2.2-0.8,3.2-1.3c0.5-0.2,1-0.5,1.5-0.8
		c0.5-0.3,1-0.7,1.6-1c0.6-0.3,1.3-0.6,2.2-0.5c0.9,0.1,1.7,0.7,2,1.5c0.3,0.8,0.4,1.6,0.2,2.3c-0.1,0.7-0.6,1.5-1.1,2
		c-1,1-2.3,1.5-3.4,1.9l-3.4,1.2c-4.5,1.6-9,3.1-13.1,5.5c-1,0.6-2,1.2-2.9,1.9c-1,0.7-2,1.5-3.2,2c-2.4,1-4.8,1.2-6.5,2.5l-0.7,0.5
		l-0.4-0.8l-0.2-0.3l1.3,0c0-0.1,0-0.1,0,0c0,0,0.1,0.1,0.1,0.1c0.1,0.1,0.5,0,0.9-0.2c0.8-0.3,1.6-0.6,2.4-1c1.5-0.8,3-1.8,4.5-2.8
		c3.1-1.9,6.3-3.6,9.6-5c3.3-1.4,6.7-2.7,10.1-3.8l2.5-0.9c0.4-0.1,0.9-0.4,1.5-0.1c0.3,0.1,0.6,0.4,0.6,0.7
		c0.1,0.3,0.1,0.5,0.1,0.7c0.1,1.9-0.8,3.8-2.2,5c-1.5,1.2-3.3,1.6-5,2.1c-1.7,0.5-3.3,1.3-4.8,2.3c-3,1.9-5.2,5-8.4,6.6
		c-3.2,1.7-6.9,2.1-10.1,3.5c-1.6,0.7-3.2,1.8-5,1.8C120.2,91.5,118.4,90.9,116.7,90.5z"/>
</g>
<g>
	<path class="st0" d="M123,81c0.8,0,1.6,0.6,2.1,1.3c0.3,0.3,0.4,0.8,0.6,1.2c0.1,0.2,0.1,0.5,0.1,0.6c0,0.1,0,0,0,0
		c0,0,0.2,0.1,0.4,0.3c0.2,0.2,0.4,0.5,0.5,0.7c0.2,0.5,0.2,1,0.1,1.5c-0.2,0.9-0.8,1.6-1.6,1.9c0.2-0.8,0.3-1.5,0.2-2
		c-0.1-0.3-0.1-0.5-0.3-0.7c-0.1-0.1-0.1-0.1-0.2-0.2c0,0-0.1-0.1-0.4-0.3c-0.1-0.1-0.3-0.3-0.3-0.5c-0.1-0.2-0.1-0.3-0.1-0.5l0-0.5
		c0-0.3-0.1-0.6-0.2-0.9C123.7,82.3,123.4,81.7,123,81z"/>
</g>
<g>
	<path class="st2" d="M90.4,56.1c3.8,3,8.7,4,13.5,4.5c4.8,0.5,9.6,0.7,14.1,2.3c1.4,0.5,2.8,1.2,4.3,1.5c1.5,0.3,3.1,0.3,4.4-0.5
		c0.9-0.5,1.6-1.4,2.6-1.7c0.6-0.1,1.1-0.1,1.7-0.1c3-0.1,5.4-2.5,8.1-3.9c3.4-1.7,7.3-1.9,10.7-3.5c3.2-1.4,5.8-4,9.1-5
		c1,3-0.7,6.4-3.2,8.1c-2.5,1.8-5.6,2.4-8.6,2.9c-3.4,0.6-6.8,1.3-9.9,2.7c-3.5,1.6-6.6,4.1-10.2,5.7c1,0.2,2-0.4,2.9-0.9
		c4.3-2.6,9-4.5,13.8-5.8c5-1.3,10.6-2.1,14-6c1.2,0.8,1.4,2.7,0.8,4c-0.6,1.4-1.8,2.3-3,3.2c-7.6,5.3-16.5,8.3-25.2,11.3
		c-2.7,0.9-5.4,1.8-8.2,1.7c-1.7,0-3.4-0.5-5.1-0.9c-7.4-1.9-14.9-3.7-22.3-5.6c-2.5-0.6-5.2-1.3-7.7-0.7"/>
	<path class="st0" d="M90.4,56.1c2.5,1.9,5.4,2.9,8.4,3.5c3,0.6,6,0.8,9.1,1.1c3.1,0.2,6.1,0.6,9.1,1.4c1.5,0.4,2.9,1.1,4.3,1.6
		c1.4,0.5,2.9,0.7,4.2,0.3c0.7-0.2,1.2-0.6,1.8-1.1c0.6-0.5,1.3-1.1,2.3-1.2c0.4-0.1,0.9,0,1.2,0c0.4,0,0.7,0,1-0.1
		c0.7-0.1,1.4-0.4,2-0.7c1.3-0.7,2.5-1.6,3.9-2.4c1.3-0.9,2.8-1.5,4.3-1.9c3-0.9,6-1.4,8.6-2.8c2.6-1.4,5-3.5,8.1-4.5l0.7-0.2
		l0.2,0.7c0.6,1.8,0.3,3.9-0.5,5.5c-0.8,1.7-2.1,3.1-3.7,4c-3.1,1.9-6.7,2.3-9.9,3c-3.3,0.7-6.5,1.5-9.4,3c-2.9,1.5-5.6,3.6-8.8,5.1
		l-0.2-1.6c0.8,0.2,2-0.6,3.3-1.3c1.2-0.7,2.5-1.4,3.8-2c2.6-1.2,5.3-2.2,8-3c2.8-0.8,5.5-1.3,8.1-2.1c2.6-0.8,5.1-2,6.8-4l0.4-0.5
		l0.6,0.4c1,0.6,1.4,1.8,1.5,2.7c0.1,1-0.2,2.1-0.7,2.9c-1.1,1.7-2.6,2.6-4,3.5c-2.9,1.9-5.9,3.5-9,4.8c-3.1,1.4-6.3,2.6-9.5,3.7
		l-4.8,1.6c-1.6,0.5-3.2,1.1-4.9,1.5c-1.7,0.4-3.4,0.7-5.2,0.5c-1.7-0.1-3.4-0.6-5-1l-9.8-2.6l-9.8-2.6c-1.6-0.4-3.3-0.9-4.9-1.2
		c-1.6-0.3-3.3-0.5-5-0.2c1.6-0.4,3.4-0.3,5,0c1.7,0.3,3.3,0.7,5,1.1l9.9,2.3l9.9,2.3c1.6,0.4,3.3,0.8,4.9,0.9
		c1.6,0.1,3.3-0.2,4.8-0.6c1.6-0.4,3.2-1,4.8-1.6l4.8-1.7c3.2-1.2,6.3-2.4,9.3-3.8c3-1.4,6-3,8.8-4.8c1.4-0.9,2.8-1.8,3.5-3.1
		c0.4-0.6,0.5-1.3,0.5-2c0-0.7-0.4-1.3-0.8-1.6l1-0.1c-2,2.3-4.8,3.6-7.5,4.5c-2.7,0.9-5.5,1.4-8.2,2.1c-2.7,0.8-5.3,1.7-7.8,2.9
		c-1.3,0.6-2.5,1.2-3.7,1.9c-0.6,0.3-1.2,0.7-1.9,1.1c-0.7,0.3-1.6,0.7-2.6,0.5l-2.6-0.5l2.4-1.1c3-1.4,5.7-3.4,8.8-5
		c3.1-1.7,6.5-2.5,9.8-3.2c3.3-0.7,6.7-1.1,9.4-2.7c1.3-0.8,2.4-2,3.1-3.3c0.7-1.4,0.9-2.9,0.5-4.3l0.9,0.5
		c-2.8,0.8-5.1,2.9-7.9,4.4c-2.8,1.6-6,2-8.9,2.8c-1.4,0.4-2.8,0.9-4.1,1.7c-1.3,0.8-2.5,1.7-4,2.4c-0.7,0.3-1.5,0.6-2.3,0.8
		c-0.4,0.1-0.8,0.1-1.2,0.1c-0.4,0-0.8,0-1.1,0c-0.6,0-1.1,0.4-1.7,0.9c-0.6,0.5-1.3,1-2.1,1.2c-1.6,0.5-3.3,0.2-4.8-0.4
		c-1.5-0.5-2.8-1.2-4.3-1.6c-2.9-0.9-5.9-1.3-8.9-1.7c-3-0.3-6.1-0.6-9.1-1.3C95.7,59.2,92.8,58,90.4,56.1z"/>
</g>
<g>
	<path class="st0" d="M128.2,71.7c-0.1,0.1-0.3,0.2-0.5,0.2c-0.2,0-0.4-0.2-0.5-0.3c-0.2-0.3-0.4-0.6-0.5-0.8
		c-0.3-0.6-0.6-1.1-0.7-1.8c-0.1-0.3-0.1-0.8-0.1-1c0-0.3,0-0.1-0.1-0.2c-0.2-0.1-0.7-0.3-1.2-0.3c-1.2,0-2.4-0.1-3.6-0.3
		c-1.2-0.2-2.4-0.4-3.6-0.8c1.2-0.3,2.5-0.5,3.7-0.6c1.2-0.1,2.4-0.1,3.7-0.1c0.7,0,1.5,0.1,2.2,0.8c0.2,0.2,0.4,0.4,0.4,0.7
		c0.1,0.3,0.1,0.5,0.1,0.7c0,0.4-0.1,0.5-0.1,0.8c0,0.5,0.1,1.1,0.2,1.7c0,0.3,0.1,0.6,0.1,0.9c0,0.1,0.1,0.2,0.2,0.3
		C127.9,71.8,128,71.8,128.2,71.7z"/>
</g>
<g>
	<path class="st0" d="M158,50.3c1.4-0.8,2.4-2.6,1.9-4c-0.5-1.5-2.3-0.5-3.7,0.2c-1.4,0.8-2.7,1.9-4.2,2.8c-0.7,0.5-1.6,0.9-2.4,1.2
		c-0.8,0.3-1.7,0.5-2.5,0.8c-1.6,0.4-3.2,0.8-4.7,1.4c-1.5,0.6-2.9,1.5-4.6,2.1c-1.6,0.7-3.3,1-4.8,1.5c-0.8,0.3-1.5,0.6-2.1,1
		c-0.3,0.2-0.6,0.5-1,0.8c-0.3,0.3-0.8,0.6-1.4,0.6l-0.3,0l-0.1-0.3l-0.5-1.7l-0.4-1.2l0.8,0.9c0.9,1,0.9,2.5,0.1,3.4
		c0.6-1,0.3-2.4-0.5-3l0.4-0.3l0.7,1.6l-0.4-0.3c0.6-0.1,1.1-0.8,1.8-1.4c0.7-0.6,1.5-1,2.3-1.4c1.6-0.7,3.2-1.1,4.7-1.8
		c1.5-0.7,2.9-1.5,4.5-2.2c1.6-0.7,3.3-1.1,4.9-1.5c1.6-0.4,3.1-0.8,4.5-1.6c1.4-0.8,2.8-1.8,4.4-2.5c0.8-0.4,1.6-0.7,2.5-0.8
		c0.5-0.1,1-0.1,1.5,0.2c0.5,0.3,0.8,0.8,0.9,1.3c0.2,1-0.1,1.9-0.6,2.6C159.5,49.4,158.8,50,158,50.3z"/>
</g>
<g>
	<path class="st0" d="M158.8,45.4c0.3-0.7,0.7-1.3,0.8-2.1c0.1-0.7-0.2-1.5-0.9-1.8c-0.6-0.3-1.4,0-2,0.4l-1.9,1.2
		c-2.6,1.5-5.2,3-7.9,4.3c-5.4,2.6-11,4.8-16.6,7c-0.7,0.3-1.4,0.6-2.2,0.8c-0.8,0.2-1.7,0.3-2.5,0.2c-1.7-0.2-3-1-4.4-1.2
		c-2.8-0.6-5.7,0.1-8.8,0c-3.1,0-6.1-0.6-9-0.7c-2.9-0.1-5.8,0.4-8,2.1c-0.3,0.2-0.4,0.4-0.5,0.5c-0.1,0.2-0.1,0.3-0.1,0.5
		c0,0.2,0.2,0.4,0.3,0.6c0.2,0.2,0.4,0.3,0.6,0.4c0.5,0.2,1.2,0.3,2,0.4l2.2,0.2l4.5,0.5c1.5,0.2,3,0.3,4.5,0.6
		c0.8,0.2,1.5,0.4,2.3,0.7c0.7,0.3,1.4,0.7,2,1c1.2,0.7,2.6,0.9,4.1,1.1c1.5,0.2,3,0.4,4.5,0.7c1.5,0.3,2.9,0.6,4.3,0.7
		c2.9,0.2,5.7-0.8,8.4-1.9l8.3-3.4c2.8-1.1,5.5-2.2,8.1-3.7c1.3-0.7,2.5-1.6,3.7-2.5c1.2-0.9,2.3-1.9,3.6-2.6
		c-1.3,0.8-2.3,1.8-3.5,2.8c-1.1,1-2.4,1.9-3.6,2.7c-2.6,1.6-5.3,2.8-8,4.1l-8.2,3.7c-1.4,0.6-2.8,1.2-4.3,1.6
		c-1.5,0.4-3.1,0.7-4.6,0.6c-3.1-0.1-6-1-8.9-1.3c-1.5-0.2-3.1-0.4-4.6-1.2c-0.7-0.3-1.3-0.7-2-1c-0.6-0.3-1.3-0.5-2-0.6
		c-1.4-0.3-2.9-0.4-4.4-0.5l-4.5-0.5l-2.2-0.2c-0.7-0.1-1.5-0.1-2.4-0.5c-0.4-0.2-0.9-0.4-1.2-0.8c-0.4-0.4-0.6-0.8-0.8-1.4
		c-0.1-0.5-0.1-1.2,0.2-1.7c0.3-0.5,0.7-0.8,1-1.1c1.3-1,2.8-1.6,4.4-2c1.6-0.4,3.1-0.4,4.7-0.4c3.1,0.1,6,0.7,8.9,0.8
		c2.9,0.1,5.9-0.5,9.1,0.1c1.6,0.3,2.9,1.1,4.3,1.3c1.3,0.3,2.6-0.2,4-0.8c5.6-2,11.2-4.1,16.7-6.5c2.7-1.2,5.4-2.5,8-3.9l2-1.1
		c0.7-0.3,1.5-0.7,2.3-0.3c0.8,0.4,1,1.3,0.9,2C159.6,44.1,159.2,44.7,158.8,45.4z"/>
</g>
<g>
	<path class="st0" d="M158.7,41.7c0.3-0.6,0.6-1.4,0.4-2c-0.2-0.6-1-0.5-1.6-0.3c-1.4,0.5-2.8,0.9-4.2,1.4c-2.8,1-5.5,2-8.2,3.2
		c-2.7,1.1-5.4,2.3-8,3.6c-1.3,0.6-2.7,1.3-4.3,1.7c-1.5,0.4-3.2,0.5-4.7,0.1l0.7-0.4c-0.3,0.6-0.4,1.4-0.4,2.1l-0.7-0.4
		c2.2-0.8,4.4-1.7,6.6-2.4c-2,1.2-4.1,2.2-6.2,3.3l-0.6,0.3l-0.1-0.7c-0.1-0.9-0.1-1.8,0.2-2.6l0.2-0.5l0.5,0.1
		c1.3,0.3,2.7,0.1,4-0.3c1.3-0.4,2.6-1.1,3.9-1.7c2.6-1.4,5.4-2.6,8.1-3.7c2.8-1.1,5.6-2,8.5-2.7c1.4-0.4,2.9-0.7,4.4-1
		c0.4-0.1,0.8-0.1,1.2,0c0.4,0.1,0.8,0.5,0.9,0.9C159.6,40.5,159.1,41.1,158.7,41.7z"/>
</g>
<g>
	<path class="st0" d="M159.2,39.8c0.7-0.3,1-0.9,1.4-1.5c0.3-0.6,0.5-1.3,0.2-1.9c-0.3-0.6-0.8-1-1.4-1.2c-0.6-0.3-1.3-0.3-1.9-0.3
		c-2.7,0.1-5.2,1.7-7.7,2.9c-2.6,1.3-5.3,2.2-8.1,3c-1.4,0.4-2.6,0.8-3.8,1.5c-1.2,0.6-2.4,1.4-3.6,2.2c-1.2,0.7-2.6,1.5-4.1,1.8
		c-0.8,0.2-1.6,0.2-2.4,0.2c-0.8-0.1-1.5-0.3-2.2-0.5c-1.4-0.4-2.7-0.9-4-1.2c-1.3-0.3-2.7-0.4-4.1-0.5l-8.5-0.5
		c-1.4-0.1-2.8,0-3.8,0.9c-1,0.9-1.3,2.4-1.4,3.8c-0.1-1.4,0-3,1-4.1c0.5-0.6,1.2-1,1.9-1.2c0.7-0.2,1.5-0.3,2.2-0.3
		c2.9,0,5.7-0.1,8.5,0c1.4,0,2.9,0.1,4.4,0.3c1.5,0.2,2.9,0.7,4.2,1.1c1.3,0.4,2.6,0.5,3.8,0.2c1.2-0.3,2.4-0.9,3.6-1.6
		c1.2-0.7,2.4-1.5,3.7-2.2c1.3-0.7,2.8-1.2,4.1-1.6c2.8-0.7,5.4-1.6,8-2.7c1.3-0.5,2.6-1.2,3.9-1.7c1.4-0.5,2.8-0.9,4.3-0.8
		c0.7,0,1.5,0.2,2.2,0.6c0.7,0.4,1.3,0.9,1.6,1.7c0.3,0.8,0,1.6-0.4,2.2C160.4,39,159.9,39.6,159.2,39.8z"/>
</g>
<g>
	<path class="st2" d="M91.6,76.9c0.3,0.2,3.3,1,3.6,1c0.9,0.1,1.4-1.9,1.8-2.8c3.3-8,9.6-14.2,13.3-22c1.1-2.3,2-4.6,3.2-6.9
		c1.6-3.1,3.7-5.8,5.9-8.5c3.4-4.3,7.3-8.7,12.5-9.8c3.6-0.7,7.4,0.3,10.9,1.4c6.7,2,12.3,4.8,19,6.8c0.5-2.3-0.2-5-0.9-7.1
		c-0.4-1.2-0.8-2.5-1.5-3.6c-1.8-3-5.5-7.1-8.5-5.5c-2.4,1.3-6.7,1.3-9.9,1c-3.8-0.3-7-2.9-10.8-2.7c-11.3,0.5-22.7,1-33.5,4.4
		c-3.4,1.1-6.7,2.4-9.6,4.6s-8,4.5-9.4,7.8c-1.8,4.1,0.6,8.8,0.7,10.7c0.1,3.9,0.7,12.4,0.6,14C78,73.3,85.9,73.8,91.6,76.9z"/>
	<path class="st0" d="M91.6,76.8c0.9,0.3,1.9,0.6,2.9,0.9c0.2,0.1,0.5,0.1,0.7,0.2c0.2,0,0.4-0.2,0.6-0.4c0.3-0.4,0.5-0.9,0.7-1.4
		c0.7-1.9,1.6-3.8,2.6-5.6c2-3.6,4.4-7,6.6-10.4c1.1-1.7,2.2-3.5,3.1-5.3c1-1.8,1.7-3.7,2.5-5.6c0.8-1.9,1.7-3.8,2.8-5.6
		c1.1-1.8,2.3-3.5,3.6-5.1c2.5-3.2,5.1-6.6,8.7-9c1.8-1.2,3.8-2.1,6-2.3c2.1-0.3,4.3,0,6.3,0.4c4,1,7.9,2.4,11.7,3.9
		c3.8,1.5,7.6,3.1,11.5,4.3l-0.3,0.2c0.3-1.5,0.1-3-0.2-4.5c-0.3-1.5-0.8-3-1.4-4.4c-0.6-1.4-1.4-2.7-2.4-3.8
		c-1-1.2-2.1-2.2-3.4-2.9c-0.6-0.3-1.3-0.5-2-0.4c-0.3,0-0.6,0.1-0.9,0.3c-0.3,0.2-0.7,0.4-1.1,0.5c-1.5,0.5-3.1,0.7-4.7,0.8
		c-1.6,0.1-3.1,0-4.7-0.1c-1.7-0.2-3.2-0.7-4.6-1.3c-1.5-0.5-2.9-1.1-4.3-1.2c-0.7-0.1-1.4-0.1-2.2,0l-2.3,0.1
		c-3.1,0.2-6.2,0.3-9.3,0.6c-6.2,0.5-12.3,1.4-18.2,3c-3,0.8-5.9,1.7-8.6,3.1c-1.4,0.7-2.6,1.4-3.8,2.4c-1.3,1-2.7,1.7-3.9,2.6
		c-2.5,1.7-5.1,3.4-5.5,6.3c-0.3,1.4-0.1,2.9,0.2,4.3c0.1,0.7,0.3,1.5,0.5,2.2c0.1,0.4,0.2,0.8,0.3,1.2c0,0.2,0.1,0.4,0.1,0.6
		c0,0.2,0,0.4,0,0.6l0.2,9.3c0,1.6,0.1,3.1,0,4.7c-0.1,1.5-0.1,3.1,0,4.6c0.2,1.5,0.5,3,1.2,4.4c0.7,1.4,1.7,2.6,2.9,3.5
		C85.8,74.5,88.9,75.3,91.6,76.8z M91.5,77c-2.7-1.5-5.8-2.3-8.3-4.2c-1.3-0.9-2.3-2.1-3.1-3.5c-0.7-1.4-1.2-2.9-1.4-4.5
		c-0.2-1.6-0.3-3.1-0.2-4.7c0-1.5-0.1-3.1-0.2-4.6l-0.6-9.3c0-0.2,0-0.4,0-0.5c0-0.2-0.1-0.3-0.1-0.5L77.2,44
		c-0.2-0.7-0.4-1.5-0.6-2.3c-0.3-1.6-0.6-3.2-0.3-4.9c0.1-0.8,0.4-1.7,0.8-2.5c0.4-0.8,0.9-1.5,1.5-2.1c1.2-1.2,2.5-2.1,3.8-3
		c1.3-0.9,2.6-1.7,3.8-2.5c1.2-1,2.6-1.9,4-2.6c2.9-1.5,5.9-2.4,8.9-3.2c6.1-1.6,12.3-2.4,18.5-2.8c3.1-0.2,6.2-0.4,9.3-0.5l2.3-0.1
		c0.7,0,1.6-0.1,2.5,0.1c1.7,0.2,3.1,0.9,4.6,1.4c1.4,0.6,2.8,1.1,4.3,1.3c1.5,0.2,3,0.3,4.6,0.2c1.5,0,3-0.2,4.4-0.6
		c0.4-0.1,0.7-0.3,1-0.4c0.4-0.2,0.8-0.3,1.3-0.4c0.9-0.1,1.7,0.2,2.5,0.6c1.5,0.8,2.6,2,3.6,3.2c1,1.2,1.9,2.6,2.5,4
		c0.6,1.5,1.1,2.9,1.4,4.5c0.3,1.5,0.5,3.1,0.2,4.7l-0.1,0.3l-0.3-0.1c-4-1.1-7.8-2.7-11.6-4.1c-3.8-1.5-7.7-2.7-11.7-3.5
		c-2-0.4-4-0.6-5.9-0.2c-1.9,0.3-3.7,1.2-5.3,2.3c-3.2,2.3-5.8,5.5-8.3,8.7c-1.3,1.6-2.5,3.2-3.6,4.9c-1.1,1.7-2,3.5-2.8,5.3
		c-0.8,1.9-1.7,3.8-2.8,5.5c-1,1.8-2.2,3.5-3.4,5.2c-2.4,3.4-4.9,6.6-7,10.1c-1,1.8-2,3.6-2.7,5.5c-0.2,0.5-0.4,1-0.7,1.4
		c-0.2,0.2-0.4,0.4-0.7,0.4c-0.3,0-0.5-0.1-0.8-0.2C93.5,77.6,92.5,77.4,91.5,77z"/>
</g>
<g>
	<path class="st2" d="M151.9,11.1c0.6,1.7-0.7,8.4-2.4,9c-3.7,1.2-6.8,0.9-10.7,0.7c-6.9-0.4-13.8,1.1-20.6,2.7
		c-3,0.7-8.5-1.8-15.3,0.7c-10.4,3.7-10.9,1-17,4c-1.5,0.8-5.4,2.5-7.1,2.7c-3.2,0.3-4.7-4.5-7.2-5.9"/>
	<path class="st0" d="M151.9,11.1c0.3,0.9,0.2,1.9,0.1,2.9c-0.1,1-0.3,1.9-0.5,2.8c-0.2,0.9-0.5,1.9-1.1,2.7
		c-0.1,0.2-0.3,0.4-0.5,0.6c-0.1,0.1-0.2,0.1-0.4,0.2l-0.3,0.1c-0.5,0.2-0.9,0.3-1.4,0.4c-3.8,0.9-7.7,0.2-11.5,0.2
		c-3.8,0-7.6,0.6-11.3,1.3c-1.9,0.4-3.7,0.8-5.6,1.3c-0.5,0.1-0.9,0.2-1.4,0.3c-0.5,0.1-1,0.1-1.5,0.1c-1,0-1.9-0.1-2.9-0.2
		c-1.9-0.2-3.8-0.4-5.6-0.3c-1.9,0.1-3.7,0.5-5.5,1.2c-1.8,0.6-3.7,1.2-5.6,1.6c-1.9,0.4-3.8,0.5-5.7,0.6c-1.9,0.1-3.7,0.7-5.4,1.6
		c-1.7,0.8-3.5,1.6-5.3,2.2c-0.5,0.1-0.9,0.3-1.4,0.4c-0.5,0.1-1,0.1-1.5-0.1c-1-0.3-1.7-1-2.3-1.7c-1.3-1.4-2.1-3.2-3.7-4.3
		c1.6,1,2.6,2.8,3.9,4.2c0.6,0.7,1.4,1.3,2.3,1.5c0.9,0.2,1.8-0.1,2.7-0.4c1.8-0.6,3.5-1.4,5.2-2.3c1.7-0.9,3.6-1.6,5.5-1.8
		c1.9-0.2,3.8-0.3,5.6-0.7c1.8-0.4,3.7-0.9,5.4-1.6c1.8-0.7,3.7-1.1,5.7-1.2c1.9-0.1,3.9,0,5.8,0.2c0.9,0.1,1.9,0.2,2.8,0.3
		c0.5,0,0.9,0,1.3-0.1c0.4-0.1,0.9-0.2,1.4-0.3c1.9-0.4,3.7-0.9,5.6-1.2c3.8-0.7,7.6-1.3,11.4-1.2c3.8,0,7.6,0.8,11.4,0
		c0.5-0.1,0.9-0.2,1.4-0.3l0.3-0.1l0.3-0.1c0.2-0.1,0.3-0.3,0.4-0.5c0.5-0.8,0.8-1.7,1.1-2.6c0.3-0.9,0.5-1.8,0.6-2.8
		C152,13,152.1,12.1,151.9,11.1z"/>
</g>
<path class="st0" d="M136,28.4c3.3,1.6,10.2,4.2,13.5,5.8c3.6,1.8,7.4,3.6,11.4,3.8c0.4,0,0.7,0,1-0.2c0.5-0.3,0.7-1.2,0.4-1.7
	c-0.3-0.6-0.8-1-1.3-1.3c-1.8-1.1-3.9-1.5-6-1.8c-5.4-1-12.1-4-17.5-5"/>
<g>
	<path class="st2" d="M152,11.8c0,2.9-4,3.4-5.5,3.8c-2.9,0.8-6.4,2-9.5,2c-8.1-0.2-16.4-0.1-24.4,0.6c-1.8,0.2-3.7,0.4-5.4,1
		c-1.6,0.6-3.2,1.4-4.7,2.1c-7.8,3.5-16.5,3.7-25,4.3c-1.7,0.1-3.2-1.4-4.8-0.6c-1.4-2.5-1.9-3.9-0.9-6.6"/>
	<path class="st0" d="M152,11.8c0.3,0.8,0,2-0.8,2.6c-0.7,0.7-1.6,1.2-2.4,1.5c-0.9,0.3-1.7,0.5-2.5,0.7l-2.5,0.7
		c-1.7,0.5-3.4,0.9-5.2,1.1c-0.9,0.1-1.8,0.1-2.7,0l-2.6,0c-6.9-0.1-13.7,0-20.5,0.6c-1.7,0.1-3.4,0.3-4.9,0.8
		c-1.6,0.5-3.1,1.2-4.7,2c-3.2,1.4-6.6,2.4-10,2.9c-3.4,0.6-6.9,0.8-10.3,1l-5.2,0.3c-1.9,0.2-3.4-1.4-4.9-0.7l-0.2,0.1l-0.1-0.2
		c-0.5-1-1.1-2.1-1.3-3.3c-0.2-1.2,0.1-2.4,0.6-3.4c-0.4,1.1-0.6,2.3-0.4,3.4c0.2,1.1,0.8,2.1,1.4,3.1l-0.3-0.1
		c0.9-0.5,1.9-0.2,2.7,0.1c0.8,0.3,1.6,0.5,2.4,0.4l5.1-0.4c3.4-0.3,6.8-0.6,10.2-1.2c3.3-0.6,6.6-1.6,9.7-3
		c1.5-0.7,3.1-1.6,4.8-2.1c1.7-0.5,3.5-0.8,5.2-1c6.9-0.6,13.8-0.9,20.7-0.8l2.6,0c0.9,0,1.7,0,2.5,0c1.6-0.2,3.3-0.6,4.9-1l2.5-0.7
		c0.9-0.3,1.7-0.4,2.5-0.6C149.9,13.9,151.5,13.6,152,11.8z"/>
</g>
<path class="st0" d="M22.2,102.5c2.4,0.7,4,3.1,6.2,4.5c1.6,1,3.4,1.5,5.3,2c5.9,1.7,11.7,4,17.3,6.8c3.8,1.9,7.5,4.2,11.6,5.6
	c3.8,1.4,7.7,2,11.6,2.7c2,0.3,4,0.7,6,0.1c1.5-0.4,2.8-1.3,4-2.3c4.9-3.8,9-8.8,11.8-14.4"/>
<g>
	<path class="st2" d="M26.6,85.4c-2.7,1.8-6.7,1.3-8.7,3.9c-1.2,1.6-1.2,3.8-0.7,5.7c1.1,4.2,4.6,7.6,8.7,8.4
		c1.9,0.4,3.9,0.3,5.8,0.7c3.2,0.7,6,2.7,8.9,4.4c9.9,5.7,21.7,6.9,31.6,12.5c1.9,1.1,3.9,2.3,6,1.8c1.3-0.3,2.4-1.3,3.5-2.3
		c10.8-9.9,23.3-18,33.4-28.7c0.7-0.7,1.3-1.5,1.7-2.4c1.1-2.7-1.5-6-4.3-5.5"/>
	<path class="st0" d="M26.6,85.4c-1.2,0.9-2.7,1.3-4.2,1.7C21,87.5,19.5,88,18.5,89c-1,1-1.4,2.5-1.3,3.9c0.1,1.4,0.6,2.9,1.2,4.1
		c1.4,2.6,3.7,4.6,6.4,5.5c1.3,0.5,2.8,0.5,4.3,0.6c1.5,0.1,3.1,0.3,4.6,0.8c3,1.1,5.4,2.9,8,4.3c2.6,1.4,5.3,2.5,8.2,3.5
		c5.6,2,11.5,3.5,17.1,5.8c1.4,0.6,2.8,1.2,4.2,1.9c1.4,0.7,2.7,1.5,3.9,2.1c1.3,0.6,2.6,0.8,3.7,0.2c1.1-0.5,2.2-1.7,3.3-2.6
		c4.5-4,9.3-7.7,14-11.4c4.7-3.7,9.5-7.4,13.9-11.4c1.1-1,2.2-2,3.3-3.1c1-1.1,2.2-2.1,3-3.3c1.7-2.4-0.7-6.4-3.8-6.1
		c3.1-0.6,5.9,3.4,4.2,6.3c-0.8,1.4-1.9,2.4-2.9,3.5c-1,1.1-2.1,2.2-3.2,3.2c-4.3,4.2-9,8-13.7,11.8c-4.6,3.8-9.4,7.5-13.8,11.6
		c-1.1,1-2.1,2.1-3.7,2.9c-0.8,0.4-1.7,0.6-2.6,0.5c-0.9-0.1-1.7-0.3-2.4-0.6c-1.5-0.7-2.7-1.5-4-2.1c-1.3-0.7-2.7-1.3-4-1.8
		c-5.5-2.3-11.3-3.8-17-5.8c-2.8-1-5.7-2.2-8.3-3.7c-2.7-1.5-5.1-3.3-7.8-4.4c-1.3-0.5-2.7-0.7-4.2-0.9c-1.5-0.1-3.1-0.2-4.6-0.8
		c-3-1.1-5.4-3.4-6.8-6.1c-0.7-1.4-1.1-2.9-1.1-4.5c0-1.5,0.4-3.2,1.6-4.3c1.2-1.1,2.7-1.5,4.2-1.8C23.8,86.5,25.3,86.2,26.6,85.4z"
		/>
</g>
<g>
	<path class="st0" d="M75.8,115.4c-0.8,0.4-1.8,0.3-2.6-0.1c-0.8-0.3-1.6-0.9-2.3-1.2c-0.7-0.4-1.6-0.6-2.4-1
		c-0.8-0.4-1.5-1-2.3-1.5c-1.4-1-2.9-1.9-4.4-2.7c-0.7-0.4-1.5-0.9-2.2-1.3l-1.1-0.6c-0.4-0.2-0.7-0.3-1.1-0.4
		c-1.6-0.5-3.4-0.9-5-1.6c-1.7-0.6-3.3-1.5-4.8-2.5c-1.5-1-2.8-1.9-4.4-2.6c-1.6-0.7-3.2-1.3-4.8-2c1.7,0.4,3.4,0.8,5.1,1.2
		c0.8,0.2,1.7,0.6,2.5,1c0.8,0.4,1.6,0.8,2.3,1.3c2.9,1.8,6.2,2.6,9.6,3.5c0.4,0.1,0.9,0.3,1.3,0.5c0.4,0.2,0.8,0.4,1.2,0.7
		c0.8,0.5,1.5,0.9,2.3,1.4c1.5,1,3,1.9,4.3,3.1c0.7,0.6,1.3,1.1,2,1.6c0.7,0.4,1.5,0.8,2.3,1.3c0.8,0.5,1.4,1.1,2.1,1.5
		C74.1,115.3,75,115.6,75.8,115.4z"/>
</g>
<g>
	<path class="st0" d="M37.6,97c-3.4-1.3-6.5-2.9-9.8-4.2c-1.6-0.7-3.3-1.3-4.9-1.7c-0.8-0.2-1.6-0.3-2.1,0c-0.3,0.1-0.5,0.3-0.6,0.5
		c-0.1,0.2-0.1,0.4,0,0.7c0.1,0.3,0.3,0.6,0.5,1l0.7,1.1c0.5,0.7,0.9,1.5,1.5,2.1c0.3,0.3,0.6,0.6,0.9,0.9c0.3,0.3,0.6,0.4,1,0.6
		c0.8,0.3,1.7,0.5,2.5,0.7c3.5,0.9,6.9,2,10,3.8c-3.3-1.4-6.7-2.3-10.2-3c-0.9-0.2-1.7-0.3-2.6-0.6c-0.2-0.1-0.5-0.1-0.7-0.3
		c-0.2-0.1-0.5-0.3-0.7-0.4c-0.4-0.3-0.8-0.6-1.1-0.9c-0.7-0.7-1.3-1.4-1.8-2.1l-0.8-1.1c-0.2-0.4-0.5-0.8-0.8-1.3
		c-0.2-0.5-0.3-1.3,0-1.9c0.3-0.6,0.8-1,1.3-1.3c1.2-0.5,2.3-0.3,3.2-0.1c1.8,0.4,3.5,1.1,5.1,1.9C31.7,93,34.7,94.9,37.6,97z"/>
</g>
<g>
	<path class="st0" d="M26.6,91.6c-1.3,0.3-2.6,0.5-3.8,0.6l-0.5,0c-0.2,0-0.2,0.1-0.1,0c0.1-0.1,0.1-0.1,0.1,0c0,0.1,0,0.1,0,0.2
		c0,0.3,0.3,0.8,0.7,1.2c0.4,0.5,0.8,1,1.2,1.3c0.3,0.3,0.9,0.5,1.5,1c1.4,1,1.3,2.5,2.7,2.7c-0.3,0.2-0.7,0.1-1,0
		c-0.3-0.1-0.7-0.3-0.9-0.5c-0.5-0.5-0.9-0.9-1.4-1.1c-0.5-0.2-1.1-0.4-1.8-0.8c-0.6-0.5-1.1-1-1.5-1.5c-0.4-0.6-0.9-1.2-1-2.2
		c0-0.2,0-0.5,0.1-0.7c0.1-0.2,0.2-0.6,0.6-0.8c0.4-0.2,0.7-0.1,0.9-0.1l0.5,0.1C24,91.1,25.3,91.3,26.6,91.6z"/>
</g>
<g>
	<path class="st0" d="M30.3,99.2c0.8,0.8,1.9,0.9,2.9,1.2c1.1,0.3,2.1,0.7,3.1,1.1c2,0.9,3.9,1.8,5.9,2.8c1.9,0.9,3.9,1.9,5.8,2.9
		c0.9,0.5,1.9,1,2.8,1.4c0.9,0.4,1.9,0.7,3,1c2,0.5,4.2,1.1,6.2,2c2,0.9,3.9,1.9,5.8,3c1.9,1.1,3.7,2.2,5.5,3.3
		c1.8,1.1,3.6,2.3,5.8,2.7c-1.1,0-2.2-0.3-3.2-0.7c-1-0.4-2-0.8-3-1.3c-2-0.9-3.9-1.9-5.8-2.9c-1.9-0.9-3.8-1.9-5.8-2.7
		c-1-0.4-2-0.7-3-1c-1-0.3-2-0.5-3.1-0.8c-1-0.3-2.1-0.6-3.2-1.1c-1-0.5-2-1-2.9-1.5c-1.9-1.1-3.8-2.1-5.6-3.1
		c-1.9-1-3.7-2.1-5.6-3.2c-0.9-0.5-1.9-1-2.9-1.4c-0.5-0.2-1-0.4-1.5-0.6C31.1,100,30.6,99.7,30.3,99.2z"/>
</g>
<g>
	<path class="st0" d="M53.4,11.4c-1.7,0.4-3.3,0.7-5,1c-1.7,0.3-3.3,0.5-4.9,1c-1.5,0.5-3,1.3-4.6,2c-1.6,0.7-3.2,1.3-4.8,1.8
		c-1.6,0.5-3.4,0.8-5,1.1c-1.6,0.3-3.2,0.7-4.6,1.4c-2.8,1.5-4.5,4.8-7.4,6.6c1.2-1.2,2.1-2.6,3.1-4c1-1.4,2.1-2.8,3.6-3.8
		c1.5-1,3.3-1.5,4.9-1.9c1.7-0.4,3.3-0.7,4.9-1.2c1.6-0.5,3.2-1,4.7-1.6c1.5-0.6,3.1-1.4,4.8-1.8c1.7-0.4,3.5-0.5,5.1-0.6
		C50.1,11.5,51.7,11.4,53.4,11.4z"/>
</g>
<g>
	<path class="st0" d="M21.3,21.6c-2,0.1-4.1,0.2-6.1,0.3c-2,0.1-4.1,0.1-6,0.1c-2,0.1-3.8,0.5-5.8,1.1L2,23.5
		c-0.2,0.1-0.3,0.1-0.3,0.2c0,0,0-0.1,0-0.1c0,0.1,0.1,0.3,0.2,0.5l0.3,0.7l0.6,1.4c1.7,3.6,3.5,7.2,5.9,10.4c1.2,1.6,2.6,3,4.1,4.3
		c0.8,0.7,1.5,1.4,2,2.4c0.5,0.9,0.6,2.1,0,3c0.4-1,0.1-2-0.4-2.8c-0.5-0.8-1.3-1.4-2.1-2C10.6,40.4,9,39,7.7,37.4
		c-1.4-1.6-2.5-3.3-3.6-5c-1-1.8-2-3.6-2.8-5.5l-0.6-1.4l-0.3-0.7C0.3,24.6,0.2,24.4,0,24c-0.1-0.4,0-1.2,0.4-1.5
		c0.4-0.3,0.7-0.5,1-0.6c0.5-0.2,1-0.3,1.5-0.4c2-0.5,4.1-1,6.2-0.9C13.2,20.8,17.2,21.2,21.3,21.6z"/>
</g>
<g>
	<path class="st0" d="M13.8,42.9c-0.1,3.9-0.2,7.9,0.4,11.7c0.3,1.9,0.8,3.7,1.7,5.4c0.8,1.7,2,3.2,3,5.1c0.5,0.9,0.9,1.9,1.1,2.9
		c0.3,1,0.5,1.9,0.8,2.7c0.3,0.8,0.8,1.6,1.4,2.4c0.6,0.9,1,1.9,1.2,3c0.4,2.1,0.2,4.1,0,6.1c-0.3,2-0.7,3.9-1.4,5.8
		c0.3-2,0.5-3.9,0.5-5.9c0-1.9,0-3.9-0.4-5.7c-0.2-0.9-0.6-1.7-1.1-2.5c-0.5-0.8-1.2-1.6-1.6-2.6c-0.4-1-0.7-2-0.9-2.9
		c-0.3-0.9-0.6-1.7-1-2.6c-0.8-1.7-2.1-3.3-2.9-5.1c-0.9-1.9-1.4-3.9-1.6-5.9C12.5,50.7,13.1,46.8,13.8,42.9z"/>
</g>
<g>
	<path class="st0" d="M15.5,39.3c0.8,0.6,1.6,1.2,2.3,1.8c0.7,0.6,1.5,1.4,2.1,2.2c0.6,0.9,1,2,1,3.1c0,1.1-0.2,1.9-0.1,2.9
		c-0.8-0.8-0.9-1.9-1.2-2.8c-0.3-0.9-0.6-1.6-1.1-2.3c-0.5-0.7-1.1-1.5-1.6-2.3C16.3,41.2,15.8,40.3,15.5,39.3z"/>
</g>
<g>
	<path class="st2" d="M78,73.3c1,1.8,3,2.9,5,3.4s4.1,0.5,6.1,0.9c1.6,0.3,3.2,0.8,4.7,1.3c2.9,0.9,6,1.5,9,1.8
		c2.1,0.2,4.9-0.3,6.9,0.4c2,0.7,2.9,1.8,3.8,3.8c0.7,1.4-1.8,2.6-2.1,2.8c-1.9,1.6-3.1,3-5.4,4c-3.1,1.3-5.9,3.4-8.2,6
		c-0.7,0.8-1.3,1.7-2.2,2.3c-1.2,0.9-2.6,1.3-4,1.9c-2.8,1.2-5.3,3.3-7.1,5.9c-0.5,0.8-0.9,1.6-1.5,2.3c-1.8,2.7-4.6,4.7-7.6,5.6
		c0.9-1,1.3-2.4,1.1-3.7"/>
	<path class="st0" d="M78,73.3c1,1.6,2.7,2.5,4.5,3c1.8,0.5,3.6,0.5,5.5,0.7c1.9,0.2,3.7,0.7,5.5,1.2c1.8,0.5,3.6,0.9,5.4,1.2
		c0.9,0.2,1.8,0.3,2.7,0.4l1.4,0.1c0.4,0,0.9,0,1.3,0c1.8,0,3.7-0.3,5.8,0.4c0.9,0.3,1.9,0.9,2.7,1.7c0.7,0.8,1.2,1.7,1.6,2.6
		c0.1,0.4,0.2,0.8,0.2,1.2c-0.1,0.4-0.2,0.7-0.4,1c-0.4,0.5-0.8,0.8-1.2,1.1c-0.2,0.1-0.4,0.3-0.6,0.4l-0.2,0.1l-0.2,0.2l-1,0.9
		c-0.7,0.6-1.4,1.3-2.2,1.8c-0.4,0.3-0.8,0.5-1.3,0.8c-0.4,0.2-0.9,0.4-1.3,0.6c-1.6,0.7-3.2,1.7-4.6,2.8c-0.7,0.6-1.4,1.2-2,1.8
		c-0.6,0.6-1.2,1.3-1.8,2c-0.6,0.7-1.4,1.5-2.4,1.9c-0.9,0.5-1.8,0.8-2.7,1.1c-3.4,1.2-6.2,3.6-8.1,6.8c-1.9,3.3-5.2,5.8-8.8,6.7
		L75,116l0.4-0.4c0.9-0.9,1.4-2.3,1.3-3.6c0.2,1.3-0.1,2.8-1,3.8l-0.2-0.3c1.7-0.6,3.3-1.5,4.7-2.7c1.4-1.2,2.4-2.6,3.4-4.3
		c1.8-3.3,4.8-6.1,8.4-7.6c0.9-0.4,1.7-0.7,2.5-1.1c0.7-0.4,1.3-0.9,1.9-1.6c0.6-0.7,1.2-1.5,1.9-2.1c0.7-0.7,1.4-1.3,2.1-1.9
		c1.5-1.2,3.1-2.2,4.9-3c0.5-0.2,0.8-0.4,1.2-0.6c0.4-0.2,0.7-0.4,1.1-0.7c0.7-0.5,1.4-1.1,2.1-1.7l1.1-0.9c0.1-0.1,0.1-0.1,0.3-0.3
		c0.2-0.1,0.3-0.2,0.4-0.2c0.2-0.1,0.4-0.2,0.5-0.3c0.3-0.2,0.6-0.5,0.8-0.7c0.2-0.3,0.2-0.3,0.1-0.5c-0.4-0.8-0.8-1.6-1.3-2.1
		c-0.5-0.6-1.2-1-2-1.3c-1.5-0.5-3.4-0.4-5.3-0.4c-0.5,0-1,0-1.5-0.1l-1.4-0.2c-0.9-0.1-1.9-0.3-2.8-0.5c-1.8-0.4-3.7-0.9-5.4-1.5
		c-1.8-0.6-3.5-1.2-5.3-1.4c-1.8-0.3-3.7-0.4-5.5-1C80.5,76.1,78.8,75,78,73.3z"/>
</g>
<g>
	<path class="st0" d="M85.2,96.2c0.8,1,0.9,2.5,0.7,3.7c-0.3,1.3-1,2.4-1.6,3.5l-4,6.6c-0.3,0.5-0.7,1.1-1.1,1.6
		c-0.4,0.5-1.1,1-1.8,1.2c-1.5,0.4-2.9-0.2-4.1-0.7c-2.4-1.1-4.6-2.4-6.8-3.7c-2.2-1.3-4.5-2.4-6.8-3.3c-2.4-0.9-4.8-1.7-7.2-2.7
		c-2.4-0.9-4.8-2-7.1-3.4c-2.2-1.4-4.3-3-6.4-4.4c-2.1-1.4-4.3-2.6-6.7-3.1c-1.2-0.3-2.6-0.6-3.8-1.2c-1.3-0.7-2.5-1.7-2.9-3.3
		c-0.1-0.4-0.1-0.8-0.1-1.3c0.1-0.5,0.3-0.9,0.7-1.3c0.7-0.6,1.4-0.8,2-1.1l3.6-1.3c2.4-0.9,4.8-1.8,7.2-2.7
		c1.2-0.4,2.5-0.8,3.8-1.1c1.3-0.3,2.6-0.3,3.8-0.6c2.4-0.5,4.7-1.7,6.9-3c2.2-1.3,4.4-2.7,6.9-3.6c1.2-0.4,2.5-0.7,3.8-0.8
		c1.3-0.1,2.6,0.1,3.8,0.6c-2.5-0.8-5.1-0.4-7.4,0.6c-2.4,1-4.4,2.4-6.6,3.9c-2.2,1.4-4.5,2.7-7.1,3.3c-1.3,0.3-2.6,0.4-3.8,0.7
		c-1.2,0.3-2.4,0.7-3.6,1.2l-7.2,2.8l-3.6,1.4c-0.6,0.2-1.2,0.4-1.4,0.7c-0.2,0.2-0.3,0.6-0.2,1c0.3,0.9,1.1,1.8,2.1,2.3
		c1,0.5,2.2,0.8,3.5,1.1c2.6,0.6,5.1,1.9,7.2,3.3c2.2,1.4,4.2,3,6.3,4.4c2.1,1.3,4.4,2.4,6.8,3.3c2.4,1,4.8,1.8,7.2,2.8
		c2.4,1,4.8,2.2,6.9,3.6c2.2,1.4,4.3,2.8,6.6,3.8c1.1,0.5,2.3,1,3.4,0.7c1.1-0.2,1.7-1.3,2.5-2.4l4.3-6.4c0.7-1.1,1.4-2.1,1.8-3.3
		C86,98.6,86,97.2,85.2,96.2z"/>
</g>
<path class="st0" d="M49.4,85.1c0.5,0.9,1.1,1.9,1.9,2.5c0.7,0.5,1.4,0.8,2.2,1c3,1,5.9,1.2,8.9,1.8c3.2,0.6,8.6,0.7,10.6,0
	c3.4,0,3.4,4.6,11,5.7c0.5,0.1,1.1-0.1,1.2-0.6c0-0.1,0-0.3-0.1-0.4c-0.2-0.5-0.4-0.9-0.6-1.3c-1-1.6-2.1-3.3-3.7-4.1
	c-1.7-0.9-3.7-0.9-5.7-1c-8.7-0.2-17.4-1.6-25.9-4"/>
<g>
	<path class="st0" d="M85.2,95.8c-0.1-1.1-0.4-2.1-0.7-3.2c-0.4-1-0.8-2-1.3-2.9C82.6,88.8,82,88,81.4,87L79.9,84
		c-0.5-1-0.9-2-1.2-3.1c-0.2-0.6-0.2-1.1-0.3-1.6c-0.1-0.5-0.4-1-0.6-1.5c-0.2-0.5-0.3-1.2-0.4-1.7c-0.1-0.5-0.2-1-0.3-1.5
		c-0.3-1-0.6-2-1.1-3c-0.5-0.9-1-2-1.6-2.5c-0.6-0.5-1.6-0.6-2.5-0.4c-0.9,0.2-1.8,0.7-2.7,1.3l-2.8,1.7l-11.1,6.9
		c-1.9,1.1-3.9,2.2-6,2.9l-0.8,0.2c-0.2,0.1-0.3,0.1-0.4,0.2c-0.2,0.1-0.3,0.6-0.3,0.8c0,0,0,0,0,0c0,0-0.1-0.1,0.1,0
		c0.2,0.1,0.4,0.3,0.6,0.4c0.5,0.2,0.9,0.5,1.4,0.7c1.9,0.9,4,1.6,6,2.4c1,0.4,2,0.7,3.1,1.1l1.5,0.5c0.5,0.1,1.1,0.3,1.4,0.4
		c2.3,0.1,4.4,0.8,6.5,1c2.1,0.3,4.2,0.2,6.4,0c1.1-0.1,2.2-0.1,3.3,0c1.2,0.1,2.2,0.7,3.1,1.4c0.9,0.7,1.8,1.3,2.5,2.2
		C84.6,93.7,85.1,94.8,85.2,95.8c-0.2-1.1-0.8-2-1.5-2.8c-0.7-0.8-1.6-1.4-2.5-2c-0.9-0.6-1.8-1.1-2.9-1.1c-1,0-2.1,0.1-3.2,0.2
		c-2.1,0.3-4.4,0.4-6.6,0.2c-2.2-0.2-4.3-0.8-6.4-0.8c-0.7-0.1-1.2-0.2-1.7-0.4l-1.6-0.5c-1-0.3-2.1-0.7-3.1-1
		c-2.1-0.7-4.1-1.4-6.2-2.3c-0.5-0.2-1-0.4-1.5-0.7c-0.3-0.1-0.5-0.3-0.8-0.4c-0.1,0-0.4-0.3-0.5-0.5c-0.2-0.2-0.2-0.5-0.3-0.7
		c-0.1-0.9,0.2-1.6,0.7-2.2c0.3-0.3,0.8-0.5,1.1-0.6l0.8-0.2c2-0.6,3.8-1.7,5.7-2.8l11.1-6.8l2.8-1.7c0.9-0.6,2-1.2,3.2-1.4
		c1.2-0.2,2.6-0.1,3.7,0.8c0.5,0.5,0.8,1,1.1,1.5c0.3,0.5,0.5,1,0.7,1.5c0.4,1,0.8,2.1,1,3.2c0.1,0.5,0.2,1.1,0.3,1.7
		c0.1,0.6,0.1,1,0.3,1.5c0.2,0.5,0.4,1,0.5,1.6c0.1,0.6,0.2,1.1,0.3,1.6c0.2,1,0.6,2,1,3l1.3,3c0.5,1,1.1,1.9,1.6,2.9
		C84.6,91.5,85.2,93.7,85.2,95.8z"/>
</g>
<g>
	<path class="st0" d="M72.2,81c1.1,0,2.1-0.2,3.2-0.5c0.2,0,0.5,0,0.6,0.2c0.2,0.1,0.2,0.3,0.3,0.4l0.4,0.7c0.3,0.4,0.6,0.7,1,0.7
		c0.4,0.1,1-0.1,1.6,0c0.7,0.1,1.2,0.7,1.5,1.1c0.3,0.5,0.5,1,0.6,1.5c0.2,0.5,0.3,1,0.5,1.6c-0.6-0.9-1.1-1.9-1.7-2.7
		c-0.3-0.4-0.7-0.7-1.1-0.7c-0.4-0.1-0.9,0.1-1.6,0c-1.5-0.1-1.9-2.1-2.2-2.1C74.4,81.4,73.2,81.4,72.2,81z"/>
</g>
<g>
	<path class="st0" d="M71.5,77c0.6-0.5,1.2-1,2-1.3c0.8-0.3,1.7-0.4,2.6-0.1c0.9,0.3,1.5,0.9,2,1.5c0.3,0.3,0.6,0.6,0.7,1
		c0.2,0.4,0.2,0.9,0,1.2c0-0.8-0.5-1.3-1.1-1.8c-0.6-0.4-1.2-0.9-1.9-1.2c-0.6-0.2-1.4-0.2-2.1,0C73,76.4,72.3,76.7,71.5,77z"/>
</g>
<g>
	<path class="st2" d="M71.8,18.4l1.4-0.1c4.2-0.6,8.4-1.2,12.6-1.8c2-0.3,4-0.6,5.9-0.5c2.5,0.1,4.9,0.9,7.4,0.8
		c3.9-0.2,7.4-2.4,11-3.9c2.1-0.9,4.3-1.5,6.4-2.1c8.5-2.3,17.2-4.6,26.1-4.7c2,0,4.1,0.1,5.9,1s3.4,2.7,3.4,4.8"/>
	<path class="st0" d="M71.8,18.4c3.5-0.6,7-1.2,10.4-1.9l5.2-0.9c1.8-0.3,3.6-0.4,5.4-0.2c1.8,0.2,3.5,0.5,5.2,0.6
		c1.7,0,3.3-0.3,4.9-0.9c1.6-0.6,3.2-1.4,4.8-2.1c1.6-0.8,3.3-1.5,5-2c6.8-2,13.7-3.8,20.8-4.8c3.5-0.5,7.1-0.7,10.7-0.5
		c1.8,0.1,3.6,0.5,5.2,1.6c0.7,0.5,1.4,1.2,1.9,2c0.5,0.8,0.7,1.7,0.7,2.6c-0.2-1.8-1.4-3.3-2.8-4.1c-1.5-0.9-3.2-1.1-5-1.1
		c-3.5,0-7,0.4-10.4,1c-3.5,0.6-6.9,1.4-10.3,2.3c-3.4,0.9-6.8,1.8-10.2,2.8c-1.7,0.5-3.2,1.1-4.8,1.9c-1.6,0.7-3.2,1.5-4.9,2.1
		c-1.7,0.6-3.6,1-5.5,0.9c-1.9-0.1-3.6-0.5-5.3-0.7c-1.7-0.2-3.4-0.2-5.1,0l-5.3,0.6l-5.3,0.6C75.4,18.1,73.6,18.3,71.8,18.4z"/>
</g>
<g>
	<path class="st2" d="M54,11.7c3.9-4.4,9-7.5,14.6-9.1c1.4-0.4,2.8-0.7,4.1-1.4c2.1,5.5,2.5,11.7,1.2,17.4c-0.7,2.8-1.7,5.6-2,8.5
		c-0.1,1-0.1,2.1,0.6,2.9"/>
	<path class="st0" d="M54,11.7c1.1-1.5,2.4-2.8,3.7-4c1.4-1.2,2.9-2.3,4.5-3.2c1.6-0.9,3.3-1.7,5.1-2.3c1.8-0.6,3.6-0.9,5-1.7L73,0
		l0.4,0.9c1.8,4.7,2.4,9.9,1.6,14.9c-0.4,2.5-1.2,4.9-1.9,7.2c-0.4,1.2-0.7,2.3-1,3.5c-0.1,0.6-0.2,1.2-0.2,1.8
		c0,0.6,0.1,1.2,0.4,1.7c-0.4-0.5-0.6-1.1-0.7-1.7c-0.1-0.6-0.1-1.3,0-1.9c0.1-1.2,0.3-2.5,0.6-3.7c0.6-2.4,1.2-4.8,1.4-7.1
		c0.3-2.4,0.2-4.8-0.1-7.2c-0.3-2.4-0.9-4.7-1.7-7L73,1.9c-1.8,1-3.7,1.2-5.3,1.7c-1.7,0.5-3.3,1.1-4.9,1.9
		c-1.6,0.8-3.1,1.7-4.6,2.7C56.7,9.3,55.3,10.5,54,11.7z"/>
</g>
<g>
	<path class="st0" d="M70.9,19.7c0.4,1-0.1,2.1-0.6,2.9c-0.5,0.8-1.1,1.5-1.6,2.2c-0.5,0.7-1,1.4-1.4,2.1c-0.2,0.3-0.3,0.7-0.4,1.1
		c-0.1,0.4-0.1,0.8,0.2,1.2c-0.5-0.1-0.9-0.7-1-1.2c-0.1-0.5-0.1-1.1,0-1.6c0.2-1,0.7-1.9,1.2-2.7c0.6-0.8,1.3-1.5,1.9-2.1
		C69.9,21.1,70.5,20.6,70.9,19.7z"/>
</g>
</svg>
