<?xml version="1.0" encoding="utf-8"?>
<!-- Generator: Adobe Illustrator 23.0.1, SVG Export Plug-In . SVG Version: 6.00 Build 0)  -->
<svg version="1.1" id="Layer_1" xmlns="http://www.w3.org/2000/svg" xmlns:xlink="http://www.w3.org/1999/xlink" x="0px" y="0px"
	 viewBox="0 0 83.7 106.8" style="enable-background:new 0 0 83.7 106.8;" xml:space="preserve">
<style type="text/css">
	.st0{fill:#6A82A0;}
	.st1{fill:#4D667C;}
	.st2{fill:#FFFFFF;}
	.st3{fill:none;}
	.st4{fill:#E0ECFC;}
</style>
<g>
	<path class="st4" d="M6.3,101.1c-1.2-3.8-1.8-7.8-2.1-11.7c-0.3-4-0.3-8-0.1-11.9c0.3-7.9,1.2-15.7,1.4-23.4c0.1-1,0-1.9,0-2.9
		c0-1,0-1.9,0-2.9c0-0.9,0-1.9-0.1-2.8l-0.2-2.8c-0.4-3.8-1.1-7.6-1.8-11.4C2,23.5,0.8,15.8,0,7.9c2.8,7.4,5,15,7.2,22.5
		c1.1,3.8,2.1,7.7,2.7,11.7c0.6,4,0.7,8.1,0.6,12.1C10.3,62.3,9,70.1,8,77.8C6.9,85.6,6.1,93.2,6.3,101.1z"/>
</g>
<g>
	<path class="st4" d="M0.2,6.7c6,1.3,12.1,2,18.1,2.2c3,0.1,6,0,9.1-0.2c3-0.2,6-0.6,9-1c6-0.9,11.9-2.2,17.9-3.4
		c6-1.3,12-2.6,18-3.7L74.8,0l0.3,2.6c0.4,4.2,0.8,8.4,1.4,12.5c0.5,4.1,1.2,8.2,2.1,12.2c0.9,4,2.1,8.1,2.9,12.4
		c0.8,4.2,1.4,8.5,1.7,12.8c0.7,8.5,0.6,17.1,0.1,25.5c-0.6,8.5-1.3,16.9-2.2,25.3c-0.3-8.5-0.5-16.9-0.5-25.3
		c-0.2-8.4-0.6-16.8-1.6-25.1c-0.5-4.1-1.1-8.2-2.1-12.3c-0.9-4-2.1-8-3.1-12.2c-1-4.2-1.8-8.5-2.3-12.7c-0.5-4.3-0.9-8.5-1.3-12.7
		l2.8,2.1c-6,1.2-12,2.2-18.1,3.3c-6,1.1-12.1,2-18.3,2.6c-6.2,0.5-12.4,0.7-18.6-0.1C12,10.3,6,8.9,0.2,6.7z"/>
</g>
<g>
	<path class="st4" d="M81.3,104.3c-6.2,2.2-13,2.7-19.6,2.4c-6.6-0.4-13.1-1.6-19.4-2.8c-6.3-1.2-12.6-2.5-18.9-3.1
		c-1.6-0.1-3.2-0.3-4.7-0.4c-1.5-0.1-3,0-4.4,0.4c-2.9,0.7-6,2.4-9.3,2.6c3-1.3,5.4-3.4,8.6-4.9c1.6-0.7,3.4-1.1,5.1-1.3
		c1.7-0.2,3.3-0.2,5-0.2c6.7,0,13.2,1,19.6,2.2c6.4,1.2,12.7,2.7,18.9,3.8C68.5,103.9,74.8,104.5,81.3,104.3z"/>
</g>
<g>
	<path class="st4" d="M19,28.6c3.6-1.6,7.3-2.5,11.1-3.3c3.8-0.7,7.6-1.1,11.4-1.3c3.8-0.2,7.7-0.1,11.5,0.3
		c3.8,0.4,7.6,1.1,11.3,2.3c-3.8,0.8-7.6,1.2-11.4,1.6c-3.8,0.3-7.5,0.6-11.2,0.7c-3.7,0.2-7.5,0.2-11.3,0.2
		C26.7,29.1,22.9,29,19,28.6z"/>
</g>
<g>
	<path class="st4" d="M21.5,46.6c3.6-1.6,7.2-2.6,11-3.4c3.7-0.8,7.5-1.3,11.3-1.5c3.8-0.3,7.6-0.3,11.4,0c3.8,0.3,7.6,0.8,11.3,1.9
		c-3.8,0.9-7.5,1.5-11.2,1.9c-3.7,0.4-7.4,0.8-11.2,1c-3.7,0.2-7.4,0.4-11.2,0.5C29.1,47,25.4,47,21.5,46.6z"/>
</g>
<g>
	<path class="st4" d="M21.7,67c3.5-1.7,7.1-2.9,10.9-3.7c3.7-0.9,7.6-1.4,11.5-1.4c1.9,0,3.9,0.1,5.9,0.4c1.9,0.3,3.8,0.7,5.7,1.1
		c3.7,0.9,7.1,1.9,10.9,2.7c-3.7,1.3-7.7,1.3-11.5,1.2l-5.5-0.3c-1.8-0.1-3.6-0.1-5.4-0.1c-3.6,0-7.3,0.2-11,0.3
		C29.4,67.2,25.6,67.4,21.7,67z"/>
</g>
<g>
	<path class="st4" d="M22.7,86.4c3.1-2.3,6.7-3.9,10.5-5c3.7-1.1,7.7-1.6,11.6-1.7c3.9,0,7.8,0.5,11.6,1.5c3.8,1.1,7.4,2.6,10.5,5
		c-3.9-0.4-7.5-0.9-11.2-1.1c-3.7-0.3-7.3-0.4-10.9-0.4c-3.6,0-7.2,0.2-10.9,0.5C30.2,85.5,26.5,86,22.7,86.4z"/>
</g>
</svg>
