<?xml version="1.0" encoding="utf-8"?>
<!-- Generator: Adobe Illustrator 23.0.1, SVG Export Plug-In . SVG Version: 6.00 Build 0)  -->
<svg version="1.1" id="Layer_1" xmlns="http://www.w3.org/2000/svg" xmlns:xlink="http://www.w3.org/1999/xlink" x="0px" y="0px"
	 viewBox="0 0 443.2 385.2" style="enable-background:new 0 0 443.2 385.2;" xml:space="preserve">
<style type="text/css">
	.st0{fill:#FFFFFF;}
	.st1{fill:none;}
	.st2{fill:none;stroke:#FFFFFF;stroke-width:0.8969;stroke-miterlimit:10;}
</style>
<g>
	<g>
		<path class="st0" d="M36.1,164.7h3.2v35.6h-3.2v-16.8H13.6v16.8H10v-35.6h3.6v16.7h22.5V164.7z"/>
		<path class="st0" d="M74.8,164.7V185c0,5.4,0.2,15.9-13.7,15.9c-14,0-14.1-10.6-14.1-16.3v-20h3.2V185c0,3.1,0,13.6,10.8,13.6
			c10.5,0,10.5-10.3,10.5-13.6v-20.4H74.8z"/>
		<path class="st0" d="M83,164.7h4.7l19.8,31.8v-31.8h3.3v35.6h-3.7l-20.9-33.6v33.6H83V164.7z"/>
		<path class="st0" d="M127.5,164.6c13.3,0,18.3,10.8,18.3,18c0,7.2-3.9,17.7-18.3,17.7h-9v-35.6H127.5z M121.8,196.2
			c0,1.9,0,1.9,1.2,1.9h4.5c5.8,0,14.3-3.6,14.3-15.5c0-11.4-8.5-15.9-14.3-15.9c-4.5,0-5.8,0-5.8,0.4V196.2z"/>
		<path class="st0" d="M190.2,169.7c0,0.5-0.1,1.7-0.4,3.3c6.9,1.2,9.9,4.6,9.9,12.1c0,5-1.7,9.1-6.2,12.5c2.4,1.3,4.3,1.5,5.5,1.5
			c3.4,0,5.7-0.9,7.8-2v2.6c-1.8,1-4.1,1.5-7.9,1.5c-2.6,0-4.9-0.4-7.9-2.2c-3.6,1.6-7.8,2.3-12.6,2.3c-10.3,0-14-5-14-13.6
			c0-7.8,3.4-11,11.1-12.2c-0.6-2.8-1.1-3.1-1.1-5.7c0-4.7,4-5.7,8-5.7C187.2,164.1,190.2,165.5,190.2,169.7z M167.6,187.4
			c0,9,3.4,11.7,10.8,11.7c3,0,6.5-0.5,10.4-1.6c-6.2-5.9-10.2-13.3-13.1-20.7C170.3,178.2,167.6,179.5,167.6,187.4z M182.4,166.2
			c-3.4,0-5.8,0.5-5.8,4.3c0,3.6,3.5,10.6,5.8,14.6c2.9-5.7,5.5-10.7,5.5-14.6C187.9,166.7,185.3,166.2,182.4,166.2z M183.2,187.2
			c3.3,5,4.5,6.4,7.4,8.8c3.8-1.8,5.8-5.2,5.8-11.2c0-7-2.2-8.6-7.1-10.3C187.9,178.5,185.7,183,183.2,187.2z"/>
		<path class="st0" d="M244.7,164.7h3.2v35.6h-3.2v-16.8h-22.5v16.8h-3.6v-35.6h3.6v16.7h22.5V164.7z"/>
		<path class="st0" d="M260.5,164.6v36.8c0,7.1-4.1,8.7-6.1,9.1v-1.8c2.1-2.1,3-4,3-7.2v-36.8H260.5z"/>
		<path class="st0" d="M269.6,164.7h20.7v2.1h-17.6v14.3h13v2.1h-13v14.9h18.7v2.1h-21.9V164.7z"/>
		<path class="st0" d="M315.4,196.1l-14.3-29.4c0,10.6-0.1,22.1-0.1,33.6h-3.1v-35.6h6.1l12.1,26.7c0.9,1.9,1.9,1.1,2.4,0
			c10.4-23.3,11.3-25.2,11.9-26.7h5.6v35.6h-3.2l0-33.7L319,196.1H315.4z"/>
		<path class="st0" d="M365.6,198.1v2.2h-21.8v-35.6h3.3v32.1c0,1.3,0,1.3,1.1,1.3H365.6z"/>
		<path class="st0" d="M395,163.6l-0.5,1.2c7.7,2.9,11.1,8.6,11.1,17.7c0,10.6-5.2,18.7-18.7,18.7c-1.9,0-4.1-0.2-6.5-0.6l-0.2,0.6
			h-0.8l0.3-0.7c-8.3-2.8-11.4-9.5-11.6-18c0-11.8,7.9-18.7,18.8-18.7c2.2,0,4.4,0.2,6.7,0.7c0-0.2,0.2-0.3,0.2-0.5
			c0-0.1,0.1-0.2,0.2-0.3c0-0.1,0-0.1,0-0.1H395z M380.5,198.2l6.4-16.2l5.9-15.2c-3-0.8-4-0.8-6-0.8c-2.5,0-14.9,0.1-14.9,16.5
			C372,191.4,376.1,195.9,380.5,198.2z M402.3,182.5c0-8.6-4.2-13-8.6-15.4l-12.3,31.3c2,0.5,4.2,0.6,5.6,0.6
			C389,199.1,402.3,199,402.3,182.5z"/>
		<path class="st0" d="M433.3,168.5c-4.6-2.1-7.7-2.5-11.3-2.5c-4.5,0-8.4,2.5-8.4,6.9c0,4.2,2.8,6,7.8,7.3
			c5.5,1.7,13.1,4,13.1,11.6c0,7.8-8.7,9.5-13.5,9.5c-5.8,0-9.6-1.7-11.3-2.9v-3.3c2.5,1.8,6.7,3.8,11.3,3.8c5.4,0,9.7-3.1,9.7-7.1
			c0-2.3-0.4-6.2-9.1-8.5h0c-7.6-2.1-11.9-4.7-11.9-10.5c0-4.6,4.3-9,12.4-9c6.5,0,9.4,1.1,11.3,2.1V168.5z"/>
	</g>
	<path class="st0" d="M81.8,51.5h8.9v97.9h-8.9v-46H19.9v46H10V51.5h9.9v45.7h61.9V51.5z"/>
	<path class="st0" d="M132.3,51.8v78.7c0,15.1-11.6,18.5-17.1,19.4v-3.9c6-4.6,8.4-8.6,8.4-15.5V51.8H132.3z"/>
	<path class="st0" d="M217.6,51.6h59.2v5.8h-47.4c0,25.7,0.1,33,0.1,39.3h35.1v5.9h-35.1l0.3,40.9h50.4v5.9h-60.1V112h-38.5
		l-28.2,37.3h-7.7L217.6,51.6z M184.8,106.2h35.3l0.3-48.9L184.8,106.2z"/>
	<path class="st0" d="M352.5,143.2v6.2h-59.8V51.5h9v88.2c0,3.7-0.1,3.6,3,3.6H352.5z"/>
	<path class="st0" d="M399.8,51.5c25.9,0,34.6,15.5,34.6,28.8c0,12.5-8.2,27.9-34.6,27.9h-24.9v41.4h-8.8V51.6L399.8,51.5z
		 M374.9,101.9h24.9c19.2,0,24.2-15.6,24.2-21.6c0-9.6-5.1-22.7-24.2-22.7h-24.9V101.9z"/>
	<g>
		<path class="st0" d="M10,18.1h1.8V38H10V18.1z"/>
		<path class="st0" d="M16.9,18.1h2.6l11,17.7V18.1h1.8V38h-2.1L18.6,19.3V38h-1.8V18.1z"/>
		<path class="st0" d="M41.6,18.1c7.4,0,10.2,6,10.2,10c0,4-2.2,9.8-10.2,9.8h-5V18.1H41.6z M38.5,35.7c0,1.1,0,1.1,0.7,1.1h2.5
			c3.3,0,8-2,8-8.6c0-6.4-4.7-8.8-8-8.8c-2.5,0-3.2,0-3.2,0.2V35.7z"/>
		<path class="st0" d="M67.8,20.2c-2.6-1.2-4.3-1.4-6.3-1.4c-2.5,0-4.7,1.4-4.7,3.8c0,2.3,1.6,3.3,4.3,4.1c3.1,0.9,7.3,2.3,7.3,6.5
			c0,4.4-4.8,5.3-7.5,5.3c-3.3,0-5.3-0.9-6.3-1.6v-1.8c1.4,1,3.8,2.1,6.3,2.1c3,0,5.4-1.8,5.4-3.9c0-1.3-0.2-3.5-5.1-4.8h0
			c-4.2-1.2-6.6-2.6-6.6-5.8c0-2.6,2.4-5,6.9-5c3.6,0,5.2,0.6,6.3,1.2V20.2z"/>
		<path class="st0" d="M77.5,18.1h2.9l7,19.9h-2.1l-2.5-7.6h-8.1L71.6,38h-1.9L77.5,18.1z M78.9,19L75,29.2h7.5L78.9,19z"/>
		<path class="st0" d="M99.8,35.6l-7.9-16.4c0,5.9-0.1,12.3-0.1,18.7H90V18.1h3.4l6.7,14.9c0.5,1.1,1.1,0.6,1.4,0
			c5.8-13,6.3-14,6.6-14.9h3.1V38h-1.8l0-18.8l-7.6,16.4H99.8z"/>
		<path class="st0" d="M127.8,36.7V38h-12.1V18.1h1.8V36c0,0.8,0,0.7,0.6,0.7H127.8z"/>
		<path class="st0" d="M130.8,18.1h1.8V38h-1.8V18.1z"/>
		<path class="st0" d="M137.6,18.1h2.6l11,17.7V18.1h1.8V38h-2.1l-11.6-18.7V38h-1.8V18.1z"/>
		<path class="st0" d="M175.5,29.6v7.3c-1.8,0.6-5.3,1.6-8.5,1.6c-7.9,0.1-10.6-4.3-10.6-10.5s3.8-10.4,10.3-10.4
			c3.7,0,6.5,0.7,7.3,1v1.9c-1.7-0.6-3.5-1.7-7.3-1.7c-5.6,0-8.3,4.1-8.3,9.3c0,9.2,7.1,9,8.6,9c2.7,0,4.8-0.4,6.7-1.7v-5.8H175.5z"
			/>
	</g>
	<g>
		<path class="st0" d="M442.8,292.6c-23.2,8-47.1,14-70.9,20c-16.7,4.2-33.7,8.5-51,8.1c-3.2-0.1-5.7-2.2-8.7-3.2
			c-4.4-1.6-8.9-3-13.1-5.1c-4.6-2.2-9.7-2.8-14.8-3c-0.3,0.1-0.5,0.1-0.8,0.1c-3.2,0-6.5-0.4-9.7-0.2c-3,0.2-5.8,0.7-8.8,0.4
			c-11.1,0-22.1-1.7-32.7-5c-1.8,0.9-3.2,0-3.9-1.3c-0.6-0.2-1.1-0.4-1.7-0.6c-0.3,0.8-0.8,1.6-1.8,2.1c-1.2,0.6-2.2,0.5-3-0.1
			c-0.2,0.1-0.4,0.2-0.7,0.3c-0.8,0.2-1.6,0.4-2.4,0.5c-0.1,0-0.2,0.1-0.3,0.1c-1.9,0.5-3.7,1.6-5.6,2.2c-2,0.7-4.7-0.5-4.8-2.9
			c0-0.9-0.1-1.9-0.1-2.8c-0.9-0.6-1.7-1.2-2.4-2c-0.2,0.1-0.4,0.1-0.6,0.1c-2.7,12.3-2.7,25.2,0.1,37.4c-5.5-3.9-7.6-10.9-9.8-17.3
			c-1.6-4.6-3.8-9.4-7.3-12.5c-1.6,0.2-3.2,0.4-4.8,0.4c-0.1,6.8,0.3,13.6,1.3,20.4c0,0,0,0,0,0c0.6,1.2,0.6,2.8-0.4,3.9
			c-1.8,1.9-3.2,3.3-4.3,5.5c1,1.4,2.1,2.9,3.2,4.2c0.2,0.1,0.3,0.2,0.5,0.4c3.6,3.4,8.3,6,11.3,10c0.9,1.2,1.6,3.1,2.2,5.2
			c0.3,0.1,0.6,0.2,1,0.4c1.6,1,3.2,2.7,4.5,4.8c0.2,0.1,0.5,0.3,0.7,0.3c2,0.7,4.1,0.4,6.2,0.3c6.2-0.3,12.5,1,18,3.8
			c7.1,3.6,13.8,9.8,21.7,8.9c2.6-0.3,5-1.4,7.4-2.3c9-3.5,18.5-5.5,28-7.5c29.8-6.2,59.7-12.4,90-15c22.6-1.9,45.5-1.9,68.1-3.7
			V292.6z M223.6,347.8c-0.5-1.4-1.4-3.4-2.4-5.7c-7-4.8-9.1-16.7-10.7-24.3c-0.8-3.9,4.3-4.7,6.4-2.5c2.7,2.8,7.2,3.8,10.3,6.1
			c1.7,1.3,1.6,3.2,0.7,4.5c1.7,4.5,1.9,10.7,2.1,14.1c0.1,1-0.3,1.9-0.8,2.6c0.5,1.3,0.9,2.2,1,2.5
			C231.8,349.5,225.2,352,223.6,347.8z M258.2,331.3c-0.1,0.4-0.2,0.8-0.5,1.2c0,0.1,0,0.1-0.1,0.2c-0.4,1-1.5,1.8-2.6,2
			c-2.3,1.7-4.2,4.4-6.8,5.6c-0.3,0.4-0.7,0.8-1.3,1.1c-1.8,0.9-3.2,0.2-4-1.1c-2.3-0.9-4-2.9-4.3-5.3c-1.5-1.5-2.7-3.3-3.3-5.4
			c-0.7-2,0.5-4.8,2.9-4.8c2.6,0,5.2,0.3,7.7,0.8c2.4,0.2,4.9,0.4,7.2,1.1c0.7,0.1,1.4,0.3,2.2,0.4
			C257.2,327.6,258.6,329.3,258.2,331.3z"/>
		<path class="st0" d="M185.5,331.5c-2-1.8-4-3.6-6.5-4.7c-2.4-1.1-5.3-1.6-7.8-0.6c-0.3,0.1-0.6,0.3-0.7,0.6
			c-0.1,0.2,0,0.5,0.1,0.7c0.8,1.9,2.1,3.6,3.4,5.2c9,11.3,20.2,20.8,30.1,31.4c0.8,0.8,1.5,1.7,2.6,2.1c1.1,0.5,2.4,0.4,3.6,0.4
			c7.8-0.2,15.6,1.2,22.9,3.9"/>
		<path class="st1" d="M265.5,364.9c2.2-1.7,4.4-3.5,6.6-5.2c2.6-2,5.3-4.4,5.6-7.6c0.2-1.7-0.3-3.4,0.4-4.9
			c0.4-0.9,1.1-1.5,1.8-2.2c1.1-1.3,1.9-3,2-4.8"/>
		<path class="st0" d="M259.3,332c-0.6-2.9-3.2-5-6-5.9c-2.8-0.9-5.8-0.8-8.8-0.8c-10.5-0.2-21.3-2.8-29.4-9.5
			c-1.6-1.3-3.3-3.2-2.9-5.3c0.4-2.4,3-3.6,5.4-4.2c9.3-2.4,19.2-1.1,28.5,1.2c3.3,0.8,6.7,1.8,10.1,2.2c6.8,0.9,13.8-0.1,20.7-0.2
			c12.2-0.2,24.4,2.6,35.4,7.9"/>
		<path class="st0" d="M202.9,335.5c-3.7-5.5-6.3-11.7-7.8-18.2c-0.4-1.6-0.6-3.2-1.4-4.6c-0.7-1.3-1.6-2.3-2.6-3.4
			c-0.8-0.9-6-3.1-6.1-3.3c-1.1-1.3-0.5-0.5-1.6-1.9c-0.5,6.9,1,23.5,1,23.5c2.4,8.5,5.7,16.7,9.7,24.5c0.6,1.1,1.2,2.3,2.2,3.2
			c1.3,1.1,3,1.6,4.6,2.1c5.2,1.7,10.1,4.3,14.4,7.6"/>
		<path class="st0" d="M234.3,364.4c-7.5-5.4-15.9-9.5-24.7-12.2c-1-0.3-2.1-0.6-2.8-1.4c-0.5-0.6-0.8-1.3-1-2
			c-4.5-13.2-5.4-27.6-2.7-41.3c0.5-2.6,1.1-5.1,1-7.8l0.5,0.5c3-0.1,5.6,2.2,6.9,4.9c1.3,2.7,1.4,5.8,1.6,8.8
			c0.1,2.3,0.2,4.6,0.4,6.9c0.2,3.7,0.4,7.4,1.4,10.9c1,3.5,3,6.9,6,9c3.6,2.5,9.4,2.6,11.9,6.1"/>
		<path class="st0" d="M246,364.3c-2.8-6.4-7-12.2-12.3-16.7c-1.7-1.5-3.6-2.9-4.7-4.9c-0.9-1.6-1.2-3.4-1.4-5.2
			c-1.7-10.6-3.3-21.4-3-32.1c0-1.3,0.4-2.9,1.7-3.1c0.4,0,0.7,0.1,1,0.2c2.8,1.1,4.3,4.1,5.4,7c1.9,5.2,3.5,16.4,3.5,16.4
			c0.6,3.3,1.2,6.6,2.7,9.5c1.5,3,4,5.6,7.2,6.5c1,0.3,2,0.4,2.9,0.8c1.9,0.7,3.4,2.1,5.3,2.5c0.6,0.1,1.3,0.1,1.9,0.3
			c1.8,0.4,3,2,4.1,3.5"/>
		<g>
			<g>
				<path class="st0" d="M242.8,257c-8.1-8-20.1-10.1-30.9-13.7c-9-3-17.6-7.4-26.1-11.7l-25.4-12.9c-6.4-3.2-12.8-6.5-19.8-8.2
					c-18.2-4.6-37.2,1.9-55.8,4.6c-28,4.2-56.4,0.1-84.4-4l-0.1,0.1v78.7c8.1-1.7,17.5,3.2,24.3-1.4c1.8-1.2,3.1-3,4.9-4.2
					c4.7-3.2,11-2.1,16.7-2.1c5.7,0.1,12.7-2.3,13.4-7.9c7.5,1.7,15.2-0.9,22.5-3.4c2-0.7,4-1.4,6-2.1c11.9-4.2,24-8.4,36.6-8.7
					c-0.9-1.8-1.8-3.6-2.7-5.5c1.6-0.5,3.2-0.5,4.7-0.2c0.8-1.1,2.2-1.7,3.8-1.2c6.3,1.8,18.1,9.1,18.2,9.3c3.3,1.2,5.8,4,13.6,1.2
					c1.8-1.3,3.5-2.8,5-4.3c1.5-1.5,4.8-0.9,5.5,1.2l1.6,4.9c0.3-0.6,0.7-1.3,1-1.9c3,2.4,6,4.7,9,7.1c5.5,1.5,10.9,3.8,13.9,8.7
					c0.3,0.4,0.5,0.9,0.7,1.3c1.5,1.3,3,2.8,4.3,4.5c1.2,0.8,2.4,1.5,3.7,2.1c1.5-2.7,6-1.3,6.4,1.9c1-0.1,2.1-0.3,3.1-0.6
					c-0.1-0.5-0.1-1-0.1-1.5c-0.4-0.8-0.9-1.6-1.2-2.4c-1-2.6,1.4-6.2,4.4-4.8c1.8,0.8,3.2,1.7,4.6,3.2c1.1,1.2,1,2.8,0.3,4
					c0.1,0.1,0.1,0.3,0.2,0.4c0.9,0.2,1.8,0.4,2.8,0.5c2.5,0.2,5,0,7.4-0.8c1.8-0.6,3.4,0.2,4.3,1.5c1.5-1.1,2.9-2.2,4.4-3.2
					c0,0,0,0,0,0c-0.1-2.8,0-5.6,1.9-8c1.7-2.3,4.3-4.3,6.9-6C249.6,266.3,246.9,261.1,242.8,257z"/>
			</g>
			<path class="st0" d="M219,281.2c1.2,3.1,1.9,6.3,2.2,9.5c0.1,0.5,0.1,1.2-0.3,1.5c-0.4,0.4-1.1,0.3-1.7,0.2
				c-4.1-1-7.7-3.7-9.8-7.3"/>
			<path class="st0" d="M242,273.6c4.1,4.3,7,9.3,8.6,14.7c-0.3,0.6-1.3,0.4-1.9,0.1c-3.3-1.5-6.6-3-9.9-4.5"/>
			<path class="st0" d="M249.2,267c3.2,4.1,5.1,9,5.7,14.1c0,0.2,0,0.3-0.1,0.5c-0.2,0.3-0.6,0.2-0.9,0c-3.2-1.8-5.8-4.8-9.3-5.6"/>
			<g>
				<path class="st0" d="M140,251.1"/>
			</g>
			<path class="st0" d="M154.9,216c47.1,29.3,74.5,23.4,94.1,48.6c0.7,0.9,1,2.3,0.7,3.4c-0.7,2.8-5.4,3.7-5.2,6.6"/>
			<path class="st0" d="M222,255.3c4.9,0,9.4,2.5,12.9,5.8c3.4,3.3,6,7.4,8.4,11.4c0.2,0.3,0.3,0.6,0.3,0.9c-0.1,0.5-0.6,0.7-1,1
				c-1.8,1.4-0.5,4.1-0.1,6.3c0.6,3.8-2.5,7.7-6.4,8.8c-3.9,1.1-8.1-0.4-11.1-2.9s-4.8-6.1-6.1-9.8"/>
			<path class="st0" d="M212,260.2c1.1,1.5,2.1,3,3.2,4.5c1.7,2.4,3.4,4.9,4.1,7.8c0.5,2.3,0.3,4.8,0,7.2c-0.1,0.8-0.2,1.7-0.5,2.5
				c-1,2.5-3.9,3.5-6.5,4.2c-2.1,0.6-4.3,1.2-6.4,0.5c-1.5-0.5-2.8-1.6-3.9-2.8c-1.7-1.8-3.1-3.7-4-6c-0.8-2.3-0.9-4.9,0.1-7
				c0.3-0.6,0.7-1.2,0.8-1.9c0.2-2-2-3.1-3.9-3.8"/>
			<path class="st0" d="M171.6,257.1c2.4,3.1,3.9,6.8,4.3,10.7c0,0.1,0,0.3,0,0.4c-0.1,0.2-0.5,0.1-0.7,0c-2.4-1.4-4.4-3.7-7.1-4.2"
				/>
			<path class="st0" d="M150.8,239.4c4.5,4.5,9.5,8.4,14.7,11.4c1.8,1,3.6,1.9,5.1,3.4s2.8,3.5,2.9,5.7c-2.6-1-5.4,1.5-5.1,4.6
				c-3.8-0.5-6.7-4.4-9.9-7.1c-3.4-2.9-7.4-4.6-11.3-6.2"/>
		</g>
	</g>
	<rect x="0.4" y="0.4" class="st2" width="442.3" height="384.3"/>
</g>
</svg>
