<svg id="Layer_1" data-name="Layer 1" xmlns="http://www.w3.org/2000/svg" viewBox="0 0 34.21855 34.21954">
  <defs>
    <style>
      .cls-1 {
        fill: #f5fafd;
      }
    </style>
  </defs>
  <title>some-03</title>
  <path class="cls-1" d="M30.3859,0H4.11725A4.11724,4.11724,0,0,0,0,4.11725V29.87588a4.34353,4.34353,0,0,0,4.34353,4.34353H7.47261V20.95122A.81118.81118,0,0,0,6.66143,20.14H5.37892a.81118.81118,0,0,1-.81118-.81118V16.09878a.81118.81118,0,0,1,.81118-.81119H6.66143a.81117.81117,0,0,0,.81118-.81118V12.36615A6.72794,6.72794,0,0,1,8.942,7.65891q1.46927-1.59831,4.83548-1.598h3.06705a.81118.81118,0,0,1,.81118.81118v3.23014a.81119.81119,0,0,1-.81119.81119H15.22947a4.13273,4.13273,0,0,0-1.06792.11114.942.942,0,0,0-.58082.40155,1.65,1.65,0,0,0-.23076.58936,5.34292,5.34292,0,0,0-.0511.846v1.61508a.81118.81118,0,0,0,.81118.81118h2.769a.71446.71446,0,0,1,.726.80674l-.3423,3.23909a.92411.92411,0,0,1-.89642.80668H14.11012a.81118.81118,0,0,0-.81118.81118V34.21954H29.46778a4.75077,4.75077,0,0,0,4.75077-4.75076V4.105A4.09581,4.09581,0,0,0,30.3859,0Z"/>
</svg>
