<svg id="Layer_1" data-name="Layer 1" xmlns="http://www.w3.org/2000/svg" viewBox="0 0 33.62267 33.62267">
  <defs>
    <style>
      .cls-1 {
        fill: #fdfeff;
      }
    </style>
  </defs>
  <title>some</title>
  <g id="post-linkedin">
    <path class="cls-1" d="M30.26041,0H3.36227A3.37215,3.37215,0,0,0,0,3.36227V30.26041a3.37215,3.37215,0,0,0,3.36227,3.36226H30.26041a3.37215,3.37215,0,0,0,3.36226-3.36226V3.36227A3.37215,3.37215,0,0,0,30.26041,0ZM10.0868,28.57927H5.0434V13.44907h5.0434ZM7.5651,10.59114a3.026,3.026,0,1,1,3.026-3.026A3.01346,3.01346,0,0,1,7.5651,10.59114ZM28.57927,28.57927h-5.0434v-8.91a2.5217,2.5217,0,1,0-5.0434,0v8.91h-5.0434V13.44907h5.0434v2.01736a5.43046,5.43046,0,0,1,4.20284-2.35359,5.95648,5.95648,0,0,1,5.884,5.884Z"/>
  </g>
</svg>
