<svg id="Layer_1" data-name="Layer 1" xmlns="http://www.w3.org/2000/svg" viewBox="0 0 33.62267 33.62267">
  <defs>
    <style>
      .cls-1 {
        fill: #fdfeff;
      }
    </style>
  </defs>
  <title>some</title>
  <g id="post-instagram">
    <path class="cls-1" d="M29.566,0H4.27762A4.2902,4.2902,0,0,0,0,4.27762v25.2498a4.10729,4.10729,0,0,0,4.09526,4.09525h25.7443a3.79423,3.79423,0,0,0,3.78311-3.78311V4.05666A4.06858,4.06858,0,0,0,29.566,0ZM16.81134,10.0868a6.72454,6.72454,0,1,1-6.72454,6.72454A6.7443,6.7443,0,0,1,16.81134,10.0868ZM4.20283,30.26041a.84057.84057,0,0,1-.84056-.84057V15.1302H6.89265a5.71893,5.71893,0,0,0-.16812,1.68114,10.08681,10.08681,0,0,0,20.17361,0A5.71925,5.71925,0,0,0,26.73,15.1302h3.53038V29.41984a.84058.84058,0,0,1-.84057.84057ZM30.26041,7.5651a.84058.84058,0,0,1-.84057.84057H26.05757A.84057.84057,0,0,1,25.217,7.5651V4.20283a.84056.84056,0,0,1,.84056-.84056h3.36227a.84057.84057,0,0,1,.84057.84056Z"/>
  </g>
</svg>
